<svg xmlns="http://www.w3.org/2000/svg" viewBox="0 0 35.32 34.44"><defs><style>.cls-1{fill:#151d38;}</style></defs><g id="Layer_2" data-name="Layer 2"><g id="Capa_1" data-name="Capa 1"><path class="cls-1" d="M23.71,34.25a3.16,3.16,0,0,1-.52.17.86.86,0,0,1-1.12-.92c0-1.29,0-2.57,0-3.86A5.48,5.48,0,0,0,21,25.48c.67-.12,1.26-.21,1.84-.34,3.87-.89,5.87-3.32,6.13-7.37a7.44,7.44,0,0,0-1.61-5.56.71.71,0,0,1,0-.54,6.77,6.77,0,0,0-.17-4,.5.5,0,0,0-.6-.41A6.17,6.17,0,0,0,23.4,8.37a3.2,3.2,0,0,1-2.75.49A15.35,15.35,0,0,0,13.71,9a1.27,1.27,0,0,1-.85-.16,11.35,11.35,0,0,0-3.42-1.5c-1-.18-1-.14-1.3.8a6.51,6.51,0,0,0,0,3.53.74.74,0,0,1-.11.58c-2.56,2.85-1.63,8.24.09,10.31a8.32,8.32,0,0,0,5.09,2.7l1,.17c-.3.77-.56,1.5-.87,2.21A.65.65,0,0,1,13,28a3.6,3.6,0,0,1-4.72-1.56,3.7,3.7,0,0,0-2.49-1.84l-.1,0-.91.25c.17.24.29.56.52.7a5.12,5.12,0,0,1,2,2.5,3.85,3.85,0,0,0,3.54,2.46c.8.06,1.61,0,2.48,0,0,1,0,2.13,0,3.26,0,.61-.64.85-1.37.6a15.77,15.77,0,0,1-5.31-3C1,26.52-1.21,20.39.66,13.22S7.38,1.68,14.65.3a17.64,17.64,0,0,1,9.06,34Zm-9.48-8.84,0,0h.06S14.29,25.49,14.23,25.41ZM9.68,28.59a2.61,2.61,0,0,0,.48.28c.06,0,.17-.12.38-.27a3.14,3.14,0,0,0-.63-.23C9.85,28.36,9.76,28.52,9.68,28.59Zm1.43.25a.44.44,0,0,0,.36.23c.12,0,.23-.16.35-.25l-.55-.49C11.2,28.54,11.08,28.71,11.11,28.84Zm1.76-.42c-.15,0-.27.17-.41.26l.29.35.41-.38C13.06,28.57,12.94,28.4,12.87,28.42Zm-4.36-.6a3.67,3.67,0,0,0,.38.51c.12-.19.24-.33.22-.36a2.34,2.34,0,0,0-.4-.37S8.5,27.79,8.51,27.82Z"/></g></g></svg>