<svg xmlns="http://www.w3.org/2000/svg" viewBox="0 0 2896.02 1623.37"><defs><style>.cls-1{isolation:isolate;}.cls-2{fill:#fdeacf;}.cls-3{fill:#febac7;}.cls-4{opacity:0.3;}.cls-14,.cls-21,.cls-4,.cls-7{mix-blend-mode:multiply;}.cls-5{fill:#f47458;}.cls-6{fill:#dcf4ff;}.cls-8{fill:#83d0e5;}.cls-9{fill:#fff;}.cls-10{fill:#fec786;}.cls-11{fill:#f7597f;}.cls-12{fill:#ffd4e0;}.cls-13{fill:#e53567;}.cls-14{opacity:0.5;}.cls-15{fill:#4cb7d8;}.cls-16{fill:#7fc6a6;}.cls-17{fill:#3f9896;}.cls-18{fill:#b1e8fc;}.cls-19{fill:#213748;}.cls-20{fill:#80c5a6;}.cls-21{opacity:0.8;}.cls-22{fill:#fc4963;}.cls-23{fill:#f7d6b2;}.cls-24{fill:#fe9f73;}.cls-25{fill:#21111d;}.cls-26{fill:#f07162;}.cls-27{fill:#fbfdfc;}.cls-28{fill:#1d7c7a;}.cls-29{fill:#258d8c;}.cls-30{fill:#ff424d;}.cls-31{fill:#e83c4e;}.cls-32{fill:#fcaf90;}.cls-33{fill:#49263e;}.cls-34{fill:#fc5b73;}.cls-35{fill:#ea5942;}.cls-36{fill:#ffb357;}.cls-37{opacity:0.6;}</style></defs><g class="cls-1"><g id="Layer_2" data-name="Layer 2"><g id="Layer_1-2" data-name="Layer 1"><path class="cls-2" d="M1787.45,1620.39l1023.22-1.77s177.79-325.89-73.4-785.74C2590.82,564.78,2242.12,401,1918,381.62,1522.66,358,1556.47-73,819.5,10.78c-202.6,23-469.36,211.89-632.14,512C66.12,746.3-178.26,1071.92,213,1620.44Z"/><path class="cls-3" d="M1793.42,999.41,1791.65,810a32.26,32.26,0,0,1,31.95-32.55l351.26-3.28a32.24,32.24,0,0,1,32.55,31.94l1.77,189.43a32.25,32.25,0,0,1-31.94,32.55L1826,1031.35A32.24,32.24,0,0,1,1793.42,999.41Z"/><g class="cls-4"><path class="cls-5" d="M2209.19,996.48l-.86-92-415.76,3.88.86,92c.16,17.28,14.72,31.16,32.51,31l351.33-3.28C2195.06,1027.9,2209.35,1013.76,2209.19,996.48Z"/></g><path class="cls-6" d="M2111.91,826.62a32.38,32.38,0,0,1,37.15-23.28c.88.16,1.75.36,2.63.6s1.73.51,2.57.82a32.38,32.38,0,0,1-17,62.24c-.88-.17-1.75-.36-2.63-.6s-1.73-.52-2.57-.83A32.38,32.38,0,0,1,2111.91,826.62Z"/><g class="cls-7"><path class="cls-6" d="M2134.59,866.4l17.1-62.46a32.38,32.38,0,1,0-17.1,62.46Z"/></g><path class="cls-8" d="M2132,865.57l17-62.23c.88.16,1.75.36,2.63.6s1.73.51,2.57.82l-17,62.24c-.88-.17-1.75-.36-2.63-.6S2132.86,865.88,2132,865.57Z"/><path d="M2134.5,866.72l.18-.65c.84.23,1.71.43,2.6.6a32,32,0,0,0,16.87-61.59c-.85-.31-1.71-.59-2.55-.82s-1.71-.43-2.6-.59l.12-.67c.91.17,1.81.38,2.66.61s1.73.52,2.6.83a32.72,32.72,0,0,1-17.22,62.89C2136.25,867.16,2135.35,867,2134.5,866.72Z"/><rect x="2122.48" y="837.18" width="34.45" height="0.68" transform="translate(766.82 2680.05) rotate(-74.69)"/><rect x="2119.27" y="836.61" width="52.36" height="0.68" transform="matrix(0.26, -0.96, 0.96, 0.26, 771.58, 2685.16)"/><path d="M2110.47,835.6a34.31,34.31,0,0,1,3.65-15.54l.61.29c-8.4,17.11.55,30.66.64,30.79l-.56.38A31.4,31.4,0,0,1,2110.47,835.6Z"/><path class="cls-6" d="M2114.14,955a32.37,32.37,0,0,1,39.33-19.37c.86.25,1.71.54,2.56.87s1.67.69,2.47,1.08a32.37,32.37,0,0,1-23.3,60.17c-.86-.25-1.71-.54-2.56-.87s-1.67-.69-2.47-1.08A32.37,32.37,0,0,1,2114.14,955Z"/><g class="cls-7"><path class="cls-6" d="M2132.64,996.89,2156,936.51a32.38,32.38,0,1,0-23.39,60.38Z"/></g><path class="cls-8" d="M2130.17,995.81l23.3-60.17c.86.25,1.71.54,2.56.87s1.67.69,2.47,1.08l-23.3,60.17c-.86-.25-1.71-.54-2.56-.87S2131,996.2,2130.17,995.81Z"/><path d="M2132.52,997.21l.24-.63c.82.32,1.65.6,2.54.86a32,32,0,0,0,23-59.55c-.81-.4-1.63-.76-2.44-1.07s-1.65-.6-2.54-.86l.19-.64c.89.26,1.76.55,2.59.87s1.67.69,2.5,1.09a32.72,32.72,0,0,1-23.55,60.81C2134.22,997.82,2133.35,997.53,2132.52,997.21Z"/><rect x="2123.45" y="968.35" width="34.45" height="0.67" transform="translate(464.33 2615.11) rotate(-68.83)"/><rect x="2120.27" y="968.37" width="52.36" height="0.67" transform="translate(468.02 2620.52) rotate(-68.83)"/><path d="M2111.65,967.14a33.77,33.77,0,0,1,5.36-18.43l.57.36c-10.09,16.15-2.58,30.55-2.5,30.69l-.6.32A30.84,30.84,0,0,1,2111.65,967.14Z"/><path class="cls-6" d="M2021.41,846.37a32.37,32.37,0,0,1,17.77-40.07c.82-.36,1.66-.68,2.52-1s1.73-.54,2.59-.75A32.38,32.38,0,0,1,2065,865.69c-.82.36-1.66.68-2.52,1s-1.73.55-2.6.76A32.37,32.37,0,0,1,2021.41,846.37Z"/><g class="cls-7"><path class="cls-6" d="M2062.46,866.66l-20.76-61.34a32.38,32.38,0,1,0,20.76,61.34Z"/></g><path class="cls-8" d="M2059.86,867.42l-20.68-61.12c.82-.36,1.66-.68,2.52-1s1.73-.54,2.59-.75L2065,865.69c-.82.36-1.66.68-2.52,1S2060.73,867.21,2059.86,867.42Z"/><path d="M2039.05,806c.85-.37,1.7-.7,2.54-1s1.73-.54,2.62-.76a32.71,32.71,0,0,1,20.9,61.76c-.85.37-1.7.7-2.55,1l-.21-.63c.82-.28,1.66-.61,2.49-1a32,32,0,0,0-20.46-60.49c-.88.22-1.75.47-2.57.75s-1.66.61-2.49,1Z"/><rect x="2050.2" y="822.64" width="0.67" height="34.45" transform="matrix(0.95, -0.32, 0.32, 0.95, -161.01, 701.5)"/><rect x="2054.65" y="810" width="0.67" height="52.36" transform="translate(-159.58 702.52) rotate(-18.69)"/><path d="M2019.57,839.7l.67-.09c2.61,18.87,17.6,25.1,17.75,25.16l-.25.63C2037.59,865.34,2022.24,859,2019.57,839.7Z"/><path class="cls-6" d="M2022.35,977.11a32.36,32.36,0,0,1,18.79-39.6c.83-.34,1.68-.64,2.55-.91s1.74-.5,2.61-.69a32.38,32.38,0,0,1,19.1,61.64c-.83.33-1.67.64-2.54.91s-1.74.49-2.61.68A32.36,32.36,0,0,1,2022.35,977.11Z"/><g class="cls-7"><path class="cls-6" d="M2062.86,998.46l-19.17-61.86a32.38,32.38,0,0,0,19.17,61.86Z"/></g><path class="cls-8" d="M2060.25,999.14l-19.11-61.63c.83-.34,1.68-.64,2.55-.91s1.74-.5,2.61-.69l19.1,61.64c-.83.33-1.67.64-2.54.91S2061.12,999,2060.25,999.14Z"/><path d="M2041,937.2c.85-.35,1.72-.66,2.57-.92s1.73-.5,2.64-.7a32.72,32.72,0,0,1,19.3,62.28c-.86.35-1.72.65-2.57.92l-.2-.65c.83-.25,1.68-.56,2.51-.9a32,32,0,0,0-18.9-61c-.88.2-1.75.42-2.58.68s-1.68.56-2.52.9Z"/><rect x="2051.3" y="954.13" width="0.67" height="34.45" transform="translate(-195.64 651.21) rotate(-17.23)"/><rect x="2055.84" y="941.61" width="0.67" height="52.36" transform="translate(-194.33 652.08) rotate(-17.22)"/><path d="M2020.68,970.39l.67-.07c2.13,18.94,17,25.55,17.1,25.61l-.27.62C2038,996.49,2022.85,989.72,2020.68,970.39Z"/><path class="cls-6" d="M1929.1,831.35a32.39,32.39,0,0,1,34.71-26.79c.89.08,1.78.19,2.68.35s1.78.34,2.64.57a32.38,32.38,0,0,1-10.91,63.6c-.89-.08-1.78-.19-2.68-.35s-1.77-.34-2.64-.57A32.36,32.36,0,0,1,1929.1,831.35Z"/><g class="cls-7"><path class="cls-6" d="M1955.54,868.73l11-63.82a32.38,32.38,0,1,0-11,63.82Z"/></g><path class="cls-8" d="M1952.9,868.16l10.91-63.6c.89.08,1.78.19,2.68.35s1.78.34,2.64.57l-10.91,63.6c-.89-.08-1.78-.19-2.68-.35S1953.77,868.39,1952.9,868.16Z"/><path d="M1955.49,869.07l.11-.67c.86.15,1.75.26,2.65.34a32,32,0,0,0,10.8-62.94c-.9-.23-1.75-.41-2.62-.56s-1.74-.26-2.65-.34l.06-.67c.92.08,1.83.2,2.71.35s1.75.34,2.67.57a32.71,32.71,0,0,1-11,64.26C1957.27,869.33,1956.36,869.22,1955.49,869.07Z"/><rect x="1940.6" y="839.15" width="34.45" height="0.67" transform="translate(799.45 2627.22) rotate(-80.27)"/><rect x="1937.31" y="838.03" width="52.36" height="0.67" transform="translate(805.28 2631.88) rotate(-80.27)"/><path d="M1928.36,837.25a34.58,34.58,0,0,1,2.31-12.64l.63.23c-6.69,17.83,3.53,30.46,3.63,30.58l-.52.43A31.84,31.84,0,0,1,1928.36,837.25Z"/><path class="cls-6" d="M1935.46,950.11a32.38,32.38,0,0,1,42.7-9.93c.78.44,1.54.91,2.29,1.42s1.47,1,2.17,1.62a32.38,32.38,0,0,1-36.36,53.31c-.77-.44-1.54-.91-2.29-1.42s-1.47-1.06-2.16-1.62A32.37,32.37,0,0,1,1935.46,950.11Z"/><g class="cls-7"><path class="cls-6" d="M1944,995.11l36.48-53.51A32.38,32.38,0,0,0,1944,995.11Z"/></g><path class="cls-8" d="M1941.81,993.49l36.35-53.31c.78.44,1.54.91,2.29,1.42s1.47,1,2.17,1.62l-36.36,53.31c-.77-.44-1.54-.91-2.29-1.42S1942.5,994.05,1941.81,993.49Z"/><path d="M1943.78,995.38l.38-.55c.72.49,1.48,1,2.27,1.41a32,32,0,0,0,36-52.76c-.71-.58-1.41-1.1-2.14-1.6s-1.48-1-2.27-1.41l.33-.59c.81.46,1.59.94,2.32,1.44s1.47,1,2.19,1.64a32.71,32.71,0,0,1-36.73,53.86C1945.29,996.37,1944.51,995.88,1943.78,995.38Z"/><rect x="1940.97" y="969.12" width="34.45" height="0.67" transform="translate(54.04 2041.17) rotate(-55.71)"/><rect x="1937.64" y="970.45" width="52.36" height="0.67" transform="translate(55.39 2046.39) rotate(-55.71)"/><path d="M1929.48,968.88a33.35,33.35,0,0,1,10.2-24.25l.48.48c-13.49,13.43-9.45,29.17-9.41,29.32l-.65.18A25.19,25.19,0,0,1,1929.48,968.88Z"/><path class="cls-6" d="M1844.9,858.16a32.39,32.39,0,0,1,2.53-43.77q1-.93,2-1.8c.71-.57,1.43-1.11,2.17-1.62a32.37,32.37,0,0,1,40.87,49.93c-.64.63-1.31,1.22-2,1.8s-1.43,1.12-2.16,1.62A32.39,32.39,0,0,1,1844.9,858.16Z"/><g class="cls-7"><path class="cls-6" d="M1890.47,862.7l-41-50.11a32.38,32.38,0,1,0,41,50.11Z"/></g><path class="cls-8" d="M1888.31,864.32l-40.88-49.93q1-.93,2-1.8c.71-.57,1.43-1.11,2.17-1.62l40.87,49.93c-.64.63-1.31,1.22-2,1.8S1889,863.82,1888.31,864.32Z"/><path d="M1847.19,814.15c.67-.65,1.36-1.26,2-1.82s1.41-1.1,2.18-1.63a32.72,32.72,0,0,1,41.31,50.45c-.67.64-1.36,1.25-2,1.81l-.43-.52c.67-.55,1.34-1.15,2-1.78a32,32,0,0,0-40.45-49.41c-.77.53-1.46,1-2.14,1.6s-1.34,1.15-2,1.78Z"/><rect x="1869.54" y="824.59" width="0.67" height="34.45" transform="translate(-110.29 1374.75) rotate(-39.3)"/><rect x="1872.41" y="810.62" width="0.67" height="52.36" transform="translate(-106.52 1375.21) rotate(-39.29)"/><path d="M1840.83,852.56l.6-.32c9.08,16.74,25.31,17.3,25.47,17.3v.68C1866.72,870.21,1850.11,869.65,1840.83,852.56Z"/><path class="cls-6" d="M1840.34,979.14a32.38,32.38,0,0,1,18.32-39.83c.83-.34,1.67-.66,2.53-.94s1.74-.52,2.61-.72a32.38,32.38,0,0,1,19.84,61.4c-.83.35-1.67.66-2.53.94s-1.74.52-2.61.72A32.37,32.37,0,0,1,1840.34,979.14Z"/><g class="cls-7"><path class="cls-6" d="M1881.11,1000l-19.92-61.62a32.38,32.38,0,1,0,19.92,61.62Z"/></g><path class="cls-8" d="M1878.5,1000.71l-19.84-61.4c.83-.34,1.67-.66,2.53-.94s1.74-.52,2.61-.72l19.84,61.4c-.83.35-1.67.66-2.53.94S1879.37,1000.51,1878.5,1000.71Z"/><path d="M1858.53,939c.86-.36,1.72-.68,2.56-1s1.71-.51,2.63-.73a32.71,32.71,0,0,1,20,62c-.86.36-1.72.68-2.56.95l-.21-.64c.83-.27,1.67-.58,2.51-.93A32,32,0,0,0,1863.87,938c-.89.21-1.74.44-2.57.71s-1.67.58-2.51.93Z"/><rect x="1869.22" y="955.81" width="0.68" height="34.45" transform="translate(-208.59 621.85) rotate(-17.9)"/><rect x="1873.72" y="943.22" width="0.68" height="52.36" transform="translate(-207.24 622.96) rotate(-17.9)"/><path d="M1838.59,972.44l.67-.08c2.36,18.91,17.26,25.34,17.41,25.4l-.26.63C1856.25,998.32,1841,991.73,1838.59,972.44Z"/><path d="M1791.4,864.62c-.18-20.47-.33-39.58-.37-51.5,0-12.23,3.32-21.64,10-28,9.46-9,22-8.48,22.58-8.46L2175,773.49v1.35L1823.54,778c-.16,0-12.6-.52-21.63,8.1-6.36,6.07-9.56,15.15-9.53,27,.11,37,1.31,143.09,1.32,144.16l-1.34,0C1792.35,956.57,1791.79,907.61,1791.4,864.62Z"/><rect x="1973.84" y="1028.71" width="203.44" height="1.35" transform="translate(-9.22 18.81) rotate(-0.52)"/><rect x="2186.59" y="903.95" width="6.75" height="1.35" transform="translate(-8.09 19.84) rotate(-0.52)"/><path d="M1835.89,908.52v-1.35l13.49-.13v1.35Zm27-.25v-1.35l13.48-.12,0,1.35Zm27-.24v-1.35l13.49-.13v1.35Zm27-.25v-1.35l13.49-.12v1.35Zm27-.24v-1.35l13.49-.13v1.35Zm27-.25,0-1.35,13.49-.12v1.35Zm27-.24V905.7l13.49-.13v1.35Zm27-.25v-1.35l13.49-.12v1.35Zm27-.24,0-1.35,13.49-.13,0,1.35Zm27-.25V905l13.49-.12v1.35Zm27-.24v-1.35l13.49-.13v1.35Zm27-.25v-1.35l13.48-.12,0,1.35Zm27-.24v-1.35l13.49-.12v1.34Z"/><rect x="1815.65" y="907.32" width="6.75" height="1.35" transform="translate(-8.2 16.62) rotate(-0.52)"/><path class="cls-9" d="M801.51,346.05c19.33-1.1,64.64-3,104,.29a27.64,27.64,0,0,0,30-28c-.15-6.69-2.55-14.48-8.76-23.3-23.92-34-65.5-1.53-65.1,15.71,0,0-8.4-26-33.93-21.41s-16.5,42.3-16.5,42.3-8.24-1.74-14,2.16A6.72,6.72,0,0,0,801.51,346.05Z"/><path class="cls-9" d="M1947.78,613.88c19.33-1.11,64.65-3,104,.28a27.65,27.65,0,0,0,30-28c-.15-6.69-2.56-14.48-8.77-23.3-23.92-34-65.49-1.53-65.09,15.72,0,0-8.41-26-33.94-21.42s-16.5,42.3-16.5,42.3-8.24-1.74-14,2.16A6.73,6.73,0,0,0,1947.78,613.88Z"/><path class="cls-9" d="M2252.33,708a12.83,12.83,0,0,1,1.85-11.34c4.62-6.31,13-11.67,28.06-12.6,0,0-16.27-72.26,46.77-79.85,64.78-7.79,68.13,68.38,68.13,68.38s36.71-40.41,56.73,8.82c0,0,39.52-19.94,58.5,4a18.05,18.05,0,0,1-.16,22.59Z"/><path class="cls-9" d="M1048.16,161a12.77,12.77,0,0,1,1.85-11.34c4.61-6.32,13-11.68,28-12.6,0,0-16.27-72.27,46.77-79.85,64.78-7.79,68.13,68.38,68.13,68.38s36.72-40.41,56.73,8.82c0,0,39.52-19.94,58.5,4A18.06,18.06,0,0,1,1308,161Z"/><g class="cls-7"><path class="cls-2" d="M196.77,942.42h-54V898.6H99v-54h43.82V800.8h54v43.82h43.82v54H196.77ZM150,935.18h39.49V891.36h43.82v-39.5H189.53V808H150v43.82H106.21v39.5H150Z"/></g><path class="cls-10" d="M1757.75,475.64l-131.88-.09A20.81,20.81,0,0,0,1605,496.34l0,82.91a20.8,20.8,0,0,0,20.79,20.82l131.88.1a20.81,20.81,0,0,0,20.82-20.8l.06-82.9A20.81,20.81,0,0,0,1757.75,475.64Z"/><path class="cls-11" d="M1822.35,624h-15.57V607.1a6.31,6.31,0,0,1,6.31-6.3h0a6.3,6.3,0,0,0,6.3-6.29v-26.3a6.3,6.3,0,0,0-6.29-6.31l-242.75-.17a6.3,6.3,0,0,0-6.3,6.3l0,26.3a6.29,6.29,0,0,0,6.29,6.3,6.3,6.3,0,0,1,6.29,6.3v16.9l-15.56,0a46.35,46.35,0,0,0-46.38,46.32l-.22,311.66a46.34,46.34,0,0,0,46.31,46.38l261.29.19A46.35,46.35,0,0,0,1868.44,982l.22-311.66A46.34,46.34,0,0,0,1822.35,624Z"/><path class="cls-12" d="M1809.85,880l-236.66-.17a24.37,24.37,0,0,1-24.36-24.4l.08-126.13a24.39,24.39,0,0,1,24.4-24.37l236.67.17a24.39,24.39,0,0,1,24.36,24.4l-.09,126.13A24.38,24.38,0,0,1,1809.85,880Z"/><rect class="cls-13" x="1705.64" y="789.89" width="107.16" height="7.33" transform="translate(3516.45 1591.51) rotate(-179.86)"/><rect class="cls-13" x="1567.83" y="826.13" width="244.95" height="7.33" transform="translate(3378.52 1663.82) rotate(-179.86)"/><rect class="cls-13" x="1557.55" y="561.73" width="268.42" height="42.9"/><g class="cls-14"><rect class="cls-10" x="1605.04" y="498.93" width="173.49" height="6.38"/></g><g class="cls-14"><rect class="cls-10" x="1605.04" y="520.38" width="173.49" height="6.38"/></g><g class="cls-14"><rect class="cls-10" x="1605.04" y="541.82" width="173.49" height="6.38"/></g><path class="cls-13" d="M1586.08,735.89c24.08-16.76,35.43,17.15,35.43,17.15s11.35-33.91,35.43-17.15c22.84,15.9-2.5,61.87-35.43,77.84C1588.58,797.76,1563.24,751.79,1586.08,735.89Z"/><polygon class="cls-9" points="1650.69 803.22 1655.9 771.28 1670.32 771.28 1672.8 788.96 1682.92 752.14 1692.37 775.52 1706.59 775.52 1706.59 773.28 1693.88 773.28 1682.51 745.16 1673.51 777.9 1672.27 769.04 1653.99 769.04 1650.61 789.82 1642.59 744.29 1635.9 771.46 1599.68 771.46 1599.68 773.7 1637.66 773.7 1642.23 755.14 1650.69 803.22"/><rect x="1557.55" y="622.97" width="257.7" height="2"/><rect x="1542.36" y="911.8" width="53.1" height="2" transform="translate(-222.15 618.18) rotate(-20.85)"/><rect x="1553.63" y="924.99" width="53.1" height="2" transform="translate(-226.11 623.08) rotate(-20.85)"/><path d="M1549.82,858.08h-2V725l0-.11c0-.18,4.21-18.28,22.61-20.79,17.8-2.44,181.81-.11,188.78,0l0,2c-1.71,0-170.83-2.43-188.48,0-16.36,2.23-20.56,17.76-20.91,19.14Z"/><polygon points="1558.55 604.63 1556.55 604.63 1556.55 560.73 1825.97 560.73 1825.97 562.73 1558.55 562.73 1558.55 604.63"/><rect x="1682.74" y="603.63" width="143.23" height="2"/><path d="M1779.49,561.74h-2l0-62.8c0-.84.79-19.34-16.44-22l-132-.38v-2l132.12.38h.07c19.11,2.89,18.22,23.83,18.21,24Z"/><path class="cls-9" d="M1310.28,834.67l-13.36-17.9c56.28-52.45,86-134.92,79.46-220.63l-11.51-151.46c-1.46-19.2-10.39-37-24.48-48.8s-31.46-16.06-47.62-11.63l-85.88,23.52-6-22,85.88-23.52c22-6,45.58-.26,64.75,15.81s31.31,40.27,33.29,66.38l11.52,151.45c3.48,45.78-2.53,91.77-17.37,133S1340.34,806.66,1310.28,834.67Z"/><path class="cls-11" d="M1206.68,379.88l7.88,28.79a4.86,4.86,0,0,1-2.08,5.65h0l-.66.27h0l-37.88,15.23-.1,0-.6.2c-3.57,1-7.39-1.58-8.53-5.72l-8.93-32.61c-1.11-4.07.79-8.14,4.26-9.21l1.68-.26,39.51-6.06h0l.81-.13h.13A4.9,4.9,0,0,1,1206.68,379.88Z"/><path class="cls-9" d="M1213.72,861.12l2.38-22.22c-75.15-16.45-142.73-72.28-180.79-149.35L968.05,553.36c-8.53-17.26-9.92-37.12-3.81-54.47s18.89-29.84,35-34.26l85.88-23.52-6-22L993.26,442.6c-22,6-39.36,23-47.67,46.6s-6.42,50.59,5.18,74.07L1018,699.46c20.33,41.17,48.93,77.67,82.71,105.58S1173.59,852.33,1213.72,861.12Z"/><path class="cls-11" d="M1071.14,417l7.89,28.79a4.84,4.84,0,0,0,4.66,3.8h0l.71-.1h0l40.36-6.19.1,0a4.13,4.13,0,0,0,.61-.13c3.58-1,5.57-5.13,4.43-9.26L1121,401.26c-1.11-4.07-4.83-6.61-8.35-5.76l-1.58.64L1074,411.06h0l-.75.3-.12.06A4.9,4.9,0,0,0,1071.14,417Z"/><path class="cls-15" d="M1364.52,671.73s-.38,3.8-1.51,10.14c-10.88,61.26-46.64,116.16-100.69,154.59h0a9.78,9.78,0,0,1-6.42,1.75h0c-66.09-5.52-124.83-34.53-165.4-81.7-4.2-4.89-6.45-7.93-6.47-8l-26.76,17.55c.11.15,2.83,3.86,7.84,9.68a259.94,259.94,0,0,0,82.71,63.66,287.41,287.41,0,0,0,102.78,28.44l88.74,324,.27-.07,30.86-8.45.27-.08-88.74-324a287.62,287.62,0,0,0,74-76.84,260,260,0,0,0,38.73-96.92c1.34-7.56,1.79-12.14,1.81-12.33Z"/><path d="M1354.61,717.76l-1.81-.85a142.38,142.38,0,0,0,10.72-45.25l.08-1,32.94,1.5-.1,2-31-1.42A144.38,144.38,0,0,1,1354.61,717.76Z"/><path d="M1373.69,672l-1.94-.48c.07-.29,7-29.49,4-69.83-3-40.53-11.42-150.88-11.51-152l2-.15c.08,1.11,8.47,111.46,11.5,152C1380.78,642.19,1373.76,671.67,1373.69,672Z"/><path d="M1364.44,393.08c-33.9-45.06-81.16-28.92-81.63-28.75l-.67-1.89a73.37,73.37,0,0,1,28.78-2.82c15.12,1.39,36.95,8.12,55.12,32.26Z"/><path d="M1037.86,696.76,970.75,561.1c-11.71-23.72-14.3-44.83-7.67-62.72,8.65-23.34,30.35-32.81,30.57-32.9l.78,1.84c-.21.09-21.15,9.25-29.48,31.78-6.42,17.35-3.86,37.92,7.6,61.12l67.1,135.65Z"/><path d="M1036,733.23c-.31-.53-31.31-54.06-49.79-95.86l1.83-.81c18.44,41.71,49.38,95.13,49.69,95.67Z"/><path d="M1172.68,817c-39.22-9.57-83.31-60.55-88.85-67.11l-26,17.06-1.09-1.67,27.51-18,.57.69c.47.57,47.29,57.11,88.35,67.13Z"/><rect x="1159.77" y="378.46" width="40.52" height="2" transform="matrix(0.99, -0.15, 0.15, 0.99, -43.84, 183)"/><rect x="1072.45" y="402.28" width="41.71" height="2" transform="translate(-71.52 437) rotate(-21.91)"/><rect x="1075.52" y="417.99" width="10.39" height="2" transform="translate(207.02 1180.66) rotate(-62.27)"/><rect x="1077.93" y="424.15" width="10.39" height="2" transform="translate(202.74 1185.96) rotate(-62.26)"/><rect x="1196.55" y="401.65" width="10.39" height="2" transform="translate(286.16 1279.02) rotate(-62.27)"/><rect x="1198.96" y="407.81" width="10.39" height="2" transform="translate(281.45 1283.87) rotate(-62.23)"/><g class="cls-7"><path class="cls-2" d="M600.43,392.2H540.28V343.37H491.45V283.22h48.83V234.39h60.15v48.83h48.84v60.15H600.43Zm-52.08-8.07h44V335.3h48.83v-44H592.36V242.46h-44v48.83H499.52v44h48.83Z"/></g><g class="cls-7"><path class="cls-2" d="M756,523.06H719.77v-29.4h-29.4V457.44h29.4V428H756v29.4h29.4v36.22H756Zm-31.36-4.86h26.49V488.8h29.4V462.3h-29.4V432.9H724.63v29.4h-29.4v26.5h29.4Z"/></g><path class="cls-16" d="M2458.71,842.3l-40.06,14.29a23.29,23.29,0,0,0-14.1,29.75h0a23.28,23.28,0,0,0,29.74,14.1l40.06-14.29Z"/><path class="cls-17" d="M2458.71,842.3l15.64,43.85,40.06-14.29a23.28,23.28,0,0,0,14.1-29.75h0a23.28,23.28,0,0,0-29.74-14.1Z"/><g class="cls-14"><path class="cls-10" d="M2466.53,864.22l-62,22.12a23.28,23.28,0,0,0,29.74,14.1l40.06-14.29Z"/></g><g class="cls-14"><path class="cls-10" d="M2528.51,842.11l-62,22.11,7.82,21.93,40.06-14.29A23.28,23.28,0,0,0,2528.51,842.11Z"/></g><rect x="2416.18" y="841.3" width="85.06" height="2" transform="translate(-140.07 875.38) rotate(-19.64)"/><path class="cls-3" d="M2722.45,1020.29l-31-29.16a23.27,23.27,0,0,0-32.9,1h0a23.27,23.27,0,0,0,1,32.9l31,29.15Z"/><path class="cls-13" d="M2722.45,1020.29l-31.91,33.89,31,29.15a23.28,23.28,0,0,0,32.91-1h0a23.27,23.27,0,0,0-1-32.9Z"/><g class="cls-14"><path class="cls-10" d="M2706.49,1037.23l-47.91-45.1a23.27,23.27,0,0,0,1,32.9l31,29.15Z"/></g><g class="cls-14"><path class="cls-10" d="M2754.41,1082.34l-47.92-45.11-15.95,17,31,29.15A23.28,23.28,0,0,0,2754.41,1082.34Z"/></g><rect x="2721.45" y="977.76" width="2" height="85.06" transform="translate(113.45 2303.19) rotate(-46.73)"/><rect x="2696.02" y="1026.66" width="2" height="67.26" transform="translate(76.33 2297.26) rotate(-46.73)"/><path class="cls-10" d="M801.94,759.34l-16.91-39a23.26,23.26,0,0,0-30.61-12.1h0a23.27,23.27,0,0,0-12.1,30.61l16.91,39Z"/><path class="cls-13" d="M801.94,759.34l-42.71,18.51,16.92,39A23.28,23.28,0,0,0,806.76,829h0a23.29,23.29,0,0,0,12.1-30.62Z"/><g class="cls-14"><path class="cls-10" d="M780.59,768.6l-26.17-60.38a23.27,23.27,0,0,0-12.1,30.61l16.91,39Z"/></g><g class="cls-14"><path class="cls-10" d="M806.76,829,780.59,768.6l-21.36,9.25,16.92,39A23.28,23.28,0,0,0,806.76,829Z"/></g><rect x="800.95" y="716.81" width="2" height="85.06" transform="translate(-235.83 381.54) rotate(-23.43)"/><rect x="754.22" y="739.69" width="2" height="57.82" transform="translate(-243.36 363.72) rotate(-23.43)"/><path class="cls-18" d="M284.89,518.94l-34.57,24.77A23.28,23.28,0,0,0,245,576.19h0a23.28,23.28,0,0,0,32.48,5.36L312,556.78Z"/><path class="cls-15" d="M284.89,518.94,312,556.78,346.57,532a23.28,23.28,0,0,0,5.37-32.48h0a23.28,23.28,0,0,0-32.48-5.36Z"/><g class="cls-14"><path class="cls-10" d="M298.44,537.86,245,576.19a23.28,23.28,0,0,0,32.48,5.36L312,556.78Z"/></g><g class="cls-14"><path class="cls-10" d="M351.94,499.53l-53.5,38.33L312,556.78,346.57,532A23.28,23.28,0,0,0,351.94,499.53Z"/></g><rect x="246.64" y="519.52" width="72.07" height="2" transform="translate(-250.34 262.19) rotate(-35.64)"/><rect x="285.99" y="549.33" width="69.63" height="2" transform="translate(-261.39 291.81) rotate(-35.82)"/><path d="M1629.91,1031.47v-2h191.15c18.67-1.07,32-9,39.68-23.55a53.75,53.75,0,0,0,5.92-21.77v-22.5l-.05-290.08h2l.05,290.08v22.51c0,.46-1,44.63-47.54,47.31Z"/><path class="cls-17" d="M1300.29,1225.7v297.78a39.34,39.34,0,0,0,39.35,39.34h94.6V1186.35h-94.6A39.35,39.35,0,0,0,1300.29,1225.7Z"/><rect class="cls-19" x="1396.86" y="1168.35" width="76.93" height="412.48" rx="17.69"/><rect x="1395.86" y="1186.04" width="1.99" height="377.11"/><rect x="1299.46" y="1222.96" width="2" height="304.82"/><rect x="1369.29" y="1206.02" width="1.99" height="32.29" transform="translate(-351.61 584.64) rotate(-21.41)"/><rect x="1361.44" y="1224.59" width="1.99" height="32.29" transform="translate(-358.92 583.02) rotate(-21.41)"/><path class="cls-17" d="M2682.42,1225.7v297.78a39.34,39.34,0,0,1-39.35,39.34h-94.6V1186.35h94.6A39.35,39.35,0,0,1,2682.42,1225.7Z"/><rect class="cls-19" x="2508.92" y="1168.35" width="76.93" height="412.48" rx="17.69"/><path class="cls-19" d="M2301.11,1123.63c-.28-4.32-.93-27.7-.19-152.82a90.51,90.51,0,0,0-90.52-91h-379a90.51,90.51,0,0,0-90.52,91c.73,125.12.09,148.5-.19,152.82a22.38,22.38,0,0,0,43.23,10.95c1.55-4.46,2-5.8,2.06-62.49,0-25.83-.1-60-.34-101.54a45.73,45.73,0,0,1,45.76-46h379a45.75,45.75,0,0,1,45.76,46c-.25,41.54-.36,75.71-.34,101.54,0,56.69.51,58,2,62.49a22.39,22.39,0,0,0,43.24-10.95Z"/><rect class="cls-17" x="1458.31" y="1028.44" width="1063.62" height="590.98" rx="42"/><g class="cls-14"><rect class="cls-17" x="1498.98" y="1362.76" width="982.29" height="201.22"/></g><g class="cls-14"><rect class="cls-17" x="1762.46" y="1086.9" width="578.23" height="237.03"/></g><rect class="cls-17" x="1542.98" y="1396.09" width="60.26" height="133.95"/><rect class="cls-17" x="1673.54" y="1396.09" width="60.26" height="133.95"/><rect class="cls-17" x="1804.09" y="1396.09" width="60.26" height="133.95"/><rect class="cls-17" x="1937.52" y="1396.09" width="501.66" height="27.85"/><rect class="cls-17" x="1937.52" y="1449.14" width="501.66" height="27.85"/><rect class="cls-17" x="1937.52" y="1502.19" width="501.66" height="27.85"/><circle class="cls-20" cx="1624.46" cy="1152.38" r="93.72"/><g class="cls-21"><circle class="cls-17" cx="1624.46" cy="1152.38" r="85.84" transform="translate(-339.07 1486.19) rotate(-45)"/></g><circle class="cls-20" cx="1530.74" cy="1291.64" r="49.72" transform="translate(-464.98 1460.71) rotate(-45)"/><g class="cls-21"><circle class="cls-17" cx="1530.74" cy="1291.64" r="45.54" transform="translate(-62.4 77.8) rotate(-2.85)"/></g><rect class="cls-19" x="1520.41" y="1235.26" width="20.67" height="112.76" rx="2.75" transform="translate(-462.26 1093.03) rotate(-34.47)"/><g class="cls-14"><rect class="cls-17" x="1770.76" y="1094.82" width="561.64" height="221.18"/></g><g class="cls-14"><rect class="cls-17" x="2384.01" y="1086.9" width="96.37" height="237.03"/></g><g class="cls-14"><rect class="cls-17" x="2390.5" y="1094.82" width="83.4" height="221.18"/></g><rect class="cls-15" x="1762.46" y="1333.84" width="65.72" height="15.03"/><rect class="cls-19" x="1858.83" y="1333.84" width="65.72" height="15.03"/><g class="cls-14"><rect class="cls-17" x="1955.2" y="1333.84" width="65.72" height="15.03"/></g><rect class="cls-17" x="2396.98" y="1103.08" width="69.55" height="18.57"/><rect class="cls-17" x="2396.98" y="1133.14" width="69.55" height="18.57"/><rect class="cls-17" x="2396.98" y="1163.2" width="69.55" height="18.57"/><rect class="cls-17" x="2396.98" y="1193.26" width="69.55" height="18.57"/><rect class="cls-15" x="2396.98" y="1223.32" width="69.55" height="18.57"/><rect class="cls-17" x="2396.98" y="1253.38" width="69.55" height="18.57"/><rect class="cls-22" x="2396.98" y="1283.44" width="69.55" height="18.57"/><polygon class="cls-23" points="2332.39 1128.94 2332.39 1132.92 2288.01 1132.92 2231.41 1164.47 2194.96 1144.03 2175.43 1216.55 2142.57 1184.6 2131.07 1246.87 2101.73 1183.3 2062.53 1203.35 2028.44 1157 1998.11 1188.7 1919.15 1133.62 1886.36 1173.9 1868.87 1145.36 1845.57 1173.14 1810.56 1148.55 1770.76 1148.55 1770.76 1144.57 1811.82 1144.57 1844.86 1167.79 1869.37 1138.57 1886.82 1167.04 1918.39 1128.23 1997.59 1183.49 2028.84 1150.83 2063.74 1198.27 2103.61 1177.87 2129.44 1233.83 2140.02 1176.57 2173.36 1208.98 2192.44 1138.05 2231.41 1159.91 2286.98 1128.94 2332.39 1128.94"/><polygon class="cls-23" points="2332.39 1221.34 2332.39 1225.31 2283.22 1225.31 2242.03 1270.45 2197.31 1243.16 2176.38 1280.76 2099.51 1264.92 2087.22 1289 2078.02 1253.67 2065.88 1296.31 2005.79 1243.18 1961.55 1294.5 1897.15 1234.78 1863.09 1242.68 1854.27 1218.72 1828.75 1234.59 1770.76 1234.59 1770.76 1230.62 1827.61 1230.62 1856.32 1212.76 1865.61 1238.02 1898.31 1230.43 1961.23 1288.77 2005.41 1237.53 2063.78 1289.14 2078.18 1238.53 2088.43 1277.88 2097.36 1260.41 2174.32 1276.27 2195.85 1237.61 2241.3 1265.35 2281.46 1221.34 2332.39 1221.34"/><rect x="1507.83" y="1027.45" width="931.36" height="1.99"/><path d="M1787,1028.44h-2V961.82c.07-.39,7.21-38.29,46.47-38.29H2044.8v2H1831.45c-37,0-44,34.16-44.49,36.56Z"/><path d="M2297.82,950.85c-6.63-34.34-28.57-51.67-45.81-60.17a106,106,0,0,0-36.34-10.34l-340.63.42v-2l340.69-.41a108,108,0,0,1,37.1,10.51c17.66,8.68,40.15,26.43,47,61.6Z"/><rect x="2265.05" y="974.26" width="27.31" height="1.99" transform="translate(227.43 2366.61) rotate(-57.32)"/><rect x="2269.37" y="995.3" width="27.31" height="1.99" transform="translate(211.7 2379.92) rotate(-57.32)"/><path d="M2479.93,1620.42H1514.46v-2h965.47c37.63,0,40.69-35.34,40.8-36.84l.21-478.51h2l-.22,478.58C2522.68,1582.12,2519.43,1620.42,2479.93,1620.42Z"/><polygon points="2482.26 1564.97 2481.27 1564.97 1907.02 1564.35 1907.02 1562.36 2480.27 1562.98 2480.27 1363.75 1498.98 1363.75 1498.98 1361.76 2482.26 1361.76 2482.26 1564.97"/><rect x="1937.52" y="1422.95" width="501.66" height="1.99"/><rect x="1937.52" y="1476" width="501.66" height="1.99"/><rect x="1937.52" y="1529.05" width="501.66" height="1.99"/><polygon points="1763.45 1323.93 1761.46 1323.93 1761.46 1085.91 2341.68 1085.91 2341.61 1181.77 2339.62 1181.77 2339.69 1087.9 1763.45 1087.9 1763.45 1323.93"/><polygon points="2481.38 1323.93 2479.39 1323.93 2479.39 1087.9 2384.01 1087.9 2384.01 1085.91 2481.38 1085.91 2481.38 1323.93"/><path d="M1624.46,1247.1v-2a92.73,92.73,0,0,0,0-185.45v-2a94.72,94.72,0,0,1,0,189.43Z"/><path class="cls-19" d="M1645.75,1056.22l-2.8,192.9a5.15,5.15,0,0,1-5.37,4.88l-29.18-.42a5.14,5.14,0,0,1-5.23-5l2.8-192.91a5.14,5.14,0,0,1,5.38-4.87l29.17.42A5.14,5.14,0,0,1,1645.75,1056.22Z"/><path d="M1637.66,1255h-.1l-29.17-.42a6.14,6.14,0,0,1-6.22-6l2.8-192.9a6.17,6.17,0,0,1,6.39-5.86l29.18.43a6.13,6.13,0,0,1,6.2,6l-2,0a4.14,4.14,0,0,0-4.24-4l-29.17-.42h-.07a4.15,4.15,0,0,0-4.31,3.9l-2.8,192.9a4.15,4.15,0,0,0,4.26,4l29.17.42a4.57,4.57,0,0,0,3.09-1.13,3.81,3.81,0,0,0,1.27-2.76l2,0a5.74,5.74,0,0,1-1.93,4.2A6.44,6.44,0,0,1,1637.66,1255Z"/><rect x="1613" y="1089.45" width="30.59" height="1.99" transform="translate(-190.04 1821.24) rotate(-55.71)"/><rect x="1613" y="1109.75" width="30.59" height="1.99" transform="translate(-206.84 1830.03) rotate(-55.7)"/><rect x="1537.65" y="1232.35" width="1.99" height="105.09" transform="translate(-457.06 1096.33) rotate(-34.47)"/><rect x="1532.63" y="1285.62" width="1.99" height="56.96" transform="translate(-474.47 1098.59) rotate(-34.47)"/><rect x="1680.57" y="1285.07" width="44.41" height="1.99" transform="translate(-408.68 1594.55) rotate(-45.37)"/><rect x="1673.43" y="1307.92" width="44.41" height="1.99" transform="translate(-427.07 1596.26) rotate(-45.37)"/><rect x="2584.85" y="1186.04" width="1.99" height="377.11"/><rect x="2681.25" y="1222.96" width="1.99" height="304.82"/><rect x="2596.27" y="1221.17" width="32.29" height="1.99" transform="translate(520.79 3207.99) rotate(-68.59)"/><rect x="2604.13" y="1239.74" width="32.29" height="1.99" transform="translate(508.49 3227.09) rotate(-68.59)"/><path class="cls-24" d="M727.48,1549.29l45.3-4.38s15.25-2.12,18.46,11.09l20.19-4.47a16,16,0,0,1,18.23,9.24,42.23,42.23,0,0,1,3.18,12.46c1.48,15.31-9.2,24.72-14.82,26.55s-33.43.66-33.43.66l-13.43,1.77-52.4,3.31Z"/><path class="cls-25" d="M753.71,1584.07a.62.62,0,0,1-.14.46.65.65,0,0,1-.9.11c-.1-.08-9.92-8-4.24-16.63a.64.64,0,1,1,1.08.7c-5,7.66,3.59,14.63,4,14.92A.65.65,0,0,1,753.71,1584.07Z"/><path class="cls-25" d="M747.34,1558.14a.65.65,0,0,1-1.08.53c-.25-.24-6-5.82-3.12-10a.64.64,0,0,1,.9-.15.63.63,0,0,1,.15.89c-2.29,3.26,2.9,8.27,2.95,8.32A.64.64,0,0,1,747.34,1558.14Z"/><path class="cls-25" d="M721.1,1603.49l14.09-12.14s9.44-33.58-7.05-48.73-23.15-9.35-30.14-3.76c-3.44,2.75-9.81,14.91-2.22,28.35,4.14,7.33-5.46,14,.51,22.42s15.83,18.12,19.21,16.6S721.1,1603.49,721.1,1603.49Z"/><path class="cls-25" d="M714.66,1603.46s.71,14.8,15.29,17.54,21.47-3.51,25.68-4.06,33-.44,28.92-20.24l-47.59-.85-18.07,8.78Z"/><circle class="cls-24" cx="757.02" cy="1598.28" r="11.54" transform="translate(-994.96 1839.4) rotate(-72.49)"/><path class="cls-26" d="M764.14,1598.44a4.82,4.82,0,0,1-3.15,4.86,4.53,4.53,0,0,1-5.43-1.31,5.43,5.43,0,0,1-.37-6,5.2,5.2,0,0,0-2.6,2.59,7.24,7.24,0,0,0,.16,5.13.32.32,0,1,1-.58.26,7.7,7.7,0,0,1-.17-5.64,6.25,6.25,0,0,1,3.9-3.33l1.08-.39-.73.89c-.1.13-2.49,3.12-.18,6.15a3.93,3.93,0,0,0,4.68,1.1,4.14,4.14,0,0,0,2.75-4.19s0,0,0-.07a.32.32,0,0,1,.28-.35.33.33,0,0,1,.36.29Z"/><path class="cls-26" d="M781.24,1588.32s25.54-3.37,24.89-35.62l-14.89,3.3S797.42,1576.36,781.24,1588.32Z"/><path class="cls-26" d="M767.3,1562.92a.32.32,0,0,1-.61.16l-2.74-6.19-14.85,3.48a.33.33,0,0,1-.39-.24.32.32,0,0,1,.24-.39l15.37-3.6,2.95,6.68A.38.38,0,0,1,767.3,1562.92Z"/><path class="cls-27" d="M775.66,1553.44c0,.2-.09,12.69-.09,12.69s-5.11-1.73-5.08-6.38S775.66,1553.44,775.66,1553.44Z"/><path class="cls-28" d="M1148.23,1423.18c-6.48,26-21.92,87.21-41.3,159.62h-87.87l37.69-184.62a19.35,19.35,0,0,1,.88-3.12l.75-2.15c4.23-11.79,16.83-18.91,25.94-14.63l26,12.2,31.09,14.6C1147.45,1408,1150.23,1415.2,1148.23,1423.18Z"/><path class="cls-29" d="M1183.18,1582.8h-93.69l17.71-125.59,3.09-66.73,1.85-39.85,110.12,63.46S1213.72,1521.88,1183.18,1582.8Z"/><polygon class="cls-24" points="1674.69 1560.18 1675.55 1623.01 1615.97 1621.26 1608.48 1561.33 1674.69 1560.18"/><path class="cls-30" d="M1694.37,1496.45v126.92h-12.66v-54l-.43-.39-5.46-5-1.09-1-3-2.74-14.61-13.41,16.4-27.54,7.74-13,.43-.72v-8.93a2.09,2.09,0,0,1,0-.25,6.46,6.46,0,0,1,5.07-6.15,6.36,6.36,0,0,1,7.58,6.21Z"/><path class="cls-10" d="M1681.78,1496.6v126.77h-24.15c-.27-.26-.58-.56-.91-.91a24.71,24.71,0,0,1-1.71-2l0,0c-.23-.31-.46-.63-.69-1s-.42-.65-.63-1-.37-.63-.54-1a18.14,18.14,0,0,1-.36-16.59s7-9.9,5.79-22.2a29,29,0,0,0-5.84-14.7,36.9,36.9,0,0,0-2.85-3.36l-.31-.33,21-47.23a51.19,51.19,0,0,1,3-6.91c1.85-3.5,4.5-7.4,7.74-9.27a3.62,3.62,0,0,1,.43-.24Z"/><path d="M1659.19,1581.54a21.48,21.48,0,0,0-.16-2.93l-.93.14a33.55,33.55,0,0,1-5.72,21.86l.78.54A34.94,34.94,0,0,0,1659.19,1581.54Z"/><rect x="1671.45" y="1615.3" width="7.28" height="0.95" transform="translate(-600.59 2103.54) rotate(-56.07)"/><rect x="1670.3" y="1610.97" width="7.28" height="0.95" transform="translate(-598.06 2098.12) rotate(-56)"/><path d="M1693.27,1492.05l-.39.34-.33.28a5.85,5.85,0,0,0-10.32,3.78v126.92h-1V1496.45a1.37,1.37,0,0,1,0-.29,6.79,6.79,0,0,1,12-4.11Z"/><path d="M1682,1496.88l-.4-.86c-.23.11-5.53,2.7-9.66,12.37-4.05,9.5-22.58,51.28-22.77,51.7l.87.39c.18-.43,18.72-42.22,22.77-51.72C1676.73,1499.46,1681.9,1496.9,1682,1496.88Z"/><path class="cls-15" d="M1173.69,1503.81c9.29,0,452.13,28.82,452.13,28.82l-2.84,89.2-469.43-3.39Z"/><path class="cls-31" d="M805,1618.44a168.76,168.76,0,0,1,1.24-56.23c4.09-21,11.91-45.48,26.64-55.3,27.88-18.59,213.76-31,309.8-18.59l43.37,3.1s-15.49,105.33-21.69,127Z"/><path d="M804.8,1578.24l-3.09-.16c.14-2.58,3.75-63.29,36.88-75.72,27.63-10.37,138.24-26.86,242.33-20.06l-.2,3.09c-103.69-6.77-213.62,9.58-241,19.87C808.45,1517,804.83,1577.63,804.8,1578.24Z"/><path class="cls-24" d="M1244.22,1612a4.64,4.64,0,0,0-3.42-5.29l-14.48-3.88a1.1,1.1,0,0,1-.81-1h0a1.09,1.09,0,0,1,1.23-1.17l22,2.84a3.64,3.64,0,0,0,4.26-4h0a5.86,5.86,0,0,0-4.89-5.19l-22.39-2.9a1.11,1.11,0,0,1-1-1l0-.37a1.1,1.1,0,0,1,1-1.17l25-1.69a4.63,4.63,0,0,0,4.38-4.53,4.53,4.53,0,0,0-4.83-4.51l-25.15,1.7a1.08,1.08,0,0,1-1.17-1l-.08-1.17a1.09,1.09,0,0,1,.88-1.15l23-4.61a4.63,4.63,0,0,0,3.75-5.06,4.53,4.53,0,0,0-5.38-3.84s-35.38,5.14-41,5.49l6.62-11.28a4.53,4.53,0,0,0-.44-6.39h0a4.52,4.52,0,0,0-6.38.43l-21.58,19.57c-1.08,1.23-.87,4.48-.07,7.06-.23,26.7,0,30.82.55,38l28.39-2.89a68,68,0,0,1,24.43,2l2,.53A4.51,4.51,0,0,0,1244.22,1612Z"/><path class="cls-31" d="M850,1542.54c.64,5.49,294.43,10.34,343.87,12.39l-6.88,64-368-.44Z"/><polygon points="1188.33 1620.43 953.9 1619.98 953.91 1616.89 1185.55 1617.32 1192.11 1556.41 864.17 1544.54 863.92 1544.44 850.93 1539.33 852.06 1536.45 864.81 1541.46 1195.54 1553.44 1188.33 1620.43"/><polygon points="1624.85 1612.02 1621.75 1611.92 1624.22 1534.08 1203.76 1507.09 1203.96 1504 1627.41 1531.18 1624.85 1612.02"/><path class="cls-32" d="M921.24,1242.53c-.76,33.88-1.16,85.73,2.81,102.35,6.05,25.41,29.92,137.78,29.92,137.78l40.11,5L981.69,1336l4.52-79.81C977.35,1255.65,935.13,1252.46,921.24,1242.53Z"/><path class="cls-32" d="M993.29,1475.85c.06.17.12.38.18.54,8.45,2.55,18.27,5.51,20.69,6.22,4.44,1.31,17.88,10.66,21.25,15.87,6.13,9.45.89,8.34.89,8.34,5.44,10.41-2.84,7.58-2.84,7.58,5.69,8.9-2.61,7.73-2.61,7.73,2.56,5.1,1.16,6.72-.46,7.2a3.94,3.94,0,0,1-3.44-.69c-1.81-1.38-5.78-4.42-9.89-7.68h0s-13.88-7-39.66-16.55l-9.85-4.77Z"/><path class="cls-26" d="M1023.2,1513.57a.56.56,0,0,0-.54,1,69.16,69.16,0,0,1,7.76,8,.56.56,0,0,0,.86-.71,68.85,68.85,0,0,0-7.93-8.12A.38.38,0,0,0,1023.2,1513.57Z"/><path class="cls-26" d="M1025.67,1507a.56.56,0,0,0-.48,1,34.36,34.36,0,0,1,7.84,6.78.56.56,0,1,0,.86-.71,35,35,0,0,0-8.12-7Z"/><path class="cls-26" d="M1029.65,1499.88a.56.56,0,0,0-.5,1,29.56,29.56,0,0,1,6.7,6.28.56.56,0,0,0,.89-.67,30.23,30.23,0,0,0-7-6.55Z"/><path class="cls-32" d="M967.55,1499.65s-13.14-4.36-15.87-27.74,35.57,1.56,35.57,1.56l9.62,21.34-16.45,6.82Z"/><path d="M752.89,1556h-.09a.4.4,0,0,1-.3-.48c1.07-4.56-1.53-5.8-1.64-5.85a.4.4,0,0,1-.2-.53.4.4,0,0,1,.52-.2c.14.06,3.32,1.53,2.1,6.76A.39.39,0,0,1,752.89,1556Z"/><path d="M756.92,1577.71h-.09a.39.39,0,0,1-.3-.48c1.08-4.59-1.62-5.83-1.64-5.85a.39.39,0,0,1-.21-.52.42.42,0,0,1,.53-.21c.13.06,3.32,1.53,2.1,6.76A.4.4,0,0,1,756.92,1577.71Z"/><path class="cls-20" d="M907.4,1206.81c3.09-36.77,100.21-113.46,187.91-66.85,62.57,33.26,137.63,271.94,137.63,271.94s-91.18,18.81-176.88-7.62l-44.95-53.75L972,1294.59s-45.36,9.73-63.76,7.89C908.26,1302.48,901.63,1275.61,907.4,1206.81Z"/><path d="M1160,1419.75c-68.57,0-104.08-13.91-104.46-14.07l-.33-.13-.24-.26c-96.39-107.53-122.9-180.87-123.16-181.6l2.85-1c.26.72,26.58,73.44,122.32,180.31,4,1.51,45.65,16.24,122.78,13.35l.11,3Q1169.48,1419.76,1160,1419.75Z"/><path d="M914.65,1304.41a33.7,33.7,0,0,1-6.72-.46l-1.1-.25-.08-1.12c-.24-3.4-5.73-83.64.06-102.5,5.85-19,24.67-33.7,25.47-34.31l1.84,2.39c-.19.15-18.85,14.7-24.42,32.81-5.25,17.1-.69,89.86,0,100.19,2.9.31,11.86.76,30.2-2.37l.5,3C927.94,1303.9,919.71,1304.41,914.65,1304.41Z"/><path class="cls-24" d="M1123.4,1259.12c-4.41,33.6-11.93,84.9-18.38,100.73-9.86,24.18-50.57,131.6-50.57,131.6l-40.41-1.17,35.36-148,7.71-79.57C1066,1263.54,1108.16,1266.82,1123.4,1259.12Z"/><path class="cls-26" d="M1012.67,1479.75a67.37,67.37,0,0,1-11.41-4.81c-5.39-3-5.61,1.76-4.66,3.6s6.88,8,6.88,8Z"/><path class="cls-24" d="M1016.92,1477.74c-.09.17-.19.37-.28.52l-21.83,3.06c-4.69.63-19.7,8-23.91,12.7-7.65,8.58-2.19,8.27-2.19,8.27-7.11,9.66,1.68,8.09,1.68,8.09-7.13,8.09,1.43,8.21,1.43,8.21-3.38,4.74-2.21,6.6-.66,7.33a4,4,0,0,0,3.58-.16c2-1.11,6.52-3.55,11.18-6.2h0s15.1-5,42.59-10.52l10.67-3.28Z"/><path class="cls-26" d="M980.87,1511.14a.58.58,0,0,1,.61.28.56.56,0,0,1-.22.77,69.52,69.52,0,0,0-9.06,6.83.58.58,0,0,1-.8,0,.56.56,0,0,1,.05-.8,68.78,68.78,0,0,1,9.25-7A.49.49,0,0,1,980.87,1511.14Z"/><path class="cls-26" d="M979.4,1504.1a.55.55,0,0,1,.64.34.57.57,0,0,1-.31.74,35.09,35.09,0,0,0-9,5.62.57.57,0,1,1-.76-.84,35.53,35.53,0,0,1,9.29-5.83Z"/><path class="cls-26" d="M976.5,1496.32a.57.57,0,0,1,.63.33.56.56,0,0,1-.29.75,30.22,30.22,0,0,0-7.74,5.3.57.57,0,0,1-.79-.81,30.87,30.87,0,0,1,8.07-5.53Z"/><path class="cls-24" d="M1038.43,1506.18s13.66-2.31,19.91-25-35.39-3.89-35.39-3.89l-12.76,19.63,15.22,9.26Z"/><path d="M1084,1265.94a242.67,242.67,0,0,1-41.28-3.68l-1.32-.25,6.84-99.46,3,.21-6.65,96.76c8.7,1.48,58.22,9,86.78-5.25-.71-7-4.95-48.45-7.91-73.65l3-.36c3.23,27.5,8,74.27,8,74.74l.1,1-.91.48C1119.63,1263.84,1100.84,1265.94,1084,1265.94Z"/><path class="cls-24" d="M906.57,1108.2l28.53,35.67s8.7,11.84,19.87,5.25l10.37,16.79a15.29,15.29,0,0,0,18.45,6.33,40,40,0,0,0,10.64-6.12c11.47-9.17,10.8-22.74,8.31-27.8S981,1115,981,1115l-7.73-10.37-32.59-38.07Z"/><path class="cls-26" d="M970.44,1120.77s14.68,19.73-7.82,40.74L955,1149.12S973,1139.8,970.44,1120.77Z"/><path d="M946.4,1102.28a.61.61,0,0,0-.3-1.08c-.12,0-12.07-1.48-14.2,8.16a.61.61,0,0,0,.46.73.62.62,0,0,0,.73-.47c1.89-8.54,12.4-7.27,12.85-7.21A.61.61,0,0,0,946.4,1102.28Z"/><path d="M961.66,1086.58,953.07,1097l-.32,3.42s-12.93-18-13.71-22.94S961.66,1086.58,961.66,1086.58Z"/><path d="M927.23,1117.65a.64.64,0,0,0,.23-.45.62.62,0,0,0-.59-.64c-.33,0-8-.26-8.91,4.51a.62.62,0,0,0,.49.72.63.63,0,0,0,.72-.49c.71-3.74,7.58-3.52,7.65-3.52A.59.59,0,0,0,927.23,1117.65Z"/><path d="M941.1,1114.42a1.83,1.83,0,1,0,.28-2.58A1.84,1.84,0,0,0,941.1,1114.42Z"/><path d="M924.72,1125.18a1.84,1.84,0,1,0,.28-2.58A1.83,1.83,0,0,0,924.72,1125.18Z"/><path class="cls-24" d="M952.53,1104.45a11,11,0,1,0,1.72-15.47A11,11,0,0,0,952.53,1104.45Z"/><path class="cls-26" d="M966.46,1101.14a4.59,4.59,0,0,0,1.22-5.38,4.31,4.31,0,0,0-4.5-2.84,5.18,5.18,0,0,0-4.39,3.77,5,5,0,0,1,0-3.51,6.93,6.93,0,0,1,3.62-3.3.3.3,0,1,0-.21-.57,7.38,7.38,0,0,0-4,3.63,6,6,0,0,0,.31,4.89l.46,1,.13-1.09a4.78,4.78,0,0,1,4.08-4.22,3.74,3.74,0,0,1,3.86,2.47,3.94,3.94,0,0,1-1,4.67l-.05,0a.3.3,0,0,0,0,.43.29.29,0,0,0,.42,0Z"/><path class="cls-26" d="M943.78,1128.13a.29.29,0,0,0,.09-.34.3.3,0,0,0-.39-.18l-6.06,2.24-7.5-12.47a.3.3,0,1,0-.52.31l7.76,12.91,6.53-2.42Z"/><path d="M961.66,1086.58s-10.49-19.07-20.61-21.21-48.28,10.48-49.35,16.46,5.53,6.91,5.53,6.91-14.84,5.66-9.13,18.27,34.68-3.25,45.91-20.28A43.28,43.28,0,0,1,961.66,1086.58Z"/><path class="cls-26" d="M949.47,1132.68a.32.32,0,0,0,.07-.3.34.34,0,0,0-.4-.26c-.28.07-6.83,1.56-8.57,4.24a.33.33,0,0,0,.1.47.34.34,0,0,0,.46-.1c1.59-2.46,8.09-3.93,8.16-4A.32.32,0,0,0,949.47,1132.68Z"/><path class="cls-24" d="M653.11,1095.69l-25-119.94-13.88-82-5.77-6.91-8.23,7.46-16-9.93S559,937,559.93,963.68s50,151.62,50,151.62Z"/><path class="cls-24" d="M663.32,1120.65l1.35.71c1,3,3.49,9,6,16.11-5.86,2.47-10.33,4.52-10.13,5.27l-1.35.37a1.35,1.35,0,0,0-.78.62c-6.23,1.79-14.2,3.89-20.75,6.07-4.65,1.56-8.1,4.41-11.93,1.62-2.21-1.61-6.68-12.93-8-17.07l-11.05-26.82c8.24-2.43,43-17.13,44.66-16.17Z"/><path class="cls-24" d="M647.49,1103.93c-3.71.43-6.38,2.73-6.32,3.35l2,20.62c.22,2.27,2.68,4,5.8,3.79,3.56-.22,6.34-2.66,6.1-5.21l-1.86-19.24C653,1105.1,649.65,1103.68,647.49,1103.93Z"/><path class="cls-33" d="M615.78,1159.54l-9.27,2.54L602.92,1149a14.63,14.63,0,0,1,10.22-18l60.52-16.6a14.62,14.62,0,0,1,17.94,10.22l3.4,12.4-9.27,2.54-3.4-12.39a5,5,0,0,0-6.13-3.49l-60.52,16.6a5,5,0,0,0-3.49,6.13Z"/><rect class="cls-15" x="596.95" y="1154.69" width="28.35" height="12.12" rx="2.85" transform="translate(-285.29 203.02) rotate(-15.34)"/><rect class="cls-15" x="675.8" y="1133.06" width="28.35" height="12.12" rx="2.85" transform="translate(-276.76 223.11) rotate(-15.34)"/><rect class="cls-9" x="518.75" y="1146.15" width="321.59" height="216.13" transform="translate(-307.58 224.45) rotate(-15.34)"/><path class="cls-33" d="M521.32,1185.56A26.37,26.37,0,0,1,502.87,1218l-7-25.43Z"/><path class="cls-31" d="M780.59,1114.44A26.38,26.38,0,0,0,813,1132.9l-7-25.43Z"/><path class="cls-31" d="M837.76,1322.87a26.38,26.38,0,0,1,18.46-32.41l7,25.44Z"/><path class="cls-33" d="M578.5,1394a26.37,26.37,0,0,0-32.41-18.45l7,25.43Z"/><g class="cls-14"><rect class="cls-31" x="589.43" y="1169.98" width="6.53" height="216.13" transform="matrix(0.96, -0.26, 0.26, 0.96, -316.97, 202.32)"/></g><g class="cls-14"><rect class="cls-31" x="756.14" y="1124.25" width="6.53" height="216.13" transform="matrix(0.96, -0.26, 0.26, 0.96, -298.93, 244.79)"/></g><path class="cls-24" d="M655.65,1147.57c-3.4,1.14-5.87-.5-6.08-1.06l-6.38-17.33c-.78-2.1.74-4.67,3.59-5.77,3.13-1.22,6.44-.29,7.27,2l6.36,17.25S659.06,1146.43,655.65,1147.57Z"/><path class="cls-24" d="M645.93,1151c-3.39,1.18-6.65.45-6.87-.11l-7.38-18.51c-.83-2.08.63-4.66,3.46-5.81,3.1-1.25,6.45-.37,7.34,1.87l7.56,19S649.32,1149.79,645.93,1151Z"/><path class="cls-24" d="M634.51,1152.94c-3.14,1.13-6.2.47-6.41,0L621,1135.76c-.81-1.93.52-4.34,3.14-5.43,2.88-1.2,6-.41,6.88,1.67l7.33,17.58A5.77,5.77,0,0,1,634.51,1152.94Z"/><path class="cls-26" d="M649.21,1148.31a1.11,1.11,0,0,0,1.22.25c.57-.2.91-.68.75-1.09l-7-18.64c-.64-1.75.63-3.82,2.91-4.71a6,6,0,0,1,3.64-.26,3.13,3.13,0,0,1,2.26,1.87l6.3,17.08a1,1,0,0,0,1.3.39c.56-.19.9-.67.75-1.08L655.08,1125a4.69,4.69,0,0,0-3.31-2.73,8.58,8.58,0,0,0-5.33.38c-3.33,1.3-5.21,4.3-4.28,6.84l7,18.63A.53.53,0,0,0,649.21,1148.31Z"/><path class="cls-24" d="M667.05,1142.41c-3.37,1.23-6.65.41-6.86-.14L653,1123.72c-.8-2,.57-4.58,3.33-5.76,3.16-1.34,6.59-.45,7.48,1.84l6.71,17.31C671.26,1139,669,1141.69,667.05,1142.41Z"/><path class="cls-26" d="M659.33,1142.72a1.11,1.11,0,0,0,1.23.24c.57-.2.89-.69.73-1.1L654,1123.34c-.68-1.75.57-3.83,2.84-4.73a5.83,5.83,0,0,1,3.64-.29,3.18,3.18,0,0,1,2.3,1.84l6.58,17a1,1,0,0,0,1.31.38c.56-.2.89-.68.73-1.09l-6.58-17a4.71,4.71,0,0,0-3.36-2.69,8.59,8.59,0,0,0-5.33.42c-3.32,1.33-5.15,4.35-4.18,6.87l7.29,18.53A.64.64,0,0,0,659.33,1142.72Z"/><path class="cls-26" d="M638.44,1150.57a1.12,1.12,0,0,0,1.25.23c.56-.21.88-.7.71-1.1l-7.53-17.92c-.7-1.75.38-3.61,2.63-4.53a5.91,5.91,0,0,1,3.64-.31,3.22,3.22,0,0,1,2.32,1.83l7.56,19a1,1,0,0,0,1.32.37c.56-.19.89-.68.72-1.09l-7.56-19a4.74,4.74,0,0,0-3.39-2.67,8.67,8.67,0,0,0-5.33.46c-3.3,1.33-5,4.14-3.95,6.67l7.54,17.93A.83.83,0,0,0,638.44,1150.57Z"/><path class="cls-26" d="M627.8,1153a1.12,1.12,0,0,0,1.25.23c.56-.2.88-.69.71-1.1L622.61,1135c-.66-1.58.43-3.5,2.5-4.35a5.4,5.4,0,0,1,3.34-.32,3,3,0,0,1,2.15,1.65l7.33,17.58a1,1,0,0,0,1.33.36c.56-.2.88-.69.71-1.1l-7.34-17.58a4.54,4.54,0,0,0-3.23-2.48,8.23,8.23,0,0,0-5,.48c-3.11,1.29-4.78,4.14-3.79,6.5l7.15,17.14A.54.54,0,0,0,627.8,1153Z"/><polygon class="cls-24" points="639.19 1101.99 642.53 1118.99 644.02 1127.22 645.76 1129.33 650.55 1129.77 654.57 1126.99 655.25 1122.5 655.07 1104.64 643.51 1096.89 639.19 1101.99"/><path class="cls-26" d="M638.31,1105.05a1.16,1.16,0,0,1,1.09-.71c.63,0,1.13.31,1.14.76l3.75,20.37c0,2,2.06,3.46,4.61,3.43a6.12,6.12,0,0,0,3.63-1.16,3.34,3.34,0,0,0,1.48-2.68l-.39-19c0-.45.49-.85,1.11-.88s1.13.3,1.14.75l.39,19a4.9,4.9,0,0,1-2.17,3.92,9,9,0,0,1-5.3,1.71c-3.73,0-6.69-2.14-6.75-5l-3.75-20.37A1.1,1.1,0,0,1,638.31,1105.05Z"/><polygon class="cls-24" points="327.51 1562.73 283.35 1531.94 312.32 1490.25 359.79 1516.07 327.51 1562.73"/><path class="cls-15" d="M279.38,1535.8l38.14,27.38,27.55-5.75,16.19,37.15,6.09,4.37a5.46,5.46,0,0,1,1.92,6.65,5.35,5.35,0,0,1-8,2.15l-88.68-63.66a1.44,1.44,0,0,1-.33-2l4.15-5.78A2.13,2.13,0,0,1,279.38,1535.8Z"/><path class="cls-34" d="M279.68,1536.09l11.24-15.65s12.63-4,19.24,7.4c0,0,7.26,21.11,29.41,17.77l22.07,37.6s6.75,9.34,5.74,15.83Z"/><rect x="275.74" y="1527.83" width="19.17" height="0.8" transform="matrix(0.58, -0.81, 0.81, 0.58, -1122.56, 868.87)"/><path d="M320.25,1541.75a22.14,22.14,0,0,0,2.09,1.34l.37-.71a28.32,28.32,0,0,1-12.18-14.68l-.75.27A29.52,29.52,0,0,0,320.25,1541.75Z"/><rect x="288.57" y="1532.74" width="0.8" height="6.14" transform="translate(-517 196.92) rotate(-20.39)"/><rect x="292.1" y="1534.08" width="0.8" height="6.14" transform="translate(-515.79 197.35) rotate(-20.33)"/><path d="M364.84,1609.16a5.74,5.74,0,0,0,2.88-10.39L280,1535.83a3.07,3.07,0,0,0-4.29.71l-3.11,4.33.65.46,3.11-4.32a2.28,2.28,0,0,1,3.18-.53l87.68,62.94a4.94,4.94,0,0,1-2.49,8.94Z"/><path d="M367.1,1599l.78.15c0-.21.88-5.12-3.72-12.71s-24.05-40.72-24.24-41l-.69.4c.19.34,19.72,33.61,24.25,41.07C367.9,1594.17,367.11,1599,367.1,1599Z"/><polygon class="cls-24" points="576.05 1602.57 522.23 1603.31 521.46 1552.54 575.07 1545.84 576.05 1602.57"/><path class="cls-15" d="M521.25,1608.76h47l19-20.73L622,1608.76h7.5A5.48,5.48,0,0,1,635,1613a5.34,5.34,0,0,1-5.24,6.4H520.58a1.45,1.45,0,0,1-1.45-1.45v-7.11A2.12,2.12,0,0,1,521.25,1608.76Z"/><path class="cls-34" d="M521.67,1608.82v-19.27s7.9-10.64,19.94-5.21c0,0,18.21,12.92,34.26-2.72l39.86,17.68s10.93,3.66,13.88,9.52Z"/><rect x="521.27" y="1589.55" width="0.8" height="19.18"/><path d="M557.93,1589.76a17.26,17.26,0,0,0,2.47-.14l-.11-.79a28.2,28.2,0,0,1-18.45-4.82l-.46.66A29.51,29.51,0,0,0,557.93,1589.76Z"/><rect x="528.65" y="1600.1" width="0.8" height="6.14" transform="translate(-1096.39 1147.09) rotate(-56.06)"/><rect x="532.3" y="1599.13" width="0.8" height="6.14" transform="translate(-1093.53 1148.1) rotate(-56.01)"/><path d="M633.45,1618.52a5.74,5.74,0,0,0-3.71-10.12H521.81a3.08,3.08,0,0,0-3.08,3.07v5.33h.8v-5.33a2.29,2.29,0,0,1,2.28-2.28H629.74a5,5,0,0,1,3.2,8.72Z"/><path d="M629.38,1609l.72-.34c-.09-.19-2.28-4.67-10.43-8.15s-43.28-19.06-43.64-19.22l-.32.73c.35.16,35.62,15.8,43.64,19.22C627.2,1604.56,629.36,1608.92,629.38,1609Z"/><path class="cls-28" d="M481.34,1099.2c2,59.66,10.85,293,29.4,445.72a20,20,0,0,0,19.89,17.63,153.74,153.74,0,0,0,44.14-6.65,20.15,20.15,0,0,0,14.31-18.9l7.54-464.59a20,20,0,0,0-.23-3.37l-.36-2.3a20.05,20.05,0,0,0-27-15.67l-74.82,28.74A20,20,0,0,0,481.34,1099.2Z"/><path class="cls-29" d="M438.66,1071.74,426.08,1287s-90.65,140.69-125.42,201.79a17,17,0,0,0,4.26,21.7,152.84,152.84,0,0,0,44.31,24.22,17,17,0,0,0,18.74-5.36L530.2,1335.42a44.35,44.35,0,0,0,9.59-20.4l39.74-215.47Z"/><path class="cls-25" d="M294,1500.69Z"/><path class="cls-10" d="M564.23,744.58s12.24-17.82-6.91-38.26-28,6.51-37,7.47-24.06-5.06-32.82,10-7.71,27.42-17.24,28.26-43.54,18.37-41.4,50,31.85,35.35,31.85,35.35,114.55,26,127.83-2.6,4.5-43.63-8.3-56.45C572.33,770.41,555.18,761.93,564.23,744.58Z"/><path class="cls-20" d="M622.71,917.05l-4.61,3.3-6,5.18-10.22,3.78-2.46,3.47-4,60.91,5.31,120s-121.32-2.67-176.29-9.19l1.8-28,1.16-18.08,6.95-108.46-4.54,10q-5-1.54-9.65-3.35c3.82-7.27,7.92-14.93,11.8-21.78-11.21-3.59-36-14.42-53.49-28.34-2.58,5.39-6.17,12.59-10.05,20.48-5.15-4-8-6.69-8-6.69L367,911l19-25.63,19.86-24.75,17.94-18.76,20.6-9.94,9.84-1.85a6.82,6.82,0,0,1,1.54-.39c.51-.07,1-.13,1.53-.18l12.49-2.34,1.59,1c13.74-1,27.24-1.4,31.57-1.5,1.16-.11,3.1-.15,5.53-.15,11.95,0,35.74,1.15,35.74,1.15l5.1-.51c5.76.68,41.08,3.93,47.83,10.81,1.82,1.84,11.27,20.13,21.06,58Z"/><path class="cls-24" d="M550.55,751.8s2.23,42.85-5.77,51.53c0,0-4,4.65-12.28,4L530,833.77l-37.31-3.6L501,743.45Z"/><path class="cls-26" d="M535.17,783.79a.31.31,0,0,1-.3-.3.34.34,0,0,1,.3-.38c2.23-.25,3.87-2.82,4.35-3.66-2.95-2-4.64-4.3-5-7-.62-4.34,2.43-7.91,2.56-8.06a.35.35,0,0,1,.48,0,.34.34,0,0,1,0,.48s-3,3.5-2.4,7.53c.36,2.53,2,4.77,5,6.65l.25.17-.13.27c-.08.16-2,4-5,4.3Z"/><path class="cls-26" d="M531.48,818l1-10.63s-17.87-2.79-28.23-10.8C504.27,796.53,517.85,812.36,531.48,818Z"/><path d="M516.07,763.87a.68.68,0,0,1-.38-1.2c.1-.08,9.66-8.15,17-1a.68.68,0,0,1-1,1c-6.45-6.3-14.82.73-15.17,1A.65.65,0,0,1,516.07,763.87Z"/><path d="M539.84,764.66a.71.71,0,0,1-.49-.28.69.69,0,0,1,.16-1c.27-.19,6.82-4.79,10.34-1.12a.67.67,0,0,1,0,1,.68.68,0,0,1-1,0c-2.71-2.81-8.51,1.26-8.57,1.3A.66.66,0,0,1,539.84,764.66Z"/><path class="cls-33" d="M547.11,770.68a1.9,1.9,0,1,1-1.71-2.08A1.9,1.9,0,0,1,547.11,770.68Z"/><path class="cls-33" d="M530.34,769.07a1.9,1.9,0,1,1-1.71-2.08A1.9,1.9,0,0,1,530.34,769.07Z"/><path class="cls-24" d="M505.48,774.85a10.66,10.66,0,1,1-9.59-11.64A10.66,10.66,0,0,1,505.48,774.85Z"/><path class="cls-26" d="M493.45,780.3a4.48,4.48,0,0,1-3.88-3.75,4.23,4.23,0,0,1,2.16-4.74,5,5,0,0,1,5.5.65,4.77,4.77,0,0,0-1.84-2.66,6.69,6.69,0,0,0-4.65-.75.34.34,0,0,1-.15-.66,7.2,7.2,0,0,1,5.18.85,5.82,5.82,0,0,1,2.36,4.16l.18,1.21-.78-1c-.1-.11-2.37-2.78-5.49-1.23a3.57,3.57,0,0,0-1.8,4,3.77,3.77,0,0,0,3.33,3.21.34.34,0,0,1,.31.37.35.35,0,0,1-.37.31Z"/><path class="cls-24" d="M550.55,751.8s-1.66-16.65-23.34-20.55S501,743.45,501,743.45l24.46,7.46,23.49.62Z"/><path class="cls-10" d="M551.88,738s-14.87,12-32.23,7.28c0,0-8,21-20.63,18.77s-2.85-31.41-2.85-31.41,24.8-7.43,26.32-7.28,27,1.07,27,1.07Z"/><path class="cls-35" d="M530.43,775.17a.42.42,0,0,1,.08-.84.42.42,0,0,1-.08.84Z"/><path class="cls-35" d="M527.72,776.44a.42.42,0,0,1,.08-.84.42.42,0,0,1-.08.84Z"/><path class="cls-35" d="M523.37,773a.42.42,0,0,1,.08-.84.42.42,0,0,1-.08.84Z"/><path class="cls-35" d="M519.1,775.61a.42.42,0,0,1,.08-.84.42.42,0,0,1-.08.84Z"/><path class="cls-35" d="M515.32,771.13a.42.42,0,0,1,.08-.84.42.42,0,0,1-.08.84Z"/><path class="cls-35" d="M513.22,777.05a.42.42,0,0,1,.08-.84.42.42,0,0,1-.08.84Z"/><path class="cls-35" d="M539.1,773.52a.43.43,0,0,1,.08-.85.43.43,0,0,1-.08.85Z"/><path class="cls-35" d="M541.9,777.23a.42.42,0,0,1,.08-.84.42.42,0,0,1-.08.84Z"/><path class="cls-35" d="M545.83,776.08a.42.42,0,0,1,.08-.84.42.42,0,0,1-.08.84Z"/><path class="cls-35" d="M545.54,782.08a.43.43,0,0,1,.08-.85.43.43,0,0,1-.08.85Z"/><path class="cls-35" d="M548.72,778.84a.42.42,0,0,1,.08-.84.42.42,0,0,1-.08.84Z"/><path class="cls-35" d="M548.56,773.57a.43.43,0,0,1,.08-.85.43.43,0,0,1-.08.85Z"/><path class="cls-35" d="M524.43,778.8a.42.42,0,0,1,.09-.84.42.42,0,0,1-.09.84Z"/><path class="cls-25" d="M436.19,852a.63.63,0,0,0,.5-.25c6.06-8.08,15.95-11.36,16.05-11.39a.63.63,0,0,0-.38-1.2c-.42.14-10.37,3.43-16.67,11.84a.61.61,0,0,0,.12.87A.6.6,0,0,0,436.19,852Z"/><path class="cls-25" d="M437.37,857.76a.6.6,0,0,0,.5-.25c6.06-8.07,15.95-11.35,16.05-11.39a.63.63,0,0,0,.41-.79.62.62,0,0,0-.79-.4c-.42.14-10.37,3.43-16.67,11.83a.63.63,0,0,0,.12.88A.68.68,0,0,0,437.37,857.76Z"/><path d="M581.3,932.23H518.84a1.14,1.14,0,0,1,0-2.27H581.3a1.14,1.14,0,0,1,0,2.27Z"/><path d="M572.27,943.14H530.88a1.13,1.13,0,0,1,0-2.26h41.39a1.13,1.13,0,0,1,0,2.26Z"/><path class="cls-27" d="M538.07,788.82c-.18-.09-12.45-3.82-12.45-3.82s.13,5.54,4.69,6.94S538.07,788.82,538.07,788.82Z"/><path class="cls-24" d="M565.2,828.73s-18.7,15.82-50.54,16.17-49.13-16.17-49.13-16.17S525.4,822.12,565.2,828.73Z"/><path d="M601.9,930.44a1.13,1.13,0,0,1-.17-2.25c10.5-1.62,18.08-10.05,19.74-12-.46-1.77-1.05-4.29-1.79-7.39-4.83-20.41-16.15-68.2-28.15-72.43-14.32-5-38.35-8-38.59-8.06a1.13,1.13,0,1,1,.27-2.24c.25,0,24.52,3.05,39.07,8.17,13.17,4.63,24.27,51.51,29.61,74,.81,3.43,1.45,6.13,1.91,7.89l.14.54-.33.44c-.35.46-8.78,11.35-21.53,13.32Z"/><path d="M599.35,931.27l-.16.25-4.87,65.86,2.3-.34,4.79-64.77c21.58-33.15-4.5-60.06-4.76-60.33a1.15,1.15,0,0,0-1.61,0,1.13,1.13,0,0,0,0,1.6C596.08,874.59,620.21,899.57,599.35,931.27Z"/><rect x="405.89" y="1316.97" width="373.46" height="2.89" transform="matrix(0.02, -1, 1, 0.02, -735.45, 1889.07)"/><path d="M393.05,1501.61l-2.21-1.85,134.33-160.57c10.59-12.67,13.18-24.35,13.21-24.47l29.14-158,2.84.53-29.15,158.07c-.12.54-2.74,12.5-13.83,25.75Z"/><path d="M360.48,921.64a1.5,1.5,0,0,1-.81-.24,1.46,1.46,0,0,1-.39-2c2.06-3,50.78-74.88,77.39-85.39,10.95-4.31,27.92-9.27,46.58-8.33l.87,0h.05a1.46,1.46,0,0,1,1.45,1.37,1.41,1.41,0,0,1-1.32,1.51c-.17,0-.57,0-1.19,0-18.17-.91-34.7,3.93-45.38,8.14-25.79,10.17-75.56,83.58-76.06,84.32A1.44,1.44,0,0,1,360.48,921.64Z"/><polygon points="798.48 1335.14 797.72 1332.36 861.42 1314.88 805.01 1109.24 745.44 1125.58 744.67 1122.8 807.03 1105.7 864.97 1316.9 798.48 1335.14"/><rect x="648.69" y="1301.83" width="2.89" height="35.64" transform="translate(-817.97 1413.56) rotate(-67.43)"/><rect x="648.6" y="1315.51" width="2.89" height="35.64" transform="translate(-830.65 1421.93) rotate(-67.43)"/><path class="cls-36" d="M362.45,996.41h.05a4.47,4.47,0,0,1,4.5,4.26c1.3,24.14,11.28,43,29.72,56.17a85.49,85.49,0,0,0,26,12.41,4.44,4.44,0,0,1,3.17,5.06v.07a4.45,4.45,0,0,1-5.58,3.52,94.25,94.25,0,0,1-28.53-13.53c-14.59-10.31-31.94-29.54-33.77-63.22A4.47,4.47,0,0,1,362.45,996.41Z"/><path d="M362.93,1027.78l1.37-.45c10.09,30.53,40,43.36,40.27,43.49l-.55,1.33C403.71,1072,373.23,1058.93,362.93,1027.78Z"/><rect x="450.02" y="963.66" width="12.72" height="1.44" transform="translate(-610.17 936.37) rotate(-63.17)"/><rect x="444.44" y="961.26" width="12.72" height="1.44" transform="translate(-611.09 930.04) rotate(-63.17)"/><path class="cls-20" d="M432,934.76c-3.88,6.85-8,14.51-11.8,21.78a204.43,204.43,0,0,1-51.74-29.64c3.88-7.89,7.47-15.09,10.05-20.48C396,920.34,420.79,931.17,432,934.76Z"/><path class="cls-24" d="M432.6,1068.57l-6.32,7.87L410,1096.69c-19-16-63.6-74.84-65.73-111.38-.46-7.81,13.07-35.93,24.16-58.41a204.43,204.43,0,0,0,51.74,29.64c-6,11.38-11.33,21.84-14.21,26.83-4.08,7,11.51,52.7,21.45,75A85.26,85.26,0,0,0,432.6,1068.57Z"/><path class="cls-20" d="M397.81,946.19s23.61,13,32,14.83l7.78-22-19.07-3.78Z"/><path d="M429.84,961a1.15,1.15,0,0,1-1.06-1.54l19-50.23a1.13,1.13,0,1,1,2.11.8l-19,50.23A1.13,1.13,0,0,1,429.84,961Z"/><path class="cls-24" d="M451.44,1113.49c11.52,2.78,7.25-5.6,7.25-5.6,6.33.85,7.54-1.23,7.45-3.12a4.36,4.36,0,0,0-2-3.39c-3.64-2.43-14.81-9.83-22.06-14-2.79-4.65,5.67-8.48,10.88-9.18,2.69-.36,6-2.58-.66-5.08-5.43-2-18.4-1.76-18.4-1.76l-17.56-32.8-32.31,29s23.64,32.88,26.65,37.1,17.84,15,24.6,16.72c12.25,3,9.16-2.11,9.16-2.11C457.48,1121.22,451.44,1113.49,451.44,1113.49Z"/><path class="cls-26" d="M446.81,1102.92a.63.63,0,0,1,0-.73.62.62,0,0,1,.86-.19,75.82,75.82,0,0,0,11.28,5.3.63.63,0,0,1-.44,1.17,76.58,76.58,0,0,1-11.51-5.42A.64.64,0,0,1,446.81,1102.92Z"/><path class="cls-26" d="M440.72,1108a.63.63,0,0,1,0-.8.62.62,0,0,1,.88-.07,38.45,38.45,0,0,0,10.06,5.82.63.63,0,0,1,.37.81.63.63,0,0,1-.8.37,39.18,39.18,0,0,1-10.43-6Z"/><path class="cls-26" d="M434.66,1114.76a.62.62,0,0,1,.86-.89,33.2,33.2,0,0,0,9.12,4.8.62.62,0,0,1,.4.79.61.61,0,0,1-.78.4,34.12,34.12,0,0,1-9.51-5Z"/><circle class="cls-30" cx="676.09" cy="1251.37" r="39.08" transform="translate(-614.75 654.07) rotate(-36.79)"/><polygon class="cls-9" points="664.68 1227.55 672.2 1225.25 678.71 1246.51 700.06 1240.26 702.26 1247.81 681.02 1254.03 687.51 1275.19 679.99 1277.5 673.47 1256.24 652.13 1262.48 649.92 1254.94 671.17 1248.72 664.68 1227.55"/><rect class="cls-25" x="137.36" y="1617.47" width="2758.66" height="5.9"/><path class="cls-15" d="M2695.62,1248q-5.48-4.43-11.47-8.72v38.32c28.56,25.41,42.37,53.17,42.15,84.62-.3,42.55-13.31,75.47-39.79,100.64-31.31,29.78-81.93,49.46-154.76,60.19-35.65,5.25-76.22,8.37-123.55,9.42-42.83,1-91.19.22-146.43-2.18l-1.3,30c38.77,1.68,74.73,2.54,108.1,2.54q20.49,0,39.68-.43c154.36-3.5,246.8-28.2,298.94-77.78,32.23-30.65,48.76-71.76,49.11-122.17C2756.6,1319.26,2736.19,1280.76,2695.62,1248Z"/><circle class="cls-15" cx="2202.59" cy="1500.47" r="107.13"/><g class="cls-37"><circle class="cls-9" cx="2202.59" cy="1500.47" r="61.67"/></g><path d="M2475.29,1530.26l-.11-2c222.49-11.8,244.84-111.49,247.06-131.35.32-2.87.76-5.91,1.34-9.27,6.27-36.4-5-64.17-15.48-81.05-11.4-18.3-24.41-28.09-24.54-28.18l1.19-1.61c.13.1,13.45,10.11,25.05,28.73,10.7,17.18,22.13,45.43,15.75,82.45-.57,3.32-1,6.32-1.32,9.15-1.28,11.44-7.89,41.16-41.55,70C2639.72,1504,2569.94,1525.24,2475.29,1530.26Z"/><path d="M2202.59,1608.6v-2a106.13,106.13,0,0,0,0-212.26v-2a108.13,108.13,0,0,1,0,216.26Z"/><path d="M2202.59,1563.14v-2a60.67,60.67,0,0,0,0-121.34v-2a62.67,62.67,0,0,1,0,125.34Z"/><path d="M2119.94,1570.2c-25.32-29.3-26.67-61.9-23.34-84.1a133.73,133.73,0,0,1,13.4-41.53l1.75,1a131.29,131.29,0,0,0-13.18,40.9c-3.25,21.77-1.92,53.73,22.89,82.43Z"/><path d="M2707.89,1485.31l-1.4-1.43c35.62-34.66,45.42-76.41,47.37-105.33,2.12-31.39-4.29-54.88-4.36-55.12l1.93-.53c.07.23,6.56,24,4.44,55.71C2753.9,1407.9,2744,1450.19,2707.89,1485.31Z"/></g></g></g></svg>