<svg xmlns="http://www.w3.org/2000/svg" xmlns:xlink="http://www.w3.org/1999/xlink" viewBox="0 0 750 500"><defs><style>.cls-1{isolation:isolate;}.cls-2{fill:#d5f1ff;}.cls-3{fill:#f2f2f2;}.cls-16,.cls-3,.cls-42,.cls-61{mix-blend-mode:multiply;}.cls-4{fill:#263185;}.cls-5{fill:#75bcfc;}.cls-6{fill:#ff6c7b;}.cls-7{fill:url(#linear-gradient);}.cls-8{fill:url(#linear-gradient-2);}.cls-9{fill:url(#linear-gradient-3);}.cls-10{fill:url(#linear-gradient-4);}.cls-11,.cls-12,.cls-43,.cls-44,.cls-74,.cls-75,.cls-76{mix-blend-mode:screen;}.cls-11{fill:url(#linear-gradient-5);}.cls-12{fill:url(#linear-gradient-6);}.cls-13{fill:#1960bb;}.cls-14{fill:#ff2f30;}.cls-15{fill:url(#linear-gradient-7);}.cls-16{fill:url(#linear-gradient-8);}.cls-17{fill:url(#linear-gradient-9);}.cls-18{fill:url(#linear-gradient-10);}.cls-19{fill:url(#linear-gradient-11);}.cls-20{fill:url(#linear-gradient-12);}.cls-21{fill:url(#linear-gradient-13);}.cls-22{font-size:24.28px;font-family:Raleway-Bold, Raleway;font-weight:700;}.cls-22,.cls-56{fill:#fff;}.cls-23{letter-spacing:-0.02em;}.cls-24{letter-spacing:-0.03em;}.cls-25{fill:#07225f;}.cls-26{fill:url(#linear-gradient-14);}.cls-27{fill:url(#linear-gradient-15);}.cls-28{fill:url(#linear-gradient-16);}.cls-29{fill:url(#linear-gradient-17);}.cls-30{fill:url(#linear-gradient-18);}.cls-31{fill:url(#linear-gradient-19);}.cls-32{fill:url(#linear-gradient-20);}.cls-33{fill:url(#linear-gradient-21);}.cls-34{fill:#575755;}.cls-35{fill:#e4eeed;}.cls-36{fill:url(#linear-gradient-22);}.cls-37{fill:#0075f2;}.cls-38{fill:url(#linear-gradient-23);}.cls-39{fill:#ff7485;}.cls-40{fill:url(#linear-gradient-24);}.cls-41{fill:url(#linear-gradient-25);}.cls-43{fill:url(#linear-gradient-26);}.cls-44{fill:url(#linear-gradient-27);}.cls-45{fill:url(#linear-gradient-28);}.cls-46{fill:url(#linear-gradient-29);}.cls-47{fill:url(#linear-gradient-30);}.cls-48{fill:url(#linear-gradient-31);}.cls-49{fill:url(#linear-gradient-32);}.cls-50{fill:url(#linear-gradient-33);}.cls-51{fill:#373f42;}.cls-52{fill:url(#linear-gradient-34);}.cls-53{fill:url(#linear-gradient-35);}.cls-54{fill:url(#linear-gradient-36);}.cls-55{fill:url(#linear-gradient-37);}.cls-57{fill:url(#linear-gradient-38);}.cls-58{fill:url(#linear-gradient-39);}.cls-59{fill:url(#linear-gradient-40);}.cls-60{fill:url(#linear-gradient-41);}.cls-61{opacity:0.5;fill:url(#linear-gradient-42);}.cls-62{fill:#e9eeee;}.cls-63{fill:url(#linear-gradient-43);}.cls-64{fill:url(#linear-gradient-44);}.cls-65{fill:url(#linear-gradient-45);}.cls-66{fill:url(#linear-gradient-46);}.cls-67{fill:#fefffd;}.cls-68{fill:url(#linear-gradient-47);}.cls-69{fill:url(#linear-gradient-48);}.cls-70{fill:url(#linear-gradient-49);}.cls-71{fill:url(#linear-gradient-50);}.cls-72{fill:url(#linear-gradient-51);}.cls-73{fill:url(#linear-gradient-52);}.cls-74{fill:url(#linear-gradient-53);}.cls-75{fill:url(#linear-gradient-54);}.cls-76{fill:url(#linear-gradient-55);}</style><linearGradient id="linear-gradient" x1="229.43" y1="252.27" x2="226.37" y2="195.26" gradientUnits="userSpaceOnUse"><stop offset="0" stop-color="#ffbb0a"/><stop offset="1" stop-color="#fff551"/></linearGradient><linearGradient id="linear-gradient-2" x1="177.66" y1="422.97" x2="244.62" y2="242.74" xlink:href="#linear-gradient"/><linearGradient id="linear-gradient-3" x1="234.98" y1="274" x2="306.92" y2="286.63" xlink:href="#linear-gradient"/><linearGradient id="linear-gradient-4" x1="-270.48" y1="-490.97" x2="-357.45" y2="-611.34" gradientTransform="matrix(-0.05, -1, -1, 0.05, -340.13, 91.14)" xlink:href="#linear-gradient"/><linearGradient id="linear-gradient-5" x1="199.59" y1="191.8" x2="186.68" y2="11.08" xlink:href="#linear-gradient"/><linearGradient id="linear-gradient-6" x1="232.66" y1="288.44" x2="227.45" y2="215.52" xlink:href="#linear-gradient"/><linearGradient id="linear-gradient-7" x1="431.09" y1="371.57" x2="441.5" y2="458.49" gradientUnits="userSpaceOnUse"><stop offset="0.01" stop-color="#e4e4e4"/><stop offset="0.58" stop-color="#f6f7f6"/><stop offset="0.99" stop-color="#fefffd"/></linearGradient><linearGradient id="linear-gradient-8" x1="445.61" y1="376.54" x2="451.14" y2="422.78" xlink:href="#linear-gradient-7"/><linearGradient id="linear-gradient-9" x1="317.17" y1="437.35" x2="367.18" y2="395.4" xlink:href="#linear-gradient-7"/><linearGradient id="linear-gradient-10" x1="553.55" y1="372.66" x2="324.72" y2="326.74" gradientUnits="userSpaceOnUse"><stop offset="0" stop-color="#2b5295"/><stop offset="0.41" stop-color="#1960bb"/><stop offset="1" stop-color="#0075f2"/></linearGradient><linearGradient id="linear-gradient-11" x1="210.6" y1="305.38" x2="549.07" y2="305.38" xlink:href="#linear-gradient-10"/><linearGradient id="linear-gradient-12" x1="220.03" y1="337.89" x2="322.3" y2="370.45" xlink:href="#linear-gradient-7"/><linearGradient id="linear-gradient-13" x1="324.07" y1="356.51" x2="454.11" y2="356.51" xlink:href="#linear-gradient-10"/><linearGradient id="linear-gradient-14" x1="314.18" y1="279.07" x2="403.29" y2="233.55" gradientUnits="userSpaceOnUse"><stop offset="0" stop-color="#ff1511"/><stop offset="1" stop-color="#ff6c7b"/></linearGradient><linearGradient id="linear-gradient-15" x1="309.26" y1="327.85" x2="399.09" y2="281.96" xlink:href="#linear-gradient-14"/><linearGradient id="linear-gradient-16" x1="-995.3" y1="257.09" x2="-1142.48" y2="248.26" gradientTransform="matrix(-1, 0, 0, 1, -586.72, 0)" xlink:href="#linear-gradient-14"/><linearGradient id="linear-gradient-17" x1="-1067.38" y1="167.18" x2="-953.27" y2="265.44" gradientTransform="matrix(-1, 0, 0, 1, -586.72, 0)" xlink:href="#linear-gradient-14"/><linearGradient id="linear-gradient-18" x1="-1135.4" y1="274.07" x2="-1033.12" y2="306.63" gradientTransform="matrix(-1, 0, 0, 1, -586.53, 0.14)" xlink:href="#linear-gradient-7"/><linearGradient id="linear-gradient-19" x1="435.29" y1="319.26" x2="232.17" y2="255.16" xlink:href="#linear-gradient-7"/><linearGradient id="linear-gradient-20" x1="432.88" y1="321.46" x2="426.21" y2="319.36" xlink:href="#linear-gradient-7"/><linearGradient id="linear-gradient-21" x1="471.16" y1="302.93" x2="560.91" y2="257.07" xlink:href="#linear-gradient-14"/><linearGradient id="linear-gradient-22" x1="-223.77" y1="-32.8" x2="-213.22" y2="-32.8" gradientTransform="translate(500.17 442.04) rotate(74.84)" gradientUnits="userSpaceOnUse"><stop offset="0" stop-color="#9bb3d5"/><stop offset="0.02" stop-color="#9db4d6"/><stop offset="0.46" stop-color="#cbd6e5"/><stop offset="0.8" stop-color="#e7eaee"/><stop offset="1" stop-color="#f2f2f2"/></linearGradient><linearGradient id="linear-gradient-23" x1="-238.55" y1="47.31" x2="-230.35" y2="48.8" gradientTransform="translate(500.17 442.04) rotate(74.84)" gradientUnits="userSpaceOnUse"><stop offset="0" stop-color="#f15a24"/><stop offset="0.99" stop-color="#ffb501"/></linearGradient><linearGradient id="linear-gradient-24" x1="417.47" y1="220.3" x2="414.52" y2="178.98" gradientTransform="matrix(1, 0, 0, 1, 0, 0)" xlink:href="#linear-gradient-23"/><linearGradient id="linear-gradient-25" x1="378.27" y1="305.93" x2="470.72" y2="305.93" gradientTransform="translate(-32.45 -25.36) rotate(-5.43)" xlink:href="#linear-gradient"/><linearGradient id="linear-gradient-26" x1="388.13" y1="273.79" x2="409.86" y2="273.79" gradientTransform="matrix(1, -0.05, 0.05, 1, -15.6, -14.03)" xlink:href="#linear-gradient"/><linearGradient id="linear-gradient-27" x1="421.9" y1="270.5" x2="445.07" y2="270.5" gradientTransform="matrix(1, -0.05, 0.05, 1, -15.6, -14.03)" xlink:href="#linear-gradient"/><linearGradient id="linear-gradient-28" x1="-346.38" y1="1361.53" x2="-335.83" y2="1361.53" gradientTransform="matrix(-0.18, 0.98, 0.98, 0.18, -1040.03, 504.77)" xlink:href="#linear-gradient-22"/><linearGradient id="linear-gradient-29" x1="-361.16" y1="1441.64" x2="-352.96" y2="1443.13" gradientTransform="matrix(-0.18, 0.98, 0.98, 0.18, -1040.03, 504.77)" xlink:href="#linear-gradient-23"/><linearGradient id="linear-gradient-30" x1="556.67" y1="393.89" x2="561.65" y2="393.89" gradientTransform="matrix(1, 0, 0, 1, 0, 0)" xlink:href="#linear-gradient-22"/><linearGradient id="linear-gradient-31" x1="550.16" y1="346.17" x2="583.15" y2="346.17" gradientUnits="userSpaceOnUse"><stop offset="0" stop-color="#9bb3d5"/><stop offset="0.14" stop-color="#b1c3dc"/><stop offset="0.36" stop-color="#cdd8e6"/><stop offset="0.57" stop-color="#e2e6ed"/><stop offset="0.79" stop-color="#eeeff1"/><stop offset="1" stop-color="#f2f2f2"/></linearGradient><linearGradient id="linear-gradient-32" x1="494.12" y1="364.06" x2="512.77" y2="364.06" gradientTransform="translate(275.85 942.16) rotate(-104.38)" xlink:href="#linear-gradient"/><linearGradient id="linear-gradient-33" x1="494.12" y1="391.05" x2="499.99" y2="391.05" gradientTransform="matrix(1, 0, 0, 1, 0, 0)" xlink:href="#linear-gradient-22"/><linearGradient id="linear-gradient-34" x1="507.51" y1="334.07" x2="514.6" y2="334.07" gradientTransform="translate(314.62 912.06) rotate(-104.38)" xlink:href="#linear-gradient-14"/><linearGradient id="linear-gradient-35" x1="550.16" y1="282.85" x2="562.22" y2="282.85" gradientUnits="userSpaceOnUse"><stop offset="0" stop-color="#0274e1"/><stop offset="0.99" stop-color="#77e2ff"/></linearGradient><linearGradient id="linear-gradient-36" x1="495.5" y1="336.86" x2="562.26" y2="336.86" xlink:href="#linear-gradient-35"/><linearGradient id="linear-gradient-37" x1="546.71" y1="302.69" x2="555.15" y2="302.69" gradientTransform="matrix(1, 0, 0, 1, 0, 0)" xlink:href="#linear-gradient-22"/><linearGradient id="linear-gradient-38" x1="510.14" y1="364.63" x2="517.75" y2="364.63" gradientTransform="matrix(1, 0, 0, 1, 0, 0)" xlink:href="#linear-gradient-22"/><linearGradient id="linear-gradient-39" x1="271.24" y1="372.2" x2="216.14" y2="327.94" xlink:href="#linear-gradient-10"/><linearGradient id="linear-gradient-40" x1="285.39" y1="348.96" x2="380.29" y2="246.79" xlink:href="#linear-gradient-10"/><linearGradient id="linear-gradient-41" x1="164.55" y1="404.47" x2="306.59" y2="404.47" xlink:href="#linear-gradient-10"/><linearGradient id="linear-gradient-42" x1="164.55" y1="404.47" x2="270.29" y2="404.47" xlink:href="#linear-gradient-10"/><linearGradient id="linear-gradient-43" x1="230.19" y1="397.69" x2="223.16" y2="348.76" xlink:href="#linear-gradient-14"/><linearGradient id="linear-gradient-44" x1="219.59" y1="399.21" x2="212.56" y2="350.28" xlink:href="#linear-gradient-14"/><linearGradient id="linear-gradient-45" x1="208.61" y1="400.79" x2="201.58" y2="351.86" xlink:href="#linear-gradient-14"/><linearGradient id="linear-gradient-46" x1="192.26" y1="404.99" x2="193.97" y2="379.8" xlink:href="#linear-gradient-14"/><linearGradient id="linear-gradient-47" x1="155.05" y1="411.24" x2="217.76" y2="381.96" xlink:href="#linear-gradient-14"/><linearGradient id="linear-gradient-48" x1="156.49" y1="414.34" x2="219.2" y2="385.06" xlink:href="#linear-gradient-14"/><linearGradient id="linear-gradient-49" x1="157.99" y1="417.55" x2="220.7" y2="388.27" xlink:href="#linear-gradient-14"/><linearGradient id="linear-gradient-50" x1="164.84" y1="407.81" x2="195.21" y2="407.81" xlink:href="#linear-gradient-14"/><linearGradient id="linear-gradient-51" x1="263.7" y1="378.69" x2="272.64" y2="342.49" xlink:href="#linear-gradient-10"/><linearGradient id="linear-gradient-52" x1="227.52" y1="365.93" x2="305.99" y2="365.93" xlink:href="#linear-gradient-7"/><linearGradient id="linear-gradient-53" x1="249.7" y1="366.81" x2="290.96" y2="366.81" xlink:href="#linear-gradient-7"/><linearGradient id="linear-gradient-54" x1="277.24" y1="370.41" x2="303.25" y2="370.41" xlink:href="#linear-gradient-7"/><linearGradient id="linear-gradient-55" x1="229.55" y1="361.02" x2="254.55" y2="361.02" xlink:href="#linear-gradient-7"/></defs><g class="cls-1"><g id="Layer_2" data-name="Layer 2"><g id="BACKGROUND"><rect class="cls-2" width="750" height="500"/><ellipse class="cls-3" cx="368.97" cy="394.6" rx="260.63" ry="61.51"/><path class="cls-4" d="M588.61,183.33H568.06a18.61,18.61,0,0,1-18.62-18.61h0a18.61,18.61,0,0,1,18.62-18.62H581a8,8,0,0,0,8-6.71,7.88,7.88,0,0,0-7.79-9H550.36a.92.92,0,0,1-.92-.94,18.92,18.92,0,0,0-18.92-18.9H419.07a5.07,5.07,0,0,1-5-3.93,5,5,0,0,1,4.85-6h77.69a10,10,0,0,0,10-8.24,9.85,9.85,0,0,0-9.72-11.46H273.51a10,10,0,0,0-10,8.23,9.86,9.86,0,0,0,9.72,11.47h38.15a11,11,0,0,1,10.94,9,10.78,10.78,0,0,1-10.64,12.54H198.28a42.08,42.08,0,0,0-42.07,42.07h0a42.06,42.06,0,0,0,34.24,41.32,6.2,6.2,0,0,1,5,6.12v3.44a6.25,6.25,0,0,1-6.25,6.25h0a30.94,30.94,0,0,0-30.94,30.94h0a30.94,30.94,0,0,0,30.94,31h.11a9.3,9.3,0,0,1,9.3,9.3v0a9.64,9.64,0,0,1-8.79,9.57,10.55,10.55,0,0,0-2.27.43,24,24,0,0,0,8,46.59H551.45c12.6,0,23.45-9.5,24.46-22.06,0-.11,0-.22,0-.33a11.55,11.55,0,0,1,11.47-10.87h4.42A19.91,19.91,0,0,0,611.73,296h0c0-8.29-6.69-15.15-14.69-18a12.2,12.2,0,0,1-8.24-11.43V266a13.24,13.24,0,0,1,9.69-12.68A35.66,35.66,0,0,0,624.27,219h0A35.66,35.66,0,0,0,588.61,183.33Z"/><path class="cls-4" d="M275.74,70.15a1.72,1.72,0,0,1-1.24-.52,1.75,1.75,0,0,1,0-2.47l7-7-7.63-7.62a1.75,1.75,0,1,1,2.48-2.48L285.18,59a1.76,1.76,0,0,1,0,2.48L277,69.63A1.7,1.7,0,0,1,275.74,70.15Z"/><path class="cls-4" d="M288.1,70.15a1.72,1.72,0,0,1-1.24-.52,1.75,1.75,0,0,1,0-2.47l7-7-7.62-7.62a1.75,1.75,0,1,1,2.47-2.48L297.54,59a1.74,1.74,0,0,1,0,2.48l-8.2,8.2A1.72,1.72,0,0,1,288.1,70.15Z"/><path class="cls-4" d="M300.46,70.15a1.7,1.7,0,0,1-1.23-.52,1.73,1.73,0,0,1,0-2.47l7-7-7.62-7.62A1.75,1.75,0,1,1,301,50.09L309.91,59a1.76,1.76,0,0,1,0,2.48l-8.21,8.2A1.72,1.72,0,0,1,300.46,70.15Z"/><path class="cls-4" d="M312.83,70.15a1.76,1.76,0,0,1-1.24-3l7-7-7.63-7.62a1.75,1.75,0,1,1,2.48-2.48L322.27,59a1.76,1.76,0,0,1,0,2.48l-8.21,8.2A1.71,1.71,0,0,1,312.83,70.15Z"/><path class="cls-4" d="M325.19,70.15a1.72,1.72,0,0,1-1.24-.52,1.75,1.75,0,0,1,0-2.47l7-7-7.63-7.62a1.75,1.75,0,1,1,2.48-2.48L334.63,59a1.76,1.76,0,0,1,0,2.48l-8.2,8.2A1.73,1.73,0,0,1,325.19,70.15Z"/><path class="cls-4" d="M438.9,74.63a1.09,1.09,0,0,1-.76-.32,1.07,1.07,0,0,1,0-1.52l4.3-4.3-4.7-4.7a1.08,1.08,0,0,1,1.52-1.53l5.47,5.47a1.07,1.07,0,0,1,0,1.52l-5.06,5.06A1.09,1.09,0,0,1,438.9,74.63Z"/><path class="cls-4" d="M446.53,74.63a1.09,1.09,0,0,1-.77-.32,1.07,1.07,0,0,1,0-1.52l4.3-4.3-4.7-4.7a1.08,1.08,0,1,1,1.53-1.53l5.46,5.47a1.07,1.07,0,0,1,0,1.52l-5.06,5.06A1.09,1.09,0,0,1,446.53,74.63Z"/><path class="cls-4" d="M454.15,74.63a1.07,1.07,0,0,1-.76-.32,1.06,1.06,0,0,1,0-1.52l4.29-4.3-4.7-4.7a1.08,1.08,0,1,1,1.53-1.53L460,67.73a1.07,1.07,0,0,1,0,1.52l-5.06,5.06A1.07,1.07,0,0,1,454.15,74.63Z"/><path class="cls-4" d="M461.77,74.63a1.09,1.09,0,0,1-.76-.32,1.07,1.07,0,0,1,0-1.52l4.3-4.3-4.71-4.7a1.08,1.08,0,1,1,1.53-1.53l5.46,5.47a1.06,1.06,0,0,1,0,1.52l-5,5.06A1.11,1.11,0,0,1,461.77,74.63Z"/><path class="cls-4" d="M469.4,74.63a1.09,1.09,0,0,1-.77-.32,1.07,1.07,0,0,1,0-1.52l4.3-4.3-4.7-4.7a1.09,1.09,0,0,1,0-1.53,1.07,1.07,0,0,1,1.52,0l5.47,5.47a1.07,1.07,0,0,1,0,1.52l-5.06,5.06A1.09,1.09,0,0,1,469.4,74.63Z"/><path class="cls-4" d="M124.22,218.52a1.07,1.07,0,0,1-.76-.31,1.09,1.09,0,0,1,0-1.53l4.29-4.29-4.7-4.71a1.07,1.07,0,0,1,0-1.52,1.09,1.09,0,0,1,1.53,0l5.46,5.46a1.07,1.07,0,0,1,0,1.53L125,218.21A1.06,1.06,0,0,1,124.22,218.52Z"/><path class="cls-4" d="M131.84,218.52a1.07,1.07,0,0,1-.76-.31,1.09,1.09,0,0,1,0-1.53l4.3-4.29-4.7-4.71a1.06,1.06,0,0,1,0-1.52,1.07,1.07,0,0,1,1.52,0l5.47,5.46a1.09,1.09,0,0,1,0,1.53l-5.06,5.06A1.08,1.08,0,0,1,131.84,218.52Z"/><path class="cls-4" d="M139.47,218.52a1.08,1.08,0,0,1-.77-1.84l4.3-4.29-4.7-4.71a1.07,1.07,0,0,1,0-1.52,1.09,1.09,0,0,1,1.53,0l5.46,5.46a1.09,1.09,0,0,1,0,1.53l-5.06,5.06A1.07,1.07,0,0,1,139.47,218.52Z"/><path class="cls-4" d="M147.09,218.52a1.06,1.06,0,0,1-.76-.31,1.09,1.09,0,0,1,0-1.53l4.29-4.29-4.7-4.71a1.07,1.07,0,0,1,0-1.52,1.09,1.09,0,0,1,1.53,0l5.46,5.46a1.09,1.09,0,0,1,0,1.53l-5.06,5.06A1.06,1.06,0,0,1,147.09,218.52Z"/><path class="cls-4" d="M154.71,218.52a1.07,1.07,0,0,1-.76-.31,1.09,1.09,0,0,1,0-1.53l4.3-4.29-4.71-4.71a1.07,1.07,0,0,1,0-1.52,1.09,1.09,0,0,1,1.53,0l5.46,5.46a1.07,1.07,0,0,1,0,1.53l-5.05,5.06A1.1,1.1,0,0,1,154.71,218.52Z"/><path class="cls-4" d="M569.68,169.34a1.13,1.13,0,0,1-.8-.33,1.14,1.14,0,0,1,0-1.62l4.54-4.54-5-5a1.14,1.14,0,1,1,1.61-1.62l5.78,5.78a1.15,1.15,0,0,1,0,1.61L570.49,169A1.13,1.13,0,0,1,569.68,169.34Z"/><path class="cls-4" d="M577.74,169.34a1.14,1.14,0,0,1-.81-2l4.54-4.54-5-5a1.15,1.15,0,1,1,1.62-1.62l5.77,5.78a1.13,1.13,0,0,1,0,1.61L578.55,169A1.17,1.17,0,0,1,577.74,169.34Z"/><path class="cls-4" d="M585.79,169.34a1.13,1.13,0,0,1-.8-.33,1.14,1.14,0,0,1,0-1.62l4.54-4.54-5-5a1.14,1.14,0,0,1,1.61-1.62l5.78,5.78a1.15,1.15,0,0,1,0,1.61L586.6,169A1.13,1.13,0,0,1,585.79,169.34Z"/><path class="cls-4" d="M593.85,169.34a1.14,1.14,0,0,1-.81-2l4.54-4.54-5-5a1.14,1.14,0,1,1,1.61-1.62l5.77,5.78a1.13,1.13,0,0,1,0,1.61L594.66,169A1.17,1.17,0,0,1,593.85,169.34Z"/><path class="cls-4" d="M601.91,169.34a1.14,1.14,0,0,1-.81-2l4.54-4.54-5-5a1.16,1.16,0,0,1,0-1.62,1.15,1.15,0,0,1,1.61,0l5.78,5.78a1.15,1.15,0,0,1,0,1.61L602.71,169A1.13,1.13,0,0,1,601.91,169.34Z"/><circle class="cls-4" cx="241.6" cy="90.5" r="10.28" transform="translate(6.77 197.34) rotate(-45)"/><circle class="cls-4" cx="126.55" cy="286.79" r="10.28" transform="translate(-165.73 173.48) rotate(-45)"/><path class="cls-4" d="M424.09,68.29a2.52,2.52,0,1,1-2.52-2.52A2.51,2.51,0,0,1,424.09,68.29Z"/><path class="cls-4" d="M385.36,46.73a2.85,2.85,0,1,1-2.84-2.84A2.84,2.84,0,0,1,385.36,46.73Z"/><circle class="cls-4" cx="145.61" cy="180.96" r="2.52"/><path class="cls-4" d="M139.14,259.53a2.85,2.85,0,1,1-2.85-2.84A2.85,2.85,0,0,1,139.14,259.53Z"/><circle class="cls-4" cx="159.16" cy="334.7" r="2.84"/><path class="cls-4" d="M607.21,261.66a2.85,2.85,0,1,1-2.85-2.84A2.85,2.85,0,0,1,607.21,261.66Z"/><circle class="cls-4" cx="610.08" cy="135.57" r="8.97" transform="translate(337.97 698.18) rotate(-76.72)"/><circle class="cls-4" cx="632.69" cy="298.97" r="8.97"/><path class="cls-5" d="M381.44,240.5V94.62a1,1,0,0,0-1.89,0V240.5a1,1,0,0,0,1.89,0Z"/><path class="cls-5" d="M352.73,158.16H502.81a1,1,0,0,0,0-1.89H352.73a1,1,0,0,0,0,1.89Z"/><path class="cls-5" d="M503.28,156.14l-6-4.4-.84-.62a1,1,0,0,0-1.29.34,1,1,0,0,0,.34,1.3l6,4.4.84.61a.94.94,0,1,0,.95-1.63Z"/><path class="cls-5" d="M502.33,156.14c-2.47,1.34-5,2.67-7.34,4.19a.95.95,0,1,0,1,1.63c2.37-1.51,4.86-2.85,7.33-4.19,1.08-.58.12-2.21-.95-1.63Z"/><path class="cls-5" d="M449,184.14v6.54a1,1,0,0,0,1.9,0v-6.54a1,1,0,1,0-1.9,0Z"/><path class="cls-5" d="M449,195.3v6.55a.95.95,0,0,0,1.9,0V195.3a.95.95,0,0,0-1.9,0Z"/><path class="cls-5" d="M449,173.3v6.55a.95.95,0,0,0,1.9,0V173.3a1,1,0,0,0-1.9,0Z"/><path class="cls-5" d="M449,162.78v6.55a1,1,0,0,0,1.9,0v-6.55a1,1,0,1,0-1.9,0Z"/><path class="cls-5" d="M381.43,199c7.05-5.87,16.79-8.24,25.84-7.17s17.08,6.44,25.69,9.29a125,125,0,0,0,29.64,6,105,105,0,0,0,30-1.72,44.33,44.33,0,0,0,15-6.37c2.08-1.36,4.32-2.61,6.29-4.11.71-.54,1.38-1.14,2.07-1.71.32-.27.63-.55,1-.8.11-.09.25-.16.35-.26s.51-.2.14-.16c1.2-.15,1.21-2,0-1.89s-2.25,1.3-3.15,2.06a42.94,42.94,0,0,1-4.64,3.26c-4.4,2.88-8.61,5.58-13.68,7.14A72.39,72.39,0,0,1,481,205.11a115.47,115.47,0,0,1-15.56.26,121.58,121.58,0,0,1-30.59-5.64c-8.84-2.82-17-8.19-26.23-9.61-10-1.52-20.71,1.08-28.48,7.55-.94.78.4,2.11,1.34,1.34Z"/><path class="cls-5" d="M381.69,180.93l18.07-18.07a1,1,0,0,0-1.34-1.34L380.35,179.6a.94.94,0,0,0,1.34,1.33Z"/><path class="cls-5" d="M382.05,195.08,408,169.18q3.29-3.3,6.58-6.58a1,1,0,0,0-1.34-1.34l-25.9,25.9-6.58,6.58a.94.94,0,0,0,1.33,1.34Z"/><path class="cls-5" d="M402.46,190.58,430,163a1,1,0,0,0-1.34-1.34l-27.54,27.54a1,1,0,0,0,1.34,1.34Z"/><path class="cls-5" d="M415,193.2l29.11-29.11a1,1,0,0,0-1.34-1.34l-.92.92a1,1,0,0,0,1.34,1.34c.3-.31.61-.62.92-.92l-1.34-1.34L413.7,191.86A1,1,0,0,0,415,193.2Z"/><path class="cls-5" d="M429,198.35q8.39-8.39,16.76-16.76a1,1,0,0,0-1.34-1.34q-8.37,8.38-16.76,16.76a1,1,0,0,0,1.34,1.34Z"/><path class="cls-5" d="M380.35,99.74l44.89,44.9L438,157.36a1,1,0,0,0,1.34-1.34l-44.9-44.89L381.69,98.4a1,1,0,0,0-1.34,1.34Z"/><path class="cls-5" d="M409.3,127c13.54,0,27.06.77,40.6.78a1,1,0,0,0,0-1.89c-13.54,0-27.06-.78-40.6-.79a1,1,0,0,0,0,1.9Z"/><path class="cls-5" d="M445,123.46l5.49,3,.8.43a.95.95,0,0,0,.95-1.64l-5.49-3-.79-.43a.95.95,0,1,0-1,1.63Z"/><path class="cls-5" d="M451.06,125.38l-4.72,4-.66.56a1,1,0,0,0,0,1.34,1,1,0,0,0,1.34,0l4.72-4,.66-.56a1,1,0,0,0,0-1.34,1,1,0,0,0-1.34,0Z"/><path class="cls-5" d="M450.57,211.32a1.44,1.44,0,0,0,.4-1.89,2.43,2.43,0,0,0-1.81-.86,5.32,5.32,0,0,0-4.44,1c-1.53,1.41-1.33,3.62-.63,5.38.59,1.5,1.31,2.94,1.81,4.47.37,1.12,1.23,3.52-.14,4.29a1,1,0,0,0,.95,1.64c2.79-1.57,1.41-5.54.51-7.83-.48-1.21-1.1-2.39-1.5-3.61a3.62,3.62,0,0,1-.17-2.27,1.9,1.9,0,0,1,.64-.84,1.2,1.2,0,0,1,.69-.32,6.14,6.14,0,0,1,2-.06l.58.12c.08,0,.05.12.05,0s-.13-.26-.13-.27c-.09-.33.22-.59-.11-.3-.91.81.43,2.15,1.34,1.34Z"/><path class="cls-5" d="M439.69,218.4c2.72,0,5.41-.52,8.11-.78a1,1,0,0,0,.95-1,1,1,0,0,0-.95-.95c-2.7.27-5.39.76-8.11.79a1,1,0,0,0,0,1.89Z"/><path class="cls-5" d="M452.13,212.75a23.72,23.72,0,0,0-1.66,6.87,8,8,0,0,0,2.69,6.36c.9.82,2.24-.51,1.34-1.34a6.3,6.3,0,0,1-2.12-5.36,23.36,23.36,0,0,1,1.58-6c.4-1.16-1.43-1.65-1.83-.51Z"/><path class="cls-5" d="M454.14,220.11a33.71,33.71,0,0,0,5.5,3.66.94.94,0,1,0,.95-1.63,34.65,34.65,0,0,1-5.5-3.67,1,1,0,0,0-1.29.34,1,1,0,0,0,.34,1.3Z"/><path class="cls-5" d="M456.05,224a8.07,8.07,0,0,1,.52-1.2c.22-.44.47-.87.72-1.29.51-.84,1-1.66,1.55-2.52a.95.95,0,0,0-1.64-.95,32.8,32.8,0,0,0-3,5.46,1,1,0,0,0,.66,1.17,1,1,0,0,0,1.16-.67Z"/><path class="cls-5" d="M458.07,211.2a15.78,15.78,0,0,1,5.21,7.9c.93,2.89,1.36,6.33,0,9.14-.55,1.09,1.08,2,1.63,1,1.65-3.28,1.34-7.2.25-10.61a17.83,17.83,0,0,0-6.09-9c-1-.72-1.93.92-.95,1.63Z"/><path class="cls-5" d="M352.37,242.34a.17.17,0,0,1,0-.1l0,.25s0,0,0-.06l-.1.23,0,0-.15.19s0,0,0,0l-.2.15,0,0-.22.09h.06l-.26,0h.1a.69.69,0,0,0,.37-.08.67.67,0,0,0,.3-.19.79.79,0,0,0,.2-.31.73.73,0,0,0,.08-.36l0-.26a.91.91,0,0,0-.25-.41l-.19-.15a.91.91,0,0,0-.48-.13h-.05l-.3,0h0l-.25.1h0l-.19.15h0v0l-.16.2v0h0l-.1.23h0v0a2.36,2.36,0,0,0,0,.28v.09a.74.74,0,0,0,.09.36.78.78,0,0,0,.5.5.74.74,0,0,0,.36.09l.25,0a.89.89,0,0,0,.42-.24l.15-.19a1,1,0,0,0,.13-.48Z"/><path class="cls-5" d="M354.83,243.29h4.45a.95.95,0,1,0,0-1.9h-4.45a1,1,0,1,0,0,1.9Z"/><path class="cls-5" d="M363,242.76h4.71a.95.95,0,1,0,0-1.89H363a.95.95,0,1,0,0,1.89Z"/><path class="cls-5" d="M371.33,243h4.19a.95.95,0,0,0,0-1.89h-4.19a.95.95,0,1,0,0,1.89Z"/><path class="cls-5" d="M353.68,236.58V229.5a1,1,0,0,0-1.9,0v7.08a1,1,0,0,0,1.9,0Z"/><path class="cls-5" d="M353.42,221.91v-8.12a1,1,0,0,0-1.9,0v8.12a1,1,0,0,0,1.9,0Z"/><path class="cls-5" d="M353.94,208.29v-5.76a.95.95,0,1,0-1.89,0v5.76a1,1,0,0,0,.94,1,1,1,0,0,0,.95-1Z"/><path class="cls-5" d="M354.73,197.29V191a1,1,0,0,0-1.9,0v6.29a.95.95,0,0,0,1.9,0Z"/><path class="cls-5" d="M355,183.15v-5a1,1,0,0,0-.95-.95,1,1,0,0,0-1,.95v5a1,1,0,0,0,1.9,0Z"/><path class="cls-5" d="M355,173.72v-4.46a1,1,0,0,0-1.9,0v4.46a1,1,0,0,0,1.9,0Z"/><path class="cls-5" d="M354.73,166.65v-5a1,1,0,0,0-1-.95,1,1,0,0,0-.95.95v5a1,1,0,0,0,1.9,0Z"/><path class="cls-5" d="M350.49,251.91c2.75,3.06,4.65,6.76,7.1,10l.82-1.43c-4.14.36-8.31.53-12.4,1.3l1.16,1.16c1.33-4,4.39-7.3,6.38-11,.58-1.07-1.06-2-1.64-.95-2.07,3.86-5.18,7.24-6.56,11.46a1,1,0,0,0,1.16,1.16c3.93-.73,7.93-.88,11.9-1.23.63-.05,1.28-.79.81-1.42-2.54-3.42-4.53-7.24-7.39-10.43-.82-.91-2.15.44-1.34,1.34Z"/><path class="cls-5" d="M358.08,254c2.19,2.53,3.63,5.73,5.3,8.61a1,1,0,0,0,1.73-.23c.84-4,1.52-8.12,2.15-12.2a1,1,0,0,0-.66-1.17,1,1,0,0,0-1.16.66c-.64,4.08-1.32,8.16-2.16,12.21l1.73-.23c-1.75-3-3.28-6.32-5.59-9-.79-.92-2.13.42-1.34,1.34Z"/><path class="cls-5" d="M368.81,259.62v4.64a1,1,0,0,0,.94.95,1,1,0,0,0,.95-.95v-.71a.95.95,0,0,0-1.89,0v.71a1,1,0,0,0,.94.95,1,1,0,0,0,.95-.95v-4.64a.95.95,0,0,0-1.89,0Z"/><path class="cls-5" d="M369,254.29a1,1,0,0,0,0-1.9,1,1,0,0,0,0,1.9Z"/><polygon class="cls-6" points="245.53 190.77 245.53 190.77 246.32 189.21 246.32 189.21 246.32 189.21 245.53 190.77"/><rect class="cls-6" x="242.84" y="190.45" height="1.75"/><polygon class="cls-6" points="245.53 190.77 246.32 189.21 246.32 189.21 241.85 182.34 241.05 183.9 241.05 183.9 241.05 183.9 245.53 190.77"/><polygon class="cls-6" points="243.24 190.54 243.24 190.54 243.24 190.54 240.11 185.74 240.11 185.74 243.24 190.54"/><polygon class="cls-6" points="241.38 194.18 240.58 195.73 240.58 195.73 241.38 194.18 241.38 194.18 241.38 194.18"/><polygon class="cls-6" points="242.44 192.1 243.24 190.54 243.24 190.54 240.11 185.74 240.11 185.74 239.32 187.3 239.32 187.3 242.44 192.1"/><polygon class="cls-6" points="241.38 194.18 241.38 194.18 238.25 189.37 241.38 194.18"/><polygon class="cls-6" points="239.53 197.8 238.73 199.36 238.73 199.36 239.53 197.8 239.53 197.8 239.53 197.8"/><polygon class="cls-6" points="240.58 195.73 241.38 194.18 241.38 194.18 238.25 189.37 237.46 190.93 237.46 190.93 240.58 195.73"/><rect class="cls-6" x="237.96" y="192.53" height="5.73"/><polygon class="cls-6" points="236.87 202.99 237.67 201.43 237.67 201.43 237.67 201.43 236.87 202.99"/><polygon class="cls-6" points="238.73 199.36 239.53 197.8 239.53 197.8 236.4 193 236.4 193 235.6 194.56 235.6 194.56 235.6 194.56 238.73 199.36"/><rect class="cls-6" x="230.37" y="194.68" width="5.23"/><polygon class="cls-6" points="236.26 208.89 237.06 207.32 237.06 207.32 237.06 207.32 236.26 208.89"/><polygon class="cls-6" points="236.87 202.99 237.67 201.43 237.67 201.43 234.54 196.63 233.74 198.19 236.87 202.99"/><polygon class="cls-6" points="232.59 200.45 237.06 207.32 237.06 207.32 232.59 200.45 227.36 200.7 227.36 200.7 232.59 200.45"/><polygon class="cls-6" points="232.9 210.75 233.69 209.19 232.9 210.75 232.9 210.75"/><polygon class="cls-6" points="236.26 208.89 237.06 207.32 237.06 207.32 232.59 200.45 231.79 202.02 231.79 202.02 231.79 202.02 236.26 208.89"/><polygon class="cls-6" points="233.69 209.19 230.57 204.39 230.57 204.39 233.69 209.19"/><polygon class="cls-6" points="231.84 212.83 231.04 214.39 231.04 214.39 231.84 212.83 231.84 212.83 231.84 212.83"/><polygon class="cls-6" points="232.9 210.75 233.69 209.19 230.57 204.39 230.57 204.39 229.77 205.95 229.77 205.95 232.9 210.75"/><polygon class="cls-7" points="229.39 323.79 234.62 323.54 232.51 237.48 227.53 247.68 229.39 323.79"/><rect class="cls-6" x="230.27" y="207.56" height="5.73"/><polygon class="cls-6" points="229.18 218.01 229.18 218.01 229.98 216.45 229.98 216.45 229.98 216.45 229.18 218.01"/><polygon class="cls-6" points="231.04 214.39 231.84 212.83 231.84 212.83 228.71 208.03 228.71 208.03 227.91 209.59 227.91 209.59 231.04 214.39"/><polygon class="cls-6" points="227.32 221.64 227.32 221.64 228.12 220.08 228.12 220.08 228.12 220.08 227.32 221.64"/><polygon class="cls-6" points="229.18 218.01 229.98 216.45 229.98 216.45 226.86 211.65 226.06 213.21 226.06 213.21 226.06 213.21 229.18 218.01"/><rect class="cls-6" x="226.23" y="226.75" width="1.76"/><polygon class="cls-6" points="227.32 221.64 228.12 220.08 228.12 220.08 225 215.28 224.2 216.84 224.2 216.84 224.2 216.84 227.32 221.64"/><polygon class="cls-6" points="227.52 225.97 227.52 225.97 227.52 225.97 223.04 219.1 223.04 219.1 227.52 225.97"/><polygon class="cls-6" points="223.35 229.41 224.15 227.85 223.35 229.41 223.35 229.41"/><polygon class="cls-6" points="226.71 227.54 227.52 225.97 227.52 225.97 223.04 219.1 223.04 219.1 222.24 220.67 222.24 220.67 226.71 227.54"/><polygon class="cls-6" points="224.15 227.85 221.03 223.05 221.01 223.05 221.03 223.05 224.15 227.85"/><polygon class="cls-6" points="222.29 231.48 221.49 233.04 221.5 233.04 222.29 231.48 222.29 231.48 222.29 231.48"/><polygon class="cls-6" points="223.35 229.41 224.15 227.85 221.03 223.05 220.23 224.6 220.23 224.6 220.23 224.6 223.35 229.41"/><polygon class="cls-6" points="222.29 231.48 222.29 231.48 219.17 226.68 219.15 226.68 219.17 226.68 222.29 231.48"/><polygon class="cls-6" points="219.64 236.66 220.44 235.1 220.44 235.1 220.44 235.1 219.64 236.66"/><polygon class="cls-6" points="221.49 233.04 222.29 231.48 222.29 231.48 219.17 226.68 218.37 228.24 220.19 231.03 221.49 233.04"/><polygon class="cls-6" points="217.78 240.29 217.78 240.29 218.58 238.74 218.58 238.74 218.58 238.74 217.78 240.29"/><polygon class="cls-6" points="219.64 236.66 220.44 235.1 220.44 235.1 217.31 230.3 216.51 231.86 216.51 231.86 219.64 236.66"/><rect class="cls-6" x="217.57" y="244.53" height="1.76"/><polygon class="cls-6" points="217.78 240.29 218.58 238.74 218.58 238.74 215.45 233.94 214.66 235.5 214.66 235.5 217.78 240.29"/><polygon class="cls-6" points="217.97 244.62 217.97 244.62 217.97 244.62 213.5 237.75 213.5 237.75 217.97 244.62"/><polygon class="cls-6" points="213.81 248.06 213.81 248.06 214.61 246.5 214.61 246.5 214.61 246.5 213.81 248.06"/><polygon class="cls-6" points="217.17 246.19 217.97 244.62 217.97 244.62 213.5 237.75 213.5 237.75 212.7 239.32 212.7 239.32 217.17 246.19"/><polygon class="cls-6" points="211.95 251.69 211.95 251.69 212.75 250.12 212.75 250.12 212.75 250.12 211.95 251.69"/><polygon class="cls-6" points="213.81 248.06 214.61 246.5 214.61 246.5 211.48 241.7 210.68 243.26 210.68 243.26 210.68 243.26 213.81 248.06"/><polygon class="cls-6" points="210.1 255.31 210.89 253.75 210.1 255.31 210.1 255.31"/><polygon class="cls-6" points="211.95 251.69 212.75 250.12 212.75 250.12 209.63 245.32 208.82 246.89 208.83 246.89 211.95 251.69"/><polygon class="cls-6" points="208.24 258.95 209.03 257.39 208.24 258.95 208.24 258.95"/><polygon class="cls-6" points="210.1 255.31 210.89 253.75 207.77 248.96 207.77 248.95 207.77 248.95 206.97 250.51 206.97 250.51 210.1 255.31"/><polygon class="cls-6" points="208.43 263.27 207.63 264.83 207.63 264.83 208.43 263.27 208.43 263.27 208.43 263.27"/><polygon class="cls-6" points="209.03 257.39 205.91 252.59 205.9 252.59 205.91 252.59 209.03 257.39"/><polygon class="cls-6" points="208.24 258.95 209.03 257.39 205.91 252.59 205.11 254.15 205.11 254.15 208.24 258.95"/><rect class="cls-6" x="206.19" y="255.74" height="8.2"/><polygon class="cls-6" points="204.27 266.71 205.06 265.15 205.06 265.15 205.06 265.15 204.27 266.71"/><polygon class="cls-6" points="207.63 264.83 208.43 263.27 208.43 263.27 203.96 256.4 203.96 256.4 203.16 257.96 203.16 257.96 207.63 264.83"/><rect class="cls-6" x="201.93" y="269.56" width="1.76"/><polygon class="cls-6" points="204.27 266.71 205.06 265.15 205.06 265.15 201.94 260.35 201.14 261.91 201.14 261.91 204.27 266.71"/><polygon class="cls-6" points="203.21 268.77 203.21 268.77 203.21 268.77 200.08 263.97 200.08 263.97 203.21 268.77"/><polygon class="cls-6" points="201.35 272.41 200.55 273.97 200.55 273.97 201.35 272.41 201.35 272.41 201.35 272.41"/><polygon class="cls-6" points="202.41 270.34 203.21 268.77 203.21 268.77 200.08 263.97 200.08 263.97 199.28 265.54 199.28 265.54 199.28 265.54 202.41 270.34"/><rect class="cls-6" x="199.79" y="267.14" height="5.73" transform="translate(-132.41 220.35) rotate(-45)"/><polygon class="cls-6" points="199.49 276.04 198.69 277.6 198.69 277.6 199.49 276.04 199.49 276.04 199.49 276.04"/><polygon class="cls-6" points="200.55 273.97 201.35 272.41 201.35 272.41 198.22 267.61 198.22 267.61 197.43 269.17 197.43 269.17 200.55 273.97"/><polygon class="cls-6" points="198.09 283.49 198.09 283.49 198.88 281.93 198.88 281.93 198.88 281.93 198.09 283.49"/><polygon class="cls-6" points="199.49 276.04 199.49 276.04 196.37 271.24 199.49 276.04"/><polygon class="cls-6" points="190.34 273.05 190.34 273.05 190.34 273.05 190.34 273.05"/><polygon class="cls-6" points="198.69 277.6 199.49 276.04 199.49 276.04 196.37 271.24 195.57 272.8 195.57 272.8 198.69 277.6"/><rect class="cls-6" x="194.25" y="284.58" width="1.75" transform="translate(-146.68 331.83) rotate(-63.43)"/><polygon class="cls-6" points="198.09 283.49 198.88 281.93 198.88 281.93 194.41 275.06 193.62 276.62 193.62 276.62 198.09 283.49"/><polygon class="cls-6" points="195.52 283.8 195.52 283.8 195.52 283.8 194.21 281.79 195.52 283.8"/><polygon class="cls-6" points="192.86 288.99 193.66 287.43 192.86 288.99 192.86 288.99"/><polygon class="cls-6" points="194.72 285.36 195.52 283.8 195.52 283.8 194.21 281.79 192.39 279 192.39 279 192.39 279 191.6 280.56 191.6 280.56 194.72 285.36"/><polygon class="cls-6" points="193.66 287.43 190.54 282.63 190.53 282.63 190.54 282.63 193.66 287.43"/><polygon class="cls-6" points="191.81 291.06 191.81 291.06 191.01 292.62 191.81 291.06 191.81 291.06"/><polygon class="cls-6" points="192.86 288.99 193.66 287.43 190.54 282.63 189.74 284.19 189.74 284.19 192.86 288.99"/><rect class="cls-6" x="190.24" y="285.79" height="5.73"/><polygon class="cls-6" points="189.15 296.25 189.15 296.25 189.15 296.25 189.95 294.69 189.95 294.69 189.95 294.69 189.15 296.25"/><polygon class="cls-6" points="191.81 291.06 188.68 286.26 188.68 286.26 187.88 287.82 191.01 292.62 191.81 291.06 191.81 291.06"/><polygon class="cls-6" points="188.54 302.14 188.54 302.14 189.34 300.58 189.34 300.58 189.34 300.58 188.54 302.14"/><polygon class="cls-6" points="187.33 293.46 189.15 296.25 189.95 294.69 189.95 294.69 186.82 289.89 186.03 291.45 186.03 291.45 186.03 291.45 187.33 293.46"/><polygon class="cls-6" points="187.33 293.46 189.15 296.25 189.15 296.25 187.33 293.46"/><polygon class="cls-6" points="185.98 302.45 185.18 304.01 185.18 304.01 185.98 302.45 185.98 302.45 185.98 302.45"/><polygon class="cls-6" points="188.54 302.14 189.34 300.58 189.34 300.58 184.87 293.71 184.07 295.27 184.07 295.27 184.07 295.27 188.54 302.14"/><polygon class="cls-6" points="185.98 302.45 185.98 302.45 182.85 297.65 182.84 297.65 182.85 297.65 185.98 302.45"/><polygon class="cls-6" points="183.32 307.65 183.32 307.65 184.12 306.08 184.12 306.08 184.12 306.08 183.32 307.65"/><polygon class="cls-6" points="185.18 304.01 185.98 302.45 185.98 302.45 182.85 297.65 182.05 299.21 182.05 299.21 185.18 304.01"/><polygon class="cls-6" points="181.47 311.27 182.26 309.71 181.47 311.27 181.47 311.27"/><polygon class="cls-6" points="183.32 307.65 184.12 306.08 184.12 306.08 181 301.28 180.19 302.85 180.19 302.85 183.32 307.65"/><polygon class="cls-6" points="179.61 314.9 179.61 314.9 180.41 313.34 180.41 313.34 180.41 313.34 179.61 314.9"/><polygon class="cls-6" points="181.47 311.27 182.26 309.71 179.14 304.91 178.34 306.47 178.34 306.47 178.34 306.47 181.47 311.27"/><polygon class="cls-6" points="173.11 306.72 173.11 306.72 173.11 306.72 173.11 306.72"/><polygon class="cls-6" points="173.13 306.72 178.34 306.47 178.34 306.47 173.13 306.72"/><rect class="cls-6" x="178.52" y="320.01" width="1.75"/><polygon class="cls-6" points="179.61 314.9 180.41 313.34 180.41 313.34 177.28 308.54 176.48 310.1 179.61 314.9"/><polygon class="cls-6" points="179.8 319.23 179.8 319.23 179.8 319.23 179.8 319.23"/><polygon class="cls-6" points="177.2 315.24 175.32 312.36 175.32 312.36 177.2 315.24"/><polygon class="cls-6" points="175.63 322.67 175.63 322.67 176.43 321.11 176.43 321.11 176.43 321.11 175.63 322.67"/><polygon class="cls-6" points="179 320.79 179.8 319.23 179.8 319.23 177.2 315.24 175.32 312.36 175.32 312.36 174.53 313.92 174.53 313.92 179 320.79"/><polygon class="cls-6" points="174.58 324.73 174.58 324.73 174.58 324.73 173.78 326.3 173.78 326.3 173.78 326.3 174.58 324.73"/><polygon class="cls-6" points="175.63 322.67 176.43 321.11 176.43 321.11 173.31 316.31 172.51 317.87 172.51 317.87 175.63 322.67"/><polygon class="cls-6" points="171.92 329.92 171.92 329.92 172.72 328.36 172.72 328.36 172.72 328.36 171.92 329.92"/><polygon class="cls-6" points="174.58 324.73 171.45 319.93 170.65 321.5 173.78 326.3 174.58 324.73 174.58 324.73"/><polygon class="cls-6" points="170.65 321.5 173.78 326.3 173.78 326.3 170.65 321.5 165.42 321.75 165.42 321.75 165.42 321.75 170.65 321.5"/><polygon class="cls-6" points="170.86 331.99 170.06 333.56 170.06 333.56 170.87 331.99 170.86 331.99 170.86 331.99"/><polygon class="cls-6" points="171.92 329.92 172.72 328.36 172.72 328.36 169.59 323.56 168.8 325.12 168.8 325.12 171.92 329.92"/><polygon class="cls-6" points="170.25 337.88 169.46 339.44 169.46 339.44 170.25 337.88 170.25 337.88 170.25 337.88"/><rect class="cls-6" x="169.3" y="326.72" height="5.73"/><polygon class="cls-6" points="170.06 333.56 170.86 331.99 170.86 331.99 167.74 327.19 167.74 327.19 166.94 328.75 166.94 328.75 170.06 333.56"/><polygon class="cls-6" points="170.25 337.88 170.25 337.88 165.78 331.01 165.77 331.01 165.78 331.01 170.25 337.88"/><polygon class="cls-6" points="166.09 341.32 166.09 341.32 166.89 339.76 166.89 339.76 166.89 339.76 166.09 341.32"/><polygon class="cls-6" points="169.46 339.44 170.25 337.88 170.25 337.88 165.78 331.01 164.98 332.57 164.98 332.57 169.46 339.44"/><polygon class="cls-6" points="164.24 344.94 164.24 344.94 165.03 343.38 165.03 343.38 165.03 343.38 164.24 344.94"/><polygon class="cls-6" points="166.09 341.32 166.89 339.76 166.89 339.76 163.76 334.96 162.97 336.52 162.97 336.52 162.97 336.52 166.09 341.32"/><rect class="cls-6" x="162.78" y="346.92" height="1.75"/><polygon class="cls-6" points="164.24 344.94 165.03 343.38 165.03 343.38 161.91 338.58 161.11 340.14 161.11 340.14 164.24 344.94"/><polygon class="cls-6" points="163.18 347.02 163.18 347.02 163.18 347.02 163.18 347.02"/><polygon class="cls-6" points="161.32 350.64 160.52 352.21 160.52 352.21 161.32 350.64 161.32 350.64 161.32 350.64"/><polygon class="cls-6" points="162.38 348.57 163.18 347.02 163.18 347.02 160.05 342.21 160.05 342.21 160.05 342.21 159.25 343.77 159.25 343.77 162.38 348.57"/><polygon class="cls-6" points="159.91 358.09 159.91 358.09 160.71 356.54 160.71 356.54 160.71 356.54 159.91 358.09"/><polygon class="cls-6" points="161.32 350.64 161.32 350.64 158.19 345.84 158.18 345.84 158.19 345.84 161.32 350.64"/><polygon class="cls-6" points="160.52 352.21 161.32 350.64 161.32 350.64 158.19 345.84 157.39 347.41 157.39 347.41 160.52 352.21"/><polygon class="cls-6" points="150.21 351.48 150.21 351.48 150.21 351.48 150.21 351.48"/><polygon class="cls-6" points="159.91 358.09 160.71 356.54 160.71 356.54 156.24 349.67 155.44 351.23 155.44 351.23 159.91 358.09"/><path class="cls-8" d="M254.92,347.59l-1-58.69-.78-46.47-.84-49.49-.5-30-9.94,19.44,4.46,6.86-.79,1.56-4.48-6.86-.94,1.83,3.12,4.8-.79,1.56-3.12-4.79-1.07,2.06,3.12,4.8-.79,1.56-3.12-4.8L236.4,193l3.13,4.8-.81,1.56-3.12-4.8-1.06,2.07,3.13,4.81-.8,1.55-3.13-4.8-1.15,2.26,4.47,6.87-.81,1.57L231.79,202l-1.22,2.39,3.12,4.8-.79,1.56L229.77,206,228.71,208l3.12,4.8-.79,1.56-3.13-4.8-1.06,2.06,3.14,4.8-.81,1.56-3.12-4.81L225,215.28l3.14,4.8-.81,1.56-3.12-4.8L223,219.1l4.48,6.87-.81,1.57-4.47-6.87L221,223l3.14,4.8-.81,1.56-3.12-4.8-1.06,2.08,3.13,4.8-.81,1.56-1.31-2-1.81-2.79-1.06,2.06,3.13,4.81-.8,1.55-3.13-4.8-1.06,2.08,3.13,4.8-.8,1.56-3.12-4.8-1.16,2.25,4.47,6.87-.79,1.57-4.48-6.87-1.22,2.38,3.12,4.8-.79,1.56-3.12-4.8-1.06,2.06,3.13,4.8-.81,1.56-3.12-4.79L207.77,249l3.13,4.8-.81,1.56-3.12-4.8-1.06,2.08,3.13,4.8-.81,1.56-3.12-4.81L204,256.4l4.47,6.88-.79,1.55L203.16,258l-1.22,2.39,3.12,4.8-.8,1.56-3.12-4.8L200.08,264l3.12,4.8-.79,1.56-3.13-4.8-1.06,2.07,3.14,4.8-.81,1.56-3.12-4.8-1.07,2.06L199.5,276l-.81,1.55-3.12-4.79-1.16,2.26,4.48,6.86-.81,1.56-4.46-6.86L192.39,279l1.83,2.79,1.3,2-.8,1.56-3.12-4.81-1.06,2.06,3.12,4.8-.8,1.57-3.12-4.79-1.06,2.06,3.12,4.8-.79,1.56-3.13-4.8-1.06,2.07,3.12,4.8-.79,1.56-1.81-2.79-1.31-2-1.16,2.26,4.47,6.87-.8,1.56-4.47-6.87-1.22,2.38,3.12,4.8-.79,1.56-3.12-4.8L181,301.28l3.13,4.8-.8,1.57-3.12-4.8-1.06,2.06,3.12,4.81-.8,1.55-3.12-4.8-1.06,2.06,3.13,4.8-.81,1.57-3.12-4.79-1.16,2.25,1.88,2.88,2.6,4-.8,1.56-4.47-6.87-1.22,2.38,3.12,4.8-.8,1.56-3.12-4.79-1.06,2.06,3.12,4.8-.8,1.57-3.12-4.81-1.06,2.07,3.12,4.8-.79,1.56-3.12-4.8-1.06,2.07,3.13,4.8-.81,1.57-3.12-4.81L165.78,331l4.48,6.88-.81,1.55L165,332.57,163.76,335l3.13,4.8-.8,1.56-3.12-4.8-1.06,2.07,3.12,4.8-.79,1.56h0l-3.12-4.81-1.06,2.07,3.12,4.8-.79,1.56-3.13-4.79-1.06,2.06,3.14,4.8-.81,1.56-3.13-4.8-1.15,2.27,4.47,6.86-.8,1.56-4.47-6.86-10.19,19.89,14.35-2.26,38.6-6.08,18.33-2.9,35.31-5.57,3.18-.5Zm-38.85-24L187.61,327l.2-.39,39.78-77.73,5-9.78,1.07,46,.85,36.36Z"/><path class="cls-9" d="M251.8,162.91,145.26,371.12l-5.23.25L246.57,163.16Z"/><polygon class="cls-10" points="166.89 339.76 163.76 334.96 166.89 339.76 166.89 339.76"/><polygon class="cls-11" points="253.14 242.43 233.66 285.09 232.59 239.06 227.59 248.84 187.81 326.57 187.62 326.96 216.07 323.62 198.2 362.77 159.6 368.86 252.3 192.94 253.14 242.43"/><polygon class="cls-12" points="254.92 347.59 251.84 354.31 216.53 359.88 253.92 288.9 254.92 347.59"/><path class="cls-13" d="M210.5,283.75a4,4,0,0,1-.13.42l-.09.3-.09.2a6.25,6.25,0,0,1-.32.71c0,.09-.09.18-.14.27a12.17,12.17,0,0,1-.62,1.07c-.32.5-.67,1-1,1.49l-.3.39c-.38.51-.78,1-1.22,1.52a26.32,26.32,0,0,1-3.23,3.19,17.25,17.25,0,0,1-1.71,1.28,11.29,11.29,0,0,1-1.6.89h0l3.31-.84a14.37,14.37,0,0,0,3.31-2.16,26.32,26.32,0,0,0,3.23-3.19c.44-.51.84-1,1.23-1.52l.29-.39.3-.4c.26-.37.51-.73.74-1.09s.44-.72.63-1.07l.07-.13a.84.84,0,0,0,.06-.14,6.25,6.25,0,0,0,.32-.71l.07-.15,0-.05.09-.3.1-.3,0-.12h0Z"/><polygon class="cls-13" points="235.67 301.99 219.63 266.23 216.32 267.06 232.36 302.82 235.67 301.99"/><polygon class="cls-13" points="245.94 297.33 242.63 298.16 246.93 307.78 214.14 322.64 217.45 321.81 250.24 306.95 245.94 297.33"/><path class="cls-5" d="M216.32,267.06l16,35.76,10.26-4.66,4.31,9.62-32.79,14.86L209.83,313l11.47-5.19-10.8-24.08a9.76,9.76,0,0,1-1.39,3,30.86,30.86,0,0,1-2.56,3.4,26.32,26.32,0,0,1-3.23,3.19,14.44,14.44,0,0,1-3.31,2.17l-4.45-9.94A10.13,10.13,0,0,0,198.7,283a33.55,33.55,0,0,0,3.14-4,39.11,39.11,0,0,0,2.43-4.11,7.49,7.49,0,0,0,1-2.79Z"/><path class="cls-14" d="M230.21,209.44c.3-.57.62-1.13,1-1.68a13.3,13.3,0,0,1,.87-1.25l.26-.35c.33-.41.67-.81,1-1.21a14.86,14.86,0,0,1,2.81-2.35,12.71,12.71,0,0,1,3.6-1.58l.31-.08-3.31.83-.31.09a12.42,12.42,0,0,0-3.6,1.57,14.86,14.86,0,0,0-2.81,2.35c-.37.4-.71.8-1,1.21l-.26.35c-.1.13-.21.26-.3.39-.2.28-.39.57-.57.86-.35.55-.67,1.11-1,1.68a.64.64,0,0,1-.08.14h0c-.2.4-.39.79-.57,1.19l3.31-.83C229.76,210.33,230,209.88,230.21,209.44Z"/><path class="cls-14" d="M238.75,190.81l1.09-.18.65-.08.94-.1.66,0c.39,0,.78,0,1.17,0h.64c.47,0,.92.06,1.38.1s.88.11,1.3.18l.63.1c.34.07.67.15,1,.24s.44.1.65.17.58.2.87.31.49.17.73.27a14.13,14.13,0,0,1,1.4.71l.12.08a12.69,12.69,0,0,1,1.42,1l.63.52.31.28a12.87,12.87,0,0,1,1,1,13.45,13.45,0,0,1,.84,1.11l.23.37c.17.27.34.55.49.83l.24.46c.13.27.26.56.38.85s.14.31.2.47c.16.43.31.87.43,1.32s.21.87.29,1.29.1.75.14,1.12c0,.13,0,.27,0,.39s0,.28,0,.42c0,.3,0,.6,0,.9,0,.12,0,.25,0,.37,0,.35-.07.7-.13,1s-.17.77-.27,1.15a14.74,14.74,0,0,1-.46,1.47c0,.1-.08.2-.12.3-.17.43-.36.86-.56,1.27-.1.21-.2.42-.31.62a24.25,24.25,0,0,1-1.37,2.18,21.08,21.08,0,0,1-1.52,1.9c-1.09,1.24-2.19,2.36-3.26,3.38-.87.83-1.8,1.75-2.78,2.74s-1.94,2.05-2.86,3.18c-.36.43-.69.87-1,1.32,0,.06-.07.12-.11.17a22.66,22.66,0,0,0-1.28,2c-.08.13-.15.26-.22.4a1,1,0,0,1-.07.15,12.55,12.55,0,0,0-.53,1.2.05.05,0,0,1,0,0h0a10.59,10.59,0,0,0-.33,1.05l0,.1c-.06.22-.11.45-.15.67h0l3.31-.83c.05-.25.11-.51.18-.77a10.59,10.59,0,0,1,.33-1l0,0a11.69,11.69,0,0,1,.53-1.21l.29-.55a21.15,21.15,0,0,1,1.28-2c.35-.51.72-1,1.12-1.5.92-1.13,1.88-2.19,2.86-3.18s1.91-1.91,2.78-2.74c1.07-1,2.17-2.14,3.26-3.38a20.56,20.56,0,0,0,1.49-1.86l0,0a24.25,24.25,0,0,0,1.37-2.18l.21-.39c0-.07.06-.15.1-.23.2-.41.39-.84.56-1.27a1.89,1.89,0,0,0,.09-.21.32.32,0,0,0,0-.09,14.74,14.74,0,0,0,.46-1.47l0-.08c.09-.35.17-.71.24-1.07,0-.14,0-.28.07-.42s0-.4.06-.61,0-.25,0-.37a.49.49,0,0,0,0-.12c0-.25,0-.52,0-.78s0-.27,0-.41v-.06c0-.11,0-.23,0-.34,0-.37-.08-.74-.14-1.12,0,0,0-.09,0-.13-.07-.38-.16-.77-.27-1.16s-.21-.73-.34-1.09c0-.08-.07-.15-.1-.23s-.12-.31-.18-.47l-.39-.86-.24-.45c-.15-.28-.32-.56-.49-.83s-.15-.25-.24-.37a13,13,0,0,0-.83-1.12c-.3-.35-.62-.67-.95-1l-.31-.28c-.15-.13-.28-.26-.43-.38l-.2-.14a12.69,12.69,0,0,0-1.42-1l-.1-.07h0a14.13,14.13,0,0,0-1.4-.71l-.15-.06c-.19-.08-.39-.14-.58-.21s-.57-.22-.87-.31l-.1,0-.55-.13c-.34-.09-.67-.18-1-.24l-.16,0c-.15,0-.32,0-.47-.06-.42-.07-.86-.13-1.3-.18l-.3,0c-.36,0-.72-.05-1.08-.06H246l-.56,0-.66,0-.94.1-.65.08-.18,0c-.3,0-.61.1-.91.16l-.54.09c-.55.11-1.11.23-1.67.38l-3.31.83c.56-.15,1.12-.27,1.67-.38Z"/><polygon class="cls-14" points="269.02 224.01 265.71 224.84 268.48 235.01 227.25 246.28 230.56 245.45 271.79 234.18 269.02 224.01"/><path class="cls-6" d="M243.26,190.37h.64a18.07,18.07,0,0,1,6.57,1.37,13.11,13.11,0,0,1,4.83,3.56,14.12,14.12,0,0,1,2.81,5.41,12.2,12.2,0,0,1,.31,5.52,16,16,0,0,1-1.72,4.81,21.61,21.61,0,0,1-2.89,4.08c-1.09,1.24-2.19,2.36-3.26,3.38-.87.83-1.8,1.75-2.78,2.74s-1.94,2.05-2.86,3.18a24.17,24.17,0,0,0-2.4,3.5,12.14,12.14,0,0,0-1.35,3.62l24.55-6.71L268.48,235l-41.23,11.27a38,38,0,0,1-1.26-7,18.41,18.41,0,0,1,.58-6.26,21.39,21.39,0,0,1,2.78-6,36.88,36.88,0,0,1,5.37-6.26c1.94-1.86,3.69-3.49,5.24-4.92s2.82-2.67,3.83-3.8a11.43,11.43,0,0,0,2.13-3.15,4.76,4.76,0,0,0,.16-3.08,5.72,5.72,0,0,0-3.23-3.75,7,7,0,0,0-3.16-.68,13.67,13.67,0,0,0-6.84,2.05,14.86,14.86,0,0,0-2.81,2.35,17.9,17.9,0,0,0-2.17,2.81,23.12,23.12,0,0,0-1.62,3l-9.62-6.31a19.56,19.56,0,0,1,2.45-3.42,30.83,30.83,0,0,1,4.13-3.93,37.49,37.49,0,0,1,5.6-3.7,33.06,33.06,0,0,1,7-2.78A28.55,28.55,0,0,1,243.26,190.37Z"/><path class="cls-13" d="M312.94,216.19c-.38,0-.75.06-1.16.06s-1,0-1.59-.07c-.33,0-.67,0-1-.08-.73-.09-1.42-.2-2.09-.33-.39-.07-.75-.17-1.11-.26s-.67-.16-1-.25l-.68-.25c-.37-.13-.74-.26-1.09-.41s-.42-.21-.63-.32c-.39-.2-.79-.39-1.15-.62a14.93,14.93,0,0,1-1.43-1c-.41-.33-.79-.69-1.17-1.06l-.32-.33c-.27-.29-.53-.59-.79-.89l-.3-.37c-.33-.43-.65-.87-.95-1.33l-3.31.83c.3.46.62.9.95,1.33l.3.37c.26.3.52.6.79.89l.32.33c.37.37.76.73,1.16,1.06h0a14.93,14.93,0,0,0,1.43,1l.49.3c.21.12.44.21.66.32s.41.22.63.32a1.76,1.76,0,0,0,.2.09c.28.12.6.22.89.32l.68.25.14,0c.26.08.56.14.84.21s.72.19,1.11.26l.16,0c.61.12,1.26.21,1.93.29l.83.08h.19c.55,0,1.09.06,1.6.06h.5c.23,0,.43,0,.65-.06s.64,0,.94-.08l.25,0c.41-.06.81-.14,1.18-.23l3.31-.83a12.15,12.15,0,0,1-1.43.25C313.58,216.15,313.26,216.17,312.94,216.19Z"/><path class="cls-13" d="M306.92,175.22a13.44,13.44,0,0,1,2-.68l-3.31.83a13.44,13.44,0,0,0-2,.68,14.48,14.48,0,0,0-5.78,4.52l3.31-.83A14.48,14.48,0,0,1,306.92,175.22Z"/><path class="cls-13" d="M313.67,189.5c-.37,0-.73.07-1.12.07s-.95,0-1.45-.07l-.9-.07-2.73-.31-3.31.83,2.73.31.73.07h.17c.5,0,1,.06,1.45.06h.48c.22,0,.43,0,.64-.06s.62,0,.91-.07l.23,0a11.07,11.07,0,0,0,1.2-.24l3.31-.83c-.45.11-.94.19-1.43.26C314.29,189.47,314,189.48,313.67,189.5Z"/><path class="cls-13" d="M335.34,180.57c0-.25,0-.5,0-.75s0-.29,0-.44,0-.26-.05-.39c0-.28-.06-.55-.1-.82s0-.28-.05-.41-.09-.4-.14-.6,0-.16-.05-.24c-.1-.37-.21-.74-.33-1.09-.05-.12-.09-.23-.13-.35a14.2,14.2,0,0,0-3.59-5.26q-.45-.42-.93-.81c-.06-.06-.14-.1-.21-.16l-.52-.39c-.26-.19-.54-.39-.82-.57s-.39-.25-.59-.37l-.42-.27-.55-.29-.44-.24c-.5-.26-1-.5-1.55-.74l-.14,0a1.7,1.7,0,0,0-.24-.09,20.92,20.92,0,0,0-2-.72l-.31-.12c-.12,0-.26-.05-.38-.09-.71-.2-1.43-.37-2.18-.52l-.34-.08-.13,0c-.76-.14-1.54-.26-2.34-.35l-1.14-.11h-.3c-.85-.06-1.7-.11-2.54-.11l-.9,0c-.64,0-1.27.05-1.9.1s-1.45.15-2.16.25l-.32.06-.42.07c-.77.13-1.53.28-2.27.47l-3.31.83c.74-.19,1.5-.34,2.27-.47l.41-.07c.81-.13,1.64-.23,2.49-.31s1.86-.12,2.8-.12,1.69.05,2.54.11l1.44.12c.8.09,1.58.21,2.34.35l.47.1c.75.15,1.47.32,2.18.52l.69.21a20.92,20.92,0,0,1,2,.72l.38.14c.53.24,1.05.48,1.55.74l.44.24c.33.18.66.37,1,.56s.4.24.59.37.56.38.82.57l.52.39c.4.31.78.63,1.14,1a13.7,13.7,0,0,1,4.05,6.7c0,.08,0,.16.05.24.08.33.14.67.19,1s.08.54.1.82,0,.55,0,.83,0,.5,0,.75c0,.45,0,.89-.07,1.34s-.08.64-.14.95-.13.72-.21,1.08l-.09.37a13.56,13.56,0,0,1-.43,1.37c-.13.36-.28.72-.44,1.07s-.24.48-.37.71a14.2,14.2,0,0,1-.94,1.55c-.14.2-.29.39-.44.58l-.23.3c-.24.29-.5.58-.77.85a13.73,13.73,0,0,1-3.9,2.8,11.44,11.44,0,0,1-1.14.48l-.16-.06-.12,0-3.31.83.32.1c.46.15.91.31,1.34.48l.45.2a12.38,12.38,0,0,1,1.21.6,3.47,3.47,0,0,1,.33.18l.35.22c.23.14.46.29.68.45l.37.28.6.47.36.32c.18.18.37.35.54.54l.33.33c.19.21.36.42.54.64l.26.31c.25.33.49.67.72,1a14.22,14.22,0,0,1,.78,1.37c.07.14.13.29.2.43.16.34.3.68.44,1,.07.19.14.39.2.58s.11.34.16.51.14.49.2.73l.12.52.09.52c.08.48.14,1,.18,1.46,0,.13,0,.26,0,.39a17.35,17.35,0,0,1,0,1.77c0,.44,0,.89-.1,1.34s-.14,1-.22,1.42c-.06.29-.11.59-.18.87s-.17.68-.27,1-.15.51-.24.76-.24.6-.37.9-.22.54-.35.81a14.7,14.7,0,0,1-.78,1.4c-.26.4-.54.78-.83,1.15-.14.18-.28.37-.43.55s-.47.52-.72.77-.3.33-.46.48-.58.51-.88.76l-.44.36a16.79,16.79,0,0,1-1.45,1,20.93,20.93,0,0,1-5.74,2.33l3.31-.83q.81-.2,1.56-.45a20.13,20.13,0,0,0,4.18-1.88,16.79,16.79,0,0,0,1.45-1l.43-.36c.31-.25.61-.5.89-.76s.31-.32.46-.47.49-.51.72-.78.29-.37.43-.55.24-.28.34-.43.33-.47.49-.72.47-.78.68-1.18c0-.07.06-.15.1-.23.13-.26.24-.53.35-.8s.2-.41.28-.63.06-.18.09-.27c.09-.25.16-.51.24-.76s.14-.43.2-.66,0-.23.07-.35c.07-.29.12-.58.18-.87s.09-.41.12-.62.08-.53.1-.8c.05-.42.08-.83.1-1.23v-.11a17.35,17.35,0,0,0,0-1.77v-.13a2.3,2.3,0,0,0,0-.26c0-.49-.1-1-.18-1.46,0-.09,0-.19,0-.27s0-.17-.05-.25l-.12-.52c-.06-.24-.12-.49-.2-.73s-.1-.34-.16-.51l-.09-.31c0-.09-.08-.18-.11-.27-.14-.34-.28-.68-.44-1-.07-.14-.13-.29-.2-.43a14.22,14.22,0,0,0-.78-1.37c-.23-.36-.47-.7-.72-1l-.26-.31c-.18-.22-.35-.43-.54-.64l-.33-.34-.54-.53-.37-.32-.25-.22-.34-.25-.37-.28c-.22-.16-.45-.31-.68-.45l-.35-.22-.1-.07-.23-.11c-.39-.22-.8-.42-1.21-.6l-.24-.12-.21-.08q-.62-.24-1.26-.45l2-.49a12.43,12.43,0,0,0,2.37-.86,13.73,13.73,0,0,0,3.9-2.8c.27-.27.53-.56.77-.85l.23-.3c.13-.17.27-.33.39-.5a.56.56,0,0,0,0-.08,14.2,14.2,0,0,0,.94-1.55,1.19,1.19,0,0,0,.09-.15c.1-.18.19-.37.28-.56s.3-.67.43-1a.43.43,0,0,1,0,0,13.56,13.56,0,0,0,.43-1.37l0-.09a2.8,2.8,0,0,1,.06-.28q.12-.54.21-1.08a2.25,2.25,0,0,0,.05-.22c0-.24.07-.48.09-.73s.06-.63.07-.95C335.35,180.83,335.34,180.7,335.34,180.57Z"/><path class="cls-5" d="M309.49,164.94a35.68,35.68,0,0,1,4,.23,28.32,28.32,0,0,1,8.08,2,20.65,20.65,0,0,1,6,3.84,14.28,14.28,0,0,1,3.59,5.26,13.62,13.62,0,0,1,.79,6.43,15.13,15.13,0,0,1-1.31,4.84,13.92,13.92,0,0,1-2.75,4,13.73,13.73,0,0,1-3.9,2.8,12.58,12.58,0,0,1-4.73,1.22,14.39,14.39,0,0,1,8.4,6.15A15.94,15.94,0,0,1,330,212.38a16.33,16.33,0,0,1-2.41,7.17,15.86,15.86,0,0,1-5.21,5.06,21.86,21.86,0,0,1-7.62,2.73,29.84,29.84,0,0,1-5.28.45,37.57,37.57,0,0,1-4.29-.25,31.75,31.75,0,0,1-11.72-3.46,21.74,21.74,0,0,1-7.87-7.15l7.58-7.46a16.5,16.5,0,0,0,5,5,18,18,0,0,0,7.73,2.44,24.24,24.24,0,0,0,2.62.15,11.69,11.69,0,0,0,5.84-1.3c2.06-1.17,3.25-3.19,3.55-6.08a8.21,8.21,0,0,0-2.54-7.29q-3-2.79-9.62-3.53l-2.46-.28.91-8.65,2.73.31a21.57,21.57,0,0,0,2.35.14,11.59,11.59,0,0,0,6.28-1.58,7.43,7.43,0,0,0,3.64-5.77,6.13,6.13,0,0,0-1.86-5.55,10.92,10.92,0,0,0-6.21-2.44,16,16,0,0,0-1.93-.11,14.13,14.13,0,0,0-5.55,1.1,14.48,14.48,0,0,0-5.78,4.52l-6.55-9a13.88,13.88,0,0,1,3.91-3.19,23.83,23.83,0,0,1,5.27-2.21,32.19,32.19,0,0,1,6.23-1.14C307.62,165,308.55,164.94,309.49,164.94Z"/><polygon class="cls-14" points="530.21 248.34 533.52 247.51 535.38 234.68 532.07 235.51 530.21 248.34"/><polygon class="cls-14" points="525.92 204.14 507.93 221.28 523.12 223.6 526.43 222.76 511.24 220.45 529.23 203.31 525.92 204.14"/><polygon class="cls-14" points="536.87 224.35 542.2 187.42 534.13 186.19 530.82 187.02 538.89 188.25 533.56 225.18 541.28 226.36 539.79 236.68 543.1 235.85 544.59 225.53 536.87 224.35"/><path class="cls-6" d="M533.56,225.18l7.72,1.18-1.49,10.32-7.72-1.17-1.86,12.83-11.75-1.79,1.84-12.83-25.63-3.88,1.48-10.26L530.82,187l8.07,1.23Zm-10.44-1.58,2.8-19.46-18,17.14,15.19,2.32"/><path class="cls-13" d="M572.18,259.28l-3.31.83a10.31,10.31,0,0,0-3.76,1.8l3.31-.83A10.31,10.31,0,0,1,572.18,259.28Z"/><path class="cls-13" d="M576.78,279.45c-.27,0-.53.05-.8.05s-.64,0-1-.05a9.5,9.5,0,0,1-1.16-.16l-.13,0q-.56-.11-1.14-.27l-.89-.28c-.48-.17-.94-.38-1.39-.59l-.83-.41c-.39-.21-.78-.43-1.15-.67l-.23-.15a15.6,15.6,0,0,1-1.4-1.06l-.29-.26a17.83,17.83,0,0,1-1.32-1.29c-.46-.51-.89-1-1.29-1.58-.13-.18-.24-.37-.37-.56-.25-.37-.51-.73-.74-1.12-.13-.23-.25-.47-.37-.71s-.39-.71-.56-1.08-.22-.54-.33-.81c-.18-.43-.36-.87-.51-1.32l-3.31.83c0,.16.11.32.16.48s.24.57.35.85.21.54.33.8.37.73.56,1.09.24.47.37.7c.23.39.49.76.74,1.13.13.18.24.37.37.55.4.54.83,1.07,1.29,1.58a17.83,17.83,0,0,0,1.32,1.29l.29.26.27.23a13.12,13.12,0,0,0,1.13.83l.23.15c.24.15.47.31.71.45l.44.22.83.41c.15.07.29.16.44.22.31.13.63.26.95.37l.75.24.15,0c.38.11.76.2,1.13.27l.11,0h0a9.5,9.5,0,0,0,1.16.16h.07c.3,0,.6,0,.89,0H573c.17,0,.34,0,.51,0l.58,0h.13c.33-.05.65-.12,1-.2l3.31-.83a10.16,10.16,0,0,1-1.1.21Z"/><path class="cls-13" d="M598.18,269.3c0-.3,0-.6,0-.9,0-.06,0-.12,0-.18a17.58,17.58,0,0,0-.27-2.06.34.34,0,0,0,0-.1c-.1-.53-.22-1.05-.37-1.56,0-.13-.08-.26-.12-.4s-.16-.56-.26-.83l-.18-.45-.17-.42c-.22-.52-.45-1-.72-1.54a20.17,20.17,0,0,0-4.94-6l-.23-.19c-.45-.37-.92-.71-1.4-1.05l-.08,0c-.45-.3-.92-.6-1.4-.88l-.18-.1-.39-.2c-.44-.24-.89-.47-1.35-.68-.16-.07-.31-.15-.47-.21a2.75,2.75,0,0,0-.3-.14c-.5-.21-1-.41-1.54-.6l-1.11-.36-.11,0c-.54-.16-1.08-.29-1.59-.39l-.09,0-.37-.05-.84-.12-.16,0-.83,0h-.34c-.14,0-.26,0-.39,0l-.61.05-.17,0a5.57,5.57,0,0,0-.71.14l-1.12.28,6.71-12.07-3.31.83-6.8,12.24,2.58-.65h.12c.24,0,.47,0,.73,0s.65,0,1,0l.84.12.46.07q.76.15,1.59.39c.4.12.81.24,1.22.39.64.23,1.25.47,1.84.74.16.06.31.14.47.21.46.21.91.44,1.35.68l.39.2c.54.31,1.07.64,1.58,1l.08,0c.56.39,1.11.8,1.63,1.24a20.17,20.17,0,0,1,4.94,6c.27.5.5,1,.72,1.54l.17.42c.16.42.31.85.44,1.29,0,.13.09.26.12.39.15.55.28,1.1.38,1.66a17.58,17.58,0,0,1,.27,2.06c0,.36,0,.72,0,1.09s0,.66,0,1-.06.65-.09,1,0,.71-.1,1.07-.11.58-.17.86-.14.83-.25,1.24c-.16.64-.34,1.29-.56,1.94-.15.43-.33.84-.5,1.26s-.39.93-.61,1.38-.42.84-.64,1.23l-.16.29c-.31.51-.64,1-1,1.47a19,19,0,0,1-1.52,1.84,19.6,19.6,0,0,1-6.73,4.58,21.2,21.2,0,0,1-2.76.9l3.31-.84a19.44,19.44,0,0,0,9.49-5.47,18,18,0,0,0,1.52-1.85,1.07,1.07,0,0,0,.14-.16c.3-.42.58-.85.85-1.3l.16-.29c.15-.27.31-.53.45-.81.07-.13.12-.28.19-.42.22-.45.42-.91.61-1.38.08-.2.17-.37.25-.57l.25-.69c.2-.6.38-1.2.53-1.79a.8.8,0,0,0,0-.15c.11-.41.18-.83.25-1.24,0-.25.12-.51.16-.76a.34.34,0,0,1,0-.1c0-.36.07-.72.1-1.07s.08-.59.09-.88v-.09C598.2,270,598.19,269.64,598.18,269.3Z"/><polygon class="cls-13" points="577.33 225.27 574.02 226.1 603.38 236.43 599.96 246.46 603.27 245.63 606.69 235.6 577.33 225.27"/><path class="cls-5" d="M574,226.1l29.36,10.33-3.42,10L578.74,239l-6.8,12.24a7.35,7.35,0,0,1,3.43-.69,15.72,15.72,0,0,1,5.1,1,23.63,23.63,0,0,1,7.34,4.1,20.17,20.17,0,0,1,4.94,6,18.4,18.4,0,0,1,2.1,7.36,20.5,20.5,0,0,1-1.14,8.17,20,20,0,0,1-4.42,7.47,19.6,19.6,0,0,1-6.73,4.58,22.31,22.31,0,0,1-8.34,1.57,27.41,27.41,0,0,1-9.22-1.63,26.43,26.43,0,0,1-10.78-6.83,20.35,20.35,0,0,1-5.32-10.15l8.71-4.3a19.84,19.84,0,0,0,4.17,7.18,16.07,16.07,0,0,0,6.61,4.43,13,13,0,0,0,4.28.79,9.92,9.92,0,0,0,4.06-.85,9.57,9.57,0,0,0,5.31-6.09,9.71,9.71,0,0,0-.36-7.86,10.2,10.2,0,0,0-6-5.06,11.8,11.8,0,0,0-4-.7,10.76,10.76,0,0,0-1.6.11,10.47,10.47,0,0,0-5,2l-9.82-3.46a17.84,17.84,0,0,1,1-1.72c.59-1,1.33-2.27,2.24-3.82s1.9-3.28,3-5.2,2.22-3.87,3.4-5.85Q569,234.83,574,226.1Z"/><path class="cls-14" d="M578.76,350.46l-.87,0h0c-.35,0-.69-.08-1-.14l-.3-.06-.82-.2-.47-.13q-.53-.18-1-.39a10.32,10.32,0,0,1-1-.53l-.06,0a10.46,10.46,0,0,1-1.24-.85c-.21-.16-.42-.33-.62-.51a12.85,12.85,0,0,1-2.74-3.54,11.34,11.34,0,0,1-.61-1.38l-.18-.49c0-.12-.07-.23-.1-.34s-.14-.5-.19-.75l-.06-.26a10,10,0,0,1-.16-1.08c0-.27,0-.54,0-.81s0-.42,0-.64,0-.37,0-.56,0-.37.06-.56.05-.38.08-.57.07-.37.12-.55.13-.58.22-.87.19-.53.3-.79.19-.45.29-.67l.21-.42a10.89,10.89,0,0,1,.66-1.09l0-.05a10,10,0,0,1,.7-.88,12,12,0,0,1,3.45-2.66,10.66,10.66,0,0,1,2.32-.88l-3.31.83a11.2,11.2,0,0,0-2.32.88,11.86,11.86,0,0,0-3.45,2.67,8.59,8.59,0,0,0-.7.87h0l0,0a10.89,10.89,0,0,0-.66,1.09,1.48,1.48,0,0,1-.08.13c-.05.09-.08.19-.13.29s-.2.44-.29.67c0,.08-.07.14-.1.22s-.14.38-.2.57-.12.4-.17.61,0,.17-.05.26-.08.37-.12.55,0,.2-.06.31,0,.18,0,.26,0,.37-.06.56l0,.3c0,.09,0,.18,0,.26s0,.43,0,.64,0,.21,0,.31,0,.33,0,.5c0,.34.08.67.14,1l0,.08.06.26c.05.25.12.5.19.75l.1.34c0,.11.07.21.1.32a1.3,1.3,0,0,1,.08.17,11.34,11.34,0,0,0,.61,1.38,12.85,12.85,0,0,0,2.74,3.54l.47.41.15.1a10.46,10.46,0,0,0,1.24.85h0s0,0,.06,0a10.32,10.32,0,0,0,1.05.53l.08,0,.94.35.28.08.19.05.82.2.19,0,.11,0c.34.06.68.11,1,.14h0l.87,0h.29l.76-.05.59-.07c.39-.06.77-.14,1.15-.23l3.31-.83a12.65,12.65,0,0,1-1.74.3C579.46,350.44,579.11,350.46,578.76,350.46Z"/><path class="cls-14" d="M571.9,320.29c.12-.3.23-.58.35-.86s.26-.62.4-.92.25-.54.38-.8.28-.57.43-.84.26-.48.4-.72l.46-.77.43-.65c.17-.25.35-.5.53-.73s.25-.33.38-.49.39-.47.59-.7l.38-.42.69-.66c.12-.1.23-.22.34-.32.36-.3.72-.59,1.09-.85a11.51,11.51,0,0,1,3.87-1.8l-3.31.83a11.54,11.54,0,0,0-3.87,1.81c-.37.26-.73.54-1.09.84-.11.1-.22.22-.34.32s-.46.43-.69.66l-.38.43c-.2.22-.4.45-.59.69s-.26.32-.38.49l-.3.38c-.08.11-.15.24-.23.35l-.43.65-.46.77c-.14.24-.27.48-.4.72s-.14.23-.2.35-.15.34-.23.5-.26.52-.38.79-.27.61-.4.92-.23.56-.35.86c0,.12-.1.23-.14.36-.15.39-.29.79-.43,1.21l3.31-.83C571.51,321.31,571.71,320.8,571.9,320.29Z"/><path class="cls-14" d="M601.59,339.14c0-.18,0-.36,0-.54s0-.64-.08-1c-.06-.51-.14-1-.23-1.52,0-.1,0-.19-.07-.29s-.09-.41-.14-.61c-.09-.41-.2-.82-.32-1.22-.06-.21-.13-.42-.19-.63s-.09-.28-.14-.42-.21-.52-.31-.78-.14-.37-.22-.54c-.25-.57-.51-1.13-.81-1.67s-.69-1.17-1.07-1.73l-.32-.42c-.3-.41-.59-.81-.92-1.2-.18-.21-.37-.4-.55-.59s-.56-.64-.87-.94-.47-.41-.7-.62-.57-.53-.89-.79l0,0c-.52-.42-1.06-.82-1.62-1.19l-.55-.35c-.27-.17-.54-.36-.83-.52l-.42-.23-.44-.23c-.56-.29-1.13-.57-1.71-.82l-.08,0h0q-1-.43-2.1-.78l-.48-.15-.29-.07q-.75-.21-1.47-.36l-.29-.07-.14,0c-.55-.1-1.09-.17-1.63-.22h0q-.64-.06-1.29-.06h-.41l-.27,0c-.41,0-.81.06-1.2.11l-.28,0-.38.06c-.36.07-.72.14-1.07.23l-3.31.83c.35-.09.71-.16,1.07-.23s.44-.05.66-.08c.39-.05.79-.09,1.2-.11.23,0,.45,0,.68,0q.66,0,1.32.06c.54.05,1.08.12,1.63.22l.43.09q.72.15,1.47.36l.77.22c.73.24,1.44.5,2.12.79l.08,0c.58.25,1.15.53,1.71.82l.44.23c.43.24.84.49,1.25.75l.55.35c.56.38,1.1.77,1.62,1.19.32.26.6.53.9.8l.71.63c.29.29.56.6.84.9s.4.41.58.63.54.7.81,1.05c.14.19.3.38.43.57a19.15,19.15,0,0,1,1.07,1.73c.3.54.56,1.1.81,1.67.08.18.15.36.22.54q.24.58.45,1.2c.07.21.13.42.19.63.12.4.23.81.32,1.22,0,.2.1.41.14.61.12.6.23,1.2.3,1.81s.07,1,.09,1.5c0,.35,0,.71,0,1.07s0,.69,0,1,0,.65-.09,1-.1.7-.17,1.05-.12.67-.2,1c-.13.54-.26,1.08-.43,1.62s-.37,1.06-.58,1.58-.36.84-.55,1.25-.32.67-.49,1l-.23.4c-.32.55-.65,1.08-1,1.59a18.28,18.28,0,0,1-1.36,1.69,21.37,21.37,0,0,1-6.65,5,20.77,20.77,0,0,1-4,1.45l3.31-.83a20.77,20.77,0,0,0,4-1.45,21.25,21.25,0,0,0,6.65-5,16.92,16.92,0,0,0,1.36-1.68v0a18.15,18.15,0,0,0,1-1.57l.23-.4.24-.43c.09-.18.16-.38.25-.56.19-.41.38-.83.55-1.25.06-.14.13-.27.18-.41.14-.38.28-.77.4-1.17s.24-.77.33-1.16c0-.15.06-.31.1-.46.08-.34.14-.67.2-1,0-.19.09-.38.12-.57s0-.32.05-.48c0-.33.07-.65.09-1s.05-.37.05-.55,0-.33,0-.49C601.61,339.85,601.6,339.49,601.59,339.14Z"/><path class="cls-14" d="M580.12,299.24l.4,0c.42,0,.83,0,1.25,0,.58,0,1.17,0,1.75.07s1.41.16,2.11.29c.5.09,1,.18,1.51.31l.16,0c.57.14,1.14.3,1.71.49.89.29,1.74.63,2.57,1l.37.17c.76.35,1.5.74,2.21,1.15.14.08.26.17.4.26.6.37,1.18.77,1.75,1.19l.48.36a24.09,24.09,0,0,1,2,1.69,21.75,21.75,0,0,1,1.78,1.95l.08.08c.53.66,1,1.35,1.48,2.05a1,1,0,0,0,.11.17,24.09,24.09,0,0,1,1.21,2.17c0,.08.09.16.12.24a24.57,24.57,0,0,1,1,2.29l.21.57L596,320.55l3.31-.83,8.71-4.85-.14-.39-.07-.18a24.57,24.57,0,0,0-1-2.29c0-.08-.08-.16-.12-.24a24.09,24.09,0,0,0-1.21-2.17,1,1,0,0,1-.11-.17c-.46-.7-.95-1.39-1.48-2.05l-.08-.08a21.75,21.75,0,0,0-1.78-1.95c-.52-.51-1.07-1-1.63-1.45-.1-.09-.22-.16-.32-.24s-.32-.24-.48-.36c-.57-.43-1.15-.82-1.75-1.19-.13-.09-.26-.18-.4-.26l-.18-.11a22.77,22.77,0,0,0-2-1l-.37-.17-.39-.18c-.71-.29-1.43-.57-2.18-.81l-.64-.2c-.36-.11-.72-.2-1.07-.29l-.16,0c-.44-.11-.87-.21-1.31-.29l-.2,0c-.71-.13-1.41-.23-2.11-.29h0c-.58-.05-1.16-.07-1.73-.07h-.57l-.68,0-.4,0q-.67,0-1.35.15H582c-.63.09-1.26.22-1.88.37l-3.31.83c.62-.15,1.25-.28,1.88-.37C579.17,299.33,579.65,299.28,580.12,299.24Z"/><path class="cls-6" d="M595.76,330.79a20.82,20.82,0,0,1,2.43,7.68,19.64,19.64,0,0,1-.84,8.26,19.93,19.93,0,0,1-4.22,7.5,21.37,21.37,0,0,1-6.65,5,22,22,0,0,1-8.31,2.1c-.44,0-.89,0-1.33,0a25.09,25.09,0,0,1-7.82-1.28,23.81,23.81,0,0,1-8.61-4.81,20.08,20.08,0,0,1-5.3-7.56,26.2,26.2,0,0,1-1.77-9.94,39.71,39.71,0,0,1,2-11.9,57.21,57.21,0,0,1,6.12-13.68,32.79,32.79,0,0,1,7.91-8.84,20.56,20.56,0,0,1,9.31-4,19.65,19.65,0,0,1,3.07-.23,23.36,23.36,0,0,1,7.24,1.2,24.59,24.59,0,0,1,9.73,5.81,23.81,23.81,0,0,1,6,9.52L596,320.55a15,15,0,0,0-3.7-6.6,15.24,15.24,0,0,0-6.47-4,12.65,12.65,0,0,0-3.93-.66,11,11,0,0,0-6.45,2.13q-4.73,3.3-7.42,11.29a12.4,12.4,0,0,1,6.47-3.11,15.28,15.28,0,0,1,2.54-.22,18.21,18.21,0,0,1,5.62.95,23.83,23.83,0,0,1,7.77,4.17A21.43,21.43,0,0,1,595.76,330.79Zm-9.23,12.43a10.51,10.51,0,0,0,.43-4.47,12.71,12.71,0,0,0-1.28-4.21,11.12,11.12,0,0,0-2.79-3.46,12,12,0,0,0-4-2.23,12.21,12.21,0,0,0-3.75-.61c-.27,0-.55,0-.82,0a11,11,0,0,0-4.24,1.19,11.86,11.86,0,0,0-3.45,2.67,10.45,10.45,0,0,0-2.2,3.89,11,11,0,0,0-.45,4.56,11.33,11.33,0,0,0,1.3,4.3,12.85,12.85,0,0,0,2.74,3.54,10.81,10.81,0,0,0,4,2.31,11.52,11.52,0,0,0,3.49.56c.35,0,.7,0,1-.05a11.72,11.72,0,0,0,4.27-1.26,12,12,0,0,0,3.53-2.78,10.8,10.8,0,0,0,2.23-4"/><polygon class="cls-15" points="466.98 445.67 323.39 445.67 309.11 430.57 406.12 333.56 555.59 333.56 466.98 445.67"/><polygon class="cls-16" points="533.64 361.33 333.97 405.71 406.12 333.56 555.59 333.56 533.64 361.33"/><polygon class="cls-17" points="323.39 445.67 309.11 430.57 330.31 422.91 323.39 445.67"/><polygon class="cls-18" points="548.18 352.75 338.73 401.79 339.69 343.62 549.07 299.52 548.18 352.75"/><polygon class="cls-19" points="339.69 343.62 210.6 311.24 419.97 267.14 549.07 299.52 339.69 343.62"/><path class="cls-20" d="M214.23,313.41l-.91,54.51s123.26,31.69,125.44,32l.93-56.09Z"/><polygon class="cls-21" points="335.88 342.66 335.88 342.66 210.6 311.24 210.57 313.1 335.83 345.65 334.97 397.81 209.68 366.39 209.65 368.24 338.73 401.79 338.78 398.76 339.64 346.64 339.69 343.62 335.88 342.66"/><text class="cls-22" transform="matrix(1, -0.24, 0, 1, 349.11, 383.25)">TRIGONOMET<tspan class="cls-23" x="161.58" y="0">R</tspan><tspan class="cls-24" x="177.16" y="0">Y</tspan></text><polygon class="cls-25" points="209.68 366.39 213.38 364.6 213.34 367.3 209.68 366.39"/><path class="cls-26" d="M234.31,237.79c-.14-.94-.3-1.89-.48-2.82l195.38,42.49.42,27.79-.42-25.49Z"/><path class="cls-27" d="M430.13,338.53l-196.3-42.35c.12-.79.22-1.6.32-2.39l195.93,42Z"/><polygon class="cls-28" points="364.28 260.01 558.77 305.3 558.77 245.09 363.4 202.58 364.28 260.01"/><polygon class="cls-29" points="429.2 277.46 558.3 245.09 362.93 202.58 233.84 234.96 429.2 277.46"/><path class="cls-30" d="M554.67,249.38l.9,54.44s-123.26,31.65-125.44,31.95l-.92-56Z"/><path class="cls-31" d="M237.31,294.36c2.61-19.49,3-38.28.17-56l191.73,41.4.42,25.49.45,30.51Z"/><polygon class="cls-32" points="430.13 335.78 430.08 335.76 429.63 305.25 430.13 335.78"/><polygon class="cls-33" points="429.2 277.46 558.3 245.09 558.3 305.3 430.13 338.53 430.13 335.77 555.57 303.82 555.57 249.38 429.21 279.75 429.2 277.46"/><path class="cls-34" d="M481.09,220.86h0a1.1,1.1,0,0,1,.2.33.54.54,0,0,1,0,.11,4,4,0,0,1,.19.58,5.58,5.58,0,0,1,0,2.82.43.43,0,0,1-.2.23h0l6-2.28s0,0,0,0a1.09,1.09,0,0,0,0-.6.52.52,0,0,0-.07-.18s0,0,0,0l0,0-6.32-1h0A.38.38,0,0,1,481.09,220.86Z"/><polygon class="cls-35" points="469.42 229.44 469.43 229.44 469.42 229.44 469.42 229.44"/><path class="cls-36" d="M468.48,218.85h0a.85.85,0,0,1,.27.18l.07.08a1.6,1.6,0,0,1,.22.28l.06.09a3.87,3.87,0,0,1,.26.5l.06.14c.07.17.13.34.2.53l.06.2c.08.25.16.52.23.81.64,2.6.67,5.82.07,7.19a1.6,1.6,0,0,1-.26.42l-.1.07a1.21,1.21,0,0,1-.14.1h0l11.87-4.5h0a.43.43,0,0,0,.2-.23,5.58,5.58,0,0,0,0-2.82,4,4,0,0,0-.19-.58.54.54,0,0,0,0-.11,1.1,1.1,0,0,0-.2-.33h0a.38.38,0,0,0-.16-.09h0l-12.55-2h-.06A.76.76,0,0,1,468.48,218.85Z"/><path class="cls-37" d="M469.42,229.44h.06a1.21,1.21,0,0,0,.14-.1A.47.47,0,0,1,469.42,229.44Z"/><path class="cls-37" d="M469.42,220.12l-.06-.14Z"/><path class="cls-37" d="M469.68,220.85l-.06-.2Z"/><path class="cls-37" d="M470,228.85a1.6,1.6,0,0,1-.26.42A1.6,1.6,0,0,0,470,228.85Z"/><path class="cls-37" d="M468.48,218.85Z"/><path class="cls-37" d="M469.1,219.48l-.06-.09Z"/><path class="cls-37" d="M468.75,219l.07.08Z"/><path class="cls-38" d="M315,234.84a.94.94,0,0,1,.26.18l.08.08a2.27,2.27,0,0,1,.21.28l.07.09c.08.15.17.32.26.51s0,.09.05.13.14.34.2.53.05.13.07.21c.08.24.15.51.23.8.63,2.6.66,5.82.06,7.19a1.45,1.45,0,0,1-.26.42l0,0s-.05,0-.08,0a.56.56,0,0,1-.2.11l0,0,11.19-1.17,10.84-1.13L358.36,241l12.11-1.26,3.3-.34,24.92-2.6,12.87-1.34,3.16-.33L427,233.88l20.37-2.12,10.9-1.13,11.15-1.17,0,0h0a.47.47,0,0,0,.2-.1l.1-.07a1.6,1.6,0,0,0,.26-.42c.6-1.37.57-4.59-.07-7.19-.07-.29-.15-.56-.23-.81l-.06-.2c-.07-.19-.13-.36-.2-.53l-.06-.14a3.87,3.87,0,0,0-.26-.5l-.06-.09a1.6,1.6,0,0,0-.22-.28l-.07-.08a.85.85,0,0,0-.27-.18h0a.76.76,0,0,0-.16,0h-.05L457.11,220l-10.87,1.13-20.41,2.13-12.16,1.27-3.27.34-12.81,1.33-24.94,2.6-3.27.34-12.15,1.27-20.42,2.12-10.87,1.14-11.16,1.16a.35.35,0,0,1,.2,0Z"/><path class="cls-35" d="M315.25,235l.08.08Z"/><path class="cls-35" d="M315,234.84h0Z"/><path class="cls-35" d="M315.92,236.11s0-.09-.05-.13S315.9,236.07,315.92,236.11Z"/><path class="cls-35" d="M316.12,245.33a.56.56,0,0,1-.2.11A.56.56,0,0,0,316.12,245.33Z"/><path class="cls-35" d="M316.48,244.84a1.45,1.45,0,0,1-.26.42A1.45,1.45,0,0,0,316.48,244.84Z"/><path class="cls-35" d="M315.61,235.47l-.07-.09Z"/><path class="cls-35" d="M316.19,236.85c0-.08-.05-.14-.07-.21S316.17,236.78,316.19,236.85Z"/><path class="cls-35" d="M310.07,235.3a.36.36,0,0,1,.2,0h0a.85.85,0,0,1,.22.13s0,0,.05.06l.08.07a2.27,2.27,0,0,1,.21.28l.06.09a4,4,0,0,1,.26.51l.06.13c.07.17.14.34.2.53s0,.14.07.21c.08.25.15.51.22.8.64,2.6.67,5.82.07,7.19a1.45,1.45,0,0,1-.26.42.3.3,0,0,1-.1.07.56.56,0,0,1-.2.11l0,0,2.35-.25,2.36-.24,0,0a.56.56,0,0,0,.2-.11s.06,0,.08,0l0,0a1.45,1.45,0,0,0,.26-.42c.6-1.37.57-4.59-.06-7.19-.08-.29-.15-.56-.23-.8,0-.07-.05-.14-.07-.21s-.13-.36-.2-.53,0-.09-.05-.13-.18-.36-.26-.51l-.07-.09a2.27,2.27,0,0,0-.21-.28l-.08-.08a.94.94,0,0,0-.26-.18h0a.35.35,0,0,0-.2,0l-2.35.24h0Z"/><path class="cls-39" d="M310.27,235.33Z"/><path class="cls-39" d="M310.54,235.52l.08.07Z"/><path class="cls-39" d="M311.15,236.47l.06.13Z"/><path class="cls-39" d="M310.83,235.87l.06.09Z"/><path class="cls-39" d="M311.77,245.33a1.45,1.45,0,0,1-.26.42A1.45,1.45,0,0,0,311.77,245.33Z"/><path class="cls-39" d="M311.41,245.82a.56.56,0,0,1-.2.11A.56.56,0,0,0,311.41,245.82Z"/><path class="cls-39" d="M311.41,237.13c0,.07,0,.14.07.21S311.43,237.2,311.41,237.13Z"/><path class="cls-39" d="M311.41,245.82a.3.3,0,0,0,.1-.07,1.45,1.45,0,0,0,.26-.42c.6-1.37.57-4.59-.07-7.19-.07-.29-.14-.55-.22-.8,0-.07-.05-.14-.07-.21s-.13-.36-.2-.53l-.06-.13a4,4,0,0,0-.26-.51l-.06-.09a2.27,2.27,0,0,0-.21-.28l-.08-.07s0-.05-.05-.06a.85.85,0,0,0-.22-.13h0a.36.36,0,0,0-.2,0h0l-12.46,1.3-2.2.23a2.56,2.56,0,0,0-1.37.55,3.09,3.09,0,0,0-1,1.24,4.14,4.14,0,0,0-.25.8c0,.22-.09.46-.12.69a.77.77,0,0,1,0,.15c0,.29,0,.58-.05.87v0c0,.3,0,.6,0,.88,0,.06,0,.11,0,.17,0,.23,0,.46.07.66l0,.19c.08.53.17.92.19,1s.05.16.07.24.08.28.12.41l.09.25c0,.05,0,.1,0,.14l.11.22c.06.14.13.29.2.42l.16.27c.08.12.16.24.25.35l.15.17.3.29.15.12c.1.06.19.13.29.18a1.51,1.51,0,0,0,.26.12l.19.08a2.84,2.84,0,0,0,1.15.13l4.38-.45,1.87-.2,4-.42,4.38-.45,0,0A.56.56,0,0,0,311.41,245.82Z"/><path class="cls-40" d="M456.4,233.13a5.42,5.42,0,0,0-1.66-.17,4.35,4.35,0,0,0-1,.16l-3.51,1-.92-.69-.86-.62-.82-.55c-.45-.3-.92-.6-1.4-.88l-1-.57c-.81-.47-1.66-.91-2.54-1.34l-1.08-.52c-.24-.12-.49-.23-.75-.34-.66-.3-1.36-.6-2.07-.88-.37-.16-.76-.31-1.15-.46-1-.38-2-.75-3.06-1.08-.4-.14-.8-.27-1.22-.39-1.06-.33-2.15-.64-3.25-.92-.41-.12-.84-.22-1.26-.32-1.12-.28-2.26-.53-3.41-.76l-1.27-.23c-1.15-.21-2.32-.4-3.5-.56l-1.3-.17-1-.11c-.84-.1-1.7-.18-2.54-.25l-1.29-.09c-1.18-.07-2.36-.13-3.53-.15-.43,0-.85,0-1.27,0-1.17,0-2.32,0-3.48.05l-.94,0H405a63.39,63.39,0,0,0-15.35,2.62l-.45.14c-.33.11-.65.21-1,.33-.9.3-1.75.63-2.57,1l-.88.38-1,.48c-.45.21-.87.42-1.28.65l-.78.43c-.7.41-1.36.83-2,1.27-.23.16-.46.31-.67.48a19.28,19.28,0,0,0-1.66,1.38c-.2.17-.38.34-.56.52a18.12,18.12,0,0,0-1.33,1.48c-.15.18-.3.37-.44.56a12.93,12.93,0,0,0-1,1.55c-.11.2-.22.4-.31.6a14.5,14.5,0,0,0-.65,1.6c-.06.22-.13.42-.18.63a10.25,10.25,0,0,0-.29,1.64c0,.21,0,.43,0,.64a11.54,11.54,0,0,0,0,1.66c0,.21.05.44.09.66a11,11,0,0,0,.36,1.64c.06.22.14.44.21.66a16.06,16.06,0,0,0,.69,1.62c.11.22.22.44.34.66.29.51.61,1,1,1.55l.49.66c.37.5.78,1,1.21,1.49l.6.64.41.42c.34.33.68.65,1.05,1s.47.41.71.61l.31.27-3.07.88a1.46,1.46,0,0,0-1,.68.75.75,0,0,0,0,.67,1.85,1.85,0,0,0,.53.63l7.07,5.5,81.65-22.65-.18-.72-7.08-5.3A4,4,0,0,0,456.4,233.13Zm-62.37,17-.32-.23c-7.35-5.81-4.56-13.2,6.5-16.51a35.12,35.12,0,0,1,5.38-1.16,47,47,0,0,1,12.87,0c6.32.86,12.15,2.94,15.91,6,.11.08.21.17.3.25Z"/><path class="cls-41" d="M456.65,232.06a6.12,6.12,0,0,0-1.66-.17,5,5,0,0,0-1,.16l-3.5,1q-.45-.36-.93-.69l-.86-.63-.81-.55q-.69-.45-1.41-.87l-1-.58c-.82-.46-1.67-.91-2.54-1.33l-1.09-.53-.75-.33c-.66-.31-1.36-.6-2.06-.89l-1.16-.46c-1-.38-2-.74-3.05-1.08l-1.22-.39c-1.07-.33-2.15-.64-3.25-.92l-1.26-.32c-1.13-.28-2.27-.52-3.41-.75l-1.28-.23c-1.15-.22-2.32-.4-3.5-.57-.42-.06-.86-.12-1.3-.16s-.66-.09-1-.12c-.84-.09-1.7-.18-2.54-.25l-1.28-.08c-1.18-.08-2.37-.13-3.54-.16l-1.26,0c-1.17,0-2.32,0-3.48,0l-.95.05h-.29a63.39,63.39,0,0,0-15.35,2.61l-.45.15-1,.32c-.9.31-1.75.63-2.57,1-.3.12-.59.25-.87.38l-1,.47c-.44.21-.87.43-1.28.65s-.52.29-.77.44a22.58,22.58,0,0,0-2,1.26l-.68.48c-.59.45-1.15.91-1.66,1.38a5.53,5.53,0,0,0-.55.53,16.5,16.5,0,0,0-1.34,1.47l-.44.56a16.19,16.19,0,0,0-1,1.56,6.63,6.63,0,0,0-.31.59,12.26,12.26,0,0,0-.64,1.61c-.07.21-.13.41-.19.62a13.43,13.43,0,0,0-.29,1.64c0,.22,0,.43,0,.65a13,13,0,0,0,0,1.65c0,.22.06.44.09.66a13.34,13.34,0,0,0,.36,1.64c.07.22.14.44.22.67a16.81,16.81,0,0,0,.68,1.61c.11.22.22.44.34.66.29.52.61,1,1,1.56l.48.66c.37.49.78,1,1.22,1.48.19.22.39.43.59.64l.42.43c.33.32.68.65,1,1s.47.42.72.62c.09.09.2.17.3.26l-3.07.88a1.44,1.44,0,0,0-1,.68.74.74,0,0,0,0,.68,1.61,1.61,0,0,0,.52.62l7.07,5.5,81.66-22.65-7.26-6A4.34,4.34,0,0,0,456.65,232.06Zm-62.36,17-.32-.24c-7.35-5.81-4.56-13.19,6.5-16.51a36.49,36.49,0,0,1,5.37-1.16,47.09,47.09,0,0,1,12.88,0c6.31.85,12.14,2.93,15.91,6l.29.26Z"/><g class="cls-42"><path class="cls-43" d="M405.54,221.25l.3,9.93a36.49,36.49,0,0,0-5.37,1.16c-11.06,3.32-13.85,10.7-6.5,16.51l.32.24,12-3.44.3,9.53-20.5,5.69L384,226.17l1-.47c.28-.13.57-.26.87-.38.82-.35,1.67-.67,2.57-1l1-.32.45-.15a63.39,63.39,0,0,1,15.35-2.61Z"/><path class="cls-44" d="M441.08,227.55l-.29,18.14L419,251.74l-.13-9.69,16.05-4.59-.29-.26c-3.77-3.07-9.6-5.15-15.91-6l-.13-9.54c.34,0,.67.08,1,.12s.88.1,1.3.16c1.18.17,2.35.35,3.5.57l1.28.23c1.14.23,2.28.47,3.41.75l1.26.32c1.1.28,2.18.59,3.25.92l1.22.39c1,.34,2.06.7,3.05,1.08l1.16.46C439.72,227,440.42,227.24,441.08,227.55Z"/></g><path class="cls-34" d="M353.85,409.62h0a1.39,1.39,0,0,0-.18.35.76.76,0,0,1,0,.11,3.74,3.74,0,0,0-.13.59,5.57,5.57,0,0,0,.22,2.82.36.36,0,0,0,.21.21h0L347.77,412a.11.11,0,0,1,0-.05,1.22,1.22,0,0,1-.05-.6.56.56,0,0,1,.05-.18l0,0s0,0,0,0l6.21-1.54h0A.29.29,0,0,0,353.85,409.62Z"/><polygon class="cls-35" points="366.22 417.16 366.21 417.16 366.21 417.16 366.22 417.16"/><path class="cls-45" d="M366.24,406.52h0a.8.8,0,0,0-.26.21l-.06.08a1.41,1.41,0,0,0-.19.3l-.06.09c-.07.16-.14.33-.21.53,0,0,0,.09,0,.14l-.15.54c0,.07,0,.14-.05.21-.06.26-.11.53-.16.82-.4,2.65-.16,5.86.56,7.17a1.19,1.19,0,0,0,.3.4.33.33,0,0,0,.1.06.6.6,0,0,0,.15.09h0l-12.21-3.46h0a.36.36,0,0,1-.21-.21,5.57,5.57,0,0,1-.22-2.82,3.74,3.74,0,0,1,.13-.59.76.76,0,0,0,0-.11,1.39,1.39,0,0,1,.18-.35h0a.29.29,0,0,1,.15-.11h0l12.33-3h.06A.42.42,0,0,0,366.24,406.52Z"/><path class="cls-37" d="M366.21,417.16h0a.6.6,0,0,1-.15-.09A.59.59,0,0,0,366.21,417.16Z"/><path class="cls-37" d="M365.41,407.87c0-.05,0-.1,0-.14S365.43,407.83,365.41,407.87Z"/><path class="cls-37" d="M365.21,408.62c0-.07,0-.14.05-.21S365.23,408.55,365.21,408.62Z"/><path class="cls-37" d="M365.61,416.61a1.19,1.19,0,0,0,.3.4A1.19,1.19,0,0,1,365.61,416.61Z"/><path class="cls-37" d="M366.24,406.52Z"/><path class="cls-37" d="M365.67,407.2l.06-.09Z"/><path class="cls-37" d="M366,406.73l-.06.08Z"/><path class="cls-46" d="M520.54,409.22a.8.8,0,0,0-.25.21l-.07.09a1.62,1.62,0,0,0-.19.29.47.47,0,0,0,0,.1,4.28,4.28,0,0,0-.22.52,1,1,0,0,0,0,.14c-.06.17-.11.35-.16.55a2.09,2.09,0,0,1,0,.21c0,.25-.11.52-.15.82-.41,2.64-.16,5.85.55,7.17a1.46,1.46,0,0,0,.3.39s0,0,0,0,0,0,.08,0a.48.48,0,0,0,.21.09l0,0-11.25-.2-10.9-.19-20.54-.36-12.17-.21-3.32-.06-25.05-.44-12.94-.23-3.17-.05-12.31-.22-20.47-.36-11-.19-11.22-.2h0a.59.59,0,0,1-.2-.09.33.33,0,0,1-.1-.06,1.19,1.19,0,0,1-.3-.4c-.72-1.31-1-4.52-.56-7.17.05-.29.1-.56.16-.82,0-.07,0-.14.05-.21l.15-.54s0-.1,0-.14c.07-.2.14-.37.21-.53l.06-.09a1.41,1.41,0,0,1,.19-.3l.06-.08a.8.8,0,0,1,.26-.21h0a.42.42,0,0,1,.15,0h.05l11.23.2,10.92.19,20.52.36,12.22.21,3.29.06,12.88.23,25.07.44,3.29,0,12.21.22,20.52.36,10.93.19,11.22.2a.38.38,0,0,0-.2,0Z"/><path class="cls-35" d="M520.29,409.43l-.07.09Z"/><path class="cls-35" d="M520.54,409.22Z"/><path class="cls-35" d="M519.72,410.57a1,1,0,0,1,0-.14A1,1,0,0,0,519.72,410.57Z"/><path class="cls-35" d="M520.31,419.77a.39.39,0,0,0,.21.09A.48.48,0,0,1,520.31,419.77Z"/><path class="cls-35" d="M519.91,419.32a1.46,1.46,0,0,0,.3.39A1.46,1.46,0,0,1,519.91,419.32Z"/><path class="cls-35" d="M520,409.91a.47.47,0,0,1,0-.1A.47.47,0,0,0,520,409.91Z"/><path class="cls-35" d="M519.51,411.33a2.09,2.09,0,0,0,0-.21A2.09,2.09,0,0,1,519.51,411.33Z"/><path class="cls-35" d="M525.48,409.26a.35.35,0,0,0-.2.05h0a.85.85,0,0,0-.21.14.15.15,0,0,1-.05.06l-.06.09a1.41,1.41,0,0,0-.19.3l-.06.09a3.9,3.9,0,0,0-.21.53s0,.09,0,.14-.1.35-.15.54,0,.14,0,.21c-.06.25-.11.52-.16.82-.41,2.64-.16,5.86.56,7.17a1.48,1.48,0,0,0,.29.4l.11.06a.52.52,0,0,0,.2.09h0l-2.37,0-2.37,0,0,0a.39.39,0,0,1-.21-.09s-.06,0-.08,0,0,0,0,0a1.46,1.46,0,0,1-.3-.39c-.71-1.32-1-4.53-.55-7.17,0-.3.1-.57.15-.82a2.09,2.09,0,0,0,0-.21c.05-.2.1-.38.16-.55a1,1,0,0,1,0-.14,4.28,4.28,0,0,1,.22-.52.47.47,0,0,1,0-.1,1.62,1.62,0,0,1,.19-.29l.07-.09a.8.8,0,0,1,.25-.21h0a.38.38,0,0,1,.2,0l2.37,0h0Z"/><path class="cls-39" d="M525.28,409.31Z"/><path class="cls-39" d="M525,409.51l-.06.09Z"/><path class="cls-39" d="M524.5,410.52s0,.09,0,.14S524.48,410.56,524.5,410.52Z"/><path class="cls-39" d="M524.77,409.9l-.06.09Z"/><path class="cls-39" d="M524.65,419.4a1.48,1.48,0,0,0,.29.4A1.48,1.48,0,0,1,524.65,419.4Z"/><path class="cls-39" d="M525.05,419.86a.52.52,0,0,0,.2.09A.52.52,0,0,1,525.05,419.86Z"/><path class="cls-39" d="M524.3,411.2c0,.07,0,.14,0,.21S524.28,411.27,524.3,411.2Z"/><path class="cls-39" d="M525.05,419.86l-.11-.06a1.48,1.48,0,0,1-.29-.4c-.72-1.31-1-4.53-.56-7.17,0-.3.1-.57.16-.82,0-.07,0-.14,0-.21s.1-.38.15-.54,0-.1,0-.14a3.9,3.9,0,0,1,.21-.53l.06-.09a1.41,1.41,0,0,1,.19-.3l.06-.09a.15.15,0,0,0,.05-.06.85.85,0,0,1,.21-.14h0a.35.35,0,0,1,.2-.05h0l12.52.22,2.21,0a2.58,2.58,0,0,1,1.42.43,3.05,3.05,0,0,1,1,1.16,4.33,4.33,0,0,1,.32.76c.07.23.12.46.17.69,0,.05,0,.09,0,.14,0,.29.09.58.12.86v0c0,.31,0,.6,0,.89v.16c0,.24,0,.46,0,.67a1.21,1.21,0,0,1,0,.19c0,.54-.09.94-.1,1s0,.17,0,.25-.06.28-.09.41l-.06.27,0,.14-.09.22c0,.15-.1.3-.16.44l-.14.28a3.28,3.28,0,0,1-.22.37c0,.07-.09.13-.13.19a4.12,4.12,0,0,1-.28.31l-.14.13-.27.21-.25.14-.18.09a2.83,2.83,0,0,1-1.14.24l-4.4-.08-1.88,0-4-.07-4.4-.08h0A.52.52,0,0,1,525.05,419.86Z"/><polygon class="cls-47" points="556.67 384.35 559.19 404.71 561.65 383.07 556.67 384.35"/><path class="cls-48" d="M552.6,309.92l1.71,69.21a7.36,7.36,0,0,0,2.36,5.22h0l4.69-.2,1.6-6a40.14,40.14,0,0,0,1.11-14.92L557.82,308Z"/><rect class="cls-49" x="477.73" y="361.04" width="51.43" height="6.06" transform="translate(981.15 -33.17) rotate(104.38)"/><polygon class="cls-50" points="496.82 393.88 494.77 393.35 494.13 388.22 499.99 389.73 496.82 393.88"/><polygon class="cls-51" points="495.12 396.11 494.77 393.35 496.82 393.88 495.12 396.11"/><rect class="cls-51" x="508.91" y="334.93" width="2.46" height="6.06" transform="translate(964.24 -72.23) rotate(104.38)"/><path class="cls-52" d="M509.25,330.94h4.81a0,0,0,0,1,0,0V337a0,0,0,0,1,0,0h-4.81a1,1,0,0,1-1-1v-4.09a1,1,0,0,1,1-1Z" transform="translate(961.62 -78.23) rotate(104.38)"/><path class="cls-53" d="M556.16,295.33,561,276.28a4.69,4.69,0,0,0-3.73-5.83h0a4.7,4.7,0,0,0-5.46,3.93L549.1,294.2Z"/><path class="cls-54" d="M507.07,380.62h0a3.31,3.31,0,0,0,3.93-2.24c8.37-26.8,16.87-55.81,24.51-64.32a7,7,0,0,1,6.08-2.24l12.55,1.56c7.4,1.19,11.52-14.46,4.52-17.49,0,0-15.11-12.3-30,13.88-7.3,11.27-12.4,25.29-16.28,40a1.69,1.69,0,0,1-1.88,1.24l-6.8-1.07a1.68,1.68,0,0,0-1.86,1.15L495.58,371a1.67,1.67,0,0,0,1.36,2.15l8.42,1-.69,2.21A3.32,3.32,0,0,0,507.07,380.62Z"/><path class="cls-55" d="M555.15,302.55a4.22,4.22,0,1,1-4.36-4.08A4.24,4.24,0,0,1,555.15,302.55Z"/><path class="cls-56" d="M552.91,302.63a2,2,0,1,1-2-1.93A2,2,0,0,1,552.91,302.63Z"/><path class="cls-57" d="M517.75,364.5a3.8,3.8,0,1,1-3.93-3.67A3.81,3.81,0,0,1,517.75,364.5Z"/><path class="cls-56" d="M515.74,364.57a1.79,1.79,0,1,1-3.58.11,1.79,1.79,0,0,1,3.58-.11Z"/><path class="cls-58" d="M226.32,349.61,217.48,372l88.57,21.84,10-23.56c1.69-4-2.25-8.44-8.75-9.85l-68.14-15.26C233.52,343.91,227.81,345.92,226.32,349.61Z"/><path class="cls-59" d="M216.92,371.91l-51,38.82c-4,3.26-4.46,9.51,4,12.13l71.9,20.88c6.73,2,15.18.54,18.75-3.14l45.53-46.87.55-3.77Z"/><path class="cls-60" d="M170.39,419,242.3,440c6.74,2,15.18.54,18.75-3.13l9.24-9.51L306.59,390l-87.92-21.58-1.23-.3-50.72,41.85C162.76,413.2,164.36,417.28,170.39,419Z"/><path class="cls-61" d="M170.39,419,242.3,440c6.74,2,15.18.54,18.75-3.13l9.24-9.51c-12.62-14.7-42.43-48.53-51.62-58.95l-1.23-.3-50.72,41.85C162.76,413.2,164.36,417.28,170.39,419Z"/><path class="cls-62" d="M275,394.33l6.16,1.57c2.52.64,5.59.15,6.82-1.09l2.08-2.08c1.22-1.22.17-2.71-2.33-3.33l-6.1-1.51c-2.48-.62-5.49-.15-6.73,1.05l-2.12,2C271.51,392.2,272.5,393.7,275,394.33Z"/><path class="cls-62" d="M256.55,389.65l6,1.53c2.47.62,5.5.14,6.77-1.07l2.13-2c1.26-1.19.28-2.65-2.16-3.25l-6-1.48c-2.42-.6-5.4-.14-6.68,1l-2.17,2C253.2,387.57,254.11,389,256.55,389.65Z"/><path class="cls-62" d="M238.56,385.09l5.85,1.48c2.4.61,5.42.15,6.71-1l2.19-2c1.28-1.16.37-2.59-2-3.18l-5.81-1.44c-2.35-.58-5.31-.13-6.61,1l-2.22,1.95C235.34,383.05,236.18,384.49,238.56,385.09Z"/><path class="cls-63" d="M221,380.64l5.71,1.45c2.35.59,5.34.13,6.66-1l2.23-1.94c1.31-1.15.47-2.54-1.85-3.11l-5.67-1.41c-2.3-.57-5.23-.13-6.56,1l-2.27,1.91C217.91,378.65,218.68,380.05,221,380.64Z"/><path class="cls-62" d="M265.83,403.26l6.23,1.62c2.56.67,5.68.17,7-1.11l2.15-2.16c1.27-1.26.23-2.81-2.31-3.46l-6.17-1.58c-2.5-.64-5.57-.15-6.86,1.09l-2.2,2.11C262.33,401,263.3,402.59,265.83,403.26Z"/><path class="cls-62" d="M247.16,398.38l6.07,1.58c2.5.66,5.6.16,6.91-1.09l2.21-2.11c1.3-1.24.34-2.75-2.13-3.38l-6-1.54c-2.45-.62-5.49-.15-6.81,1.07L245.14,395C243.8,396.21,244.7,397.73,247.16,398.38Z"/><path class="cls-62" d="M229,393.62l5.92,1.55c2.43.63,5.51.15,6.85-1.08L244,392c1.33-1.21.44-2.68-2-3.3l-5.87-1.5c-2.38-.61-5.4-.14-6.75,1l-2.3,2C225.73,391.5,226.56,393,229,393.62Z"/><path class="cls-64" d="M211.22,389l5.77,1.51c2.37.62,5.42.15,6.79-1.05l2.31-2c1.35-1.18.54-2.62-1.82-3.23l-5.72-1.46c-2.33-.59-5.32-.13-6.69,1l-2.35,2C208.12,386.92,208.87,388.37,211.22,389Z"/><path class="cls-62" d="M256.32,412.51l6.3,1.7c2.59.7,5.78.18,7.11-1.15l2.24-2.24c1.32-1.31.29-2.92-2.28-3.6l-6.25-1.64c-2.53-.67-5.66-.17-7,1.12l-2.28,2.19C252.8,410.2,253.76,411.82,256.32,412.51Z"/><path class="cls-62" d="M237.43,407.42l6.14,1.66c2.52.68,5.68.17,7.05-1.13l2.29-2.19c1.35-1.28.4-2.85-2.1-3.51l-6.09-1.61c-2.47-.65-5.57-.16-6.95,1.1l-2.33,2.15C234.05,405.17,234.93,406.75,237.43,407.42Z"/><path class="cls-62" d="M219,402.46l6,1.62c2.45.66,5.59.16,7-1.11l2.35-2.14c1.37-1.25.5-2.79-1.93-3.43l-5.94-1.56c-2.41-.64-5.49-.15-6.89,1.08L217.2,399C215.78,400.26,216.59,401.81,219,402.46Z"/><path class="cls-65" d="M201.08,397.63l5.83,1.57c2.4.65,5.51.16,6.93-1.08l2.39-2.09c1.41-1.23.61-2.73-1.77-3.35l-5.79-1.53c-2.35-.62-5.4-.14-6.82,1.06l-2.43,2.05C198,395.48,198.71,397,201.08,397.63Z"/><path class="cls-62" d="M246.44,422.12l6.38,1.77c2.62.73,5.88.2,7.27-1.19l2.32-2.32c1.36-1.36.35-3-2.25-3.74l-6.32-1.72c-2.57-.7-5.76-.18-7.15,1.16l-2.37,2.28C242.91,419.71,243.85,421.4,246.44,422.12Z"/><path class="cls-62" d="M227.32,416.81l6.22,1.73c2.55.7,5.78.18,7.2-1.17l2.38-2.27c1.39-1.33.46-3-2.07-3.65l-6.16-1.68c-2.5-.67-5.66-.17-7.09,1.14l-2.42,2.23C223.94,414.46,224.8,416.11,227.32,416.81Z"/><path class="cls-62" d="M208.71,411.63l6,1.69c2.49.69,5.69.17,7.14-1.15l2.43-2.21c1.42-1.3.57-2.9-1.89-3.57l-6-1.63c-2.43-.66-5.57-.16-7,1.12l-2.47,2.17C205.46,409.35,206.25,411,208.71,411.63Z"/><path class="cls-66" d="M178.65,415.6l8,2.3a6.65,6.65,0,0,0,5.56-.89l14.42-12.59c1.12-1,.52-2.18-1.33-2.68l-7.85-2.13a6.58,6.58,0,0,0-5.35.84l-14.64,12.36C176.27,413.82,176.79,415.07,178.65,415.6Z"/><path class="cls-62" d="M236.17,432.1l6.47,1.86c2.65.76,6,.21,7.42-1.23l2.42-2.42c1.41-1.42.42-3.16-2.21-3.9l-6.4-1.79c-2.6-.73-5.87-.19-7.31,1.2l-2.46,2.36C232.63,429.6,233.55,431.35,236.17,432.1Z"/><path class="cls-62" d="M216.83,426.55l6.29,1.81c2.58.74,5.88.2,7.36-1.21L233,424.8c1.45-1.39.54-3.09-2-3.8l-6.24-1.75c-2.53-.71-5.76-.19-7.24,1.17l-2.51,2.31C213.44,424.11,214.28,425.82,216.83,426.55Z"/><path class="cls-62" d="M198,421.15l6.12,1.76c2.52.72,5.79.19,7.29-1.18l2.53-2.3c1.48-1.35.65-3-1.85-3.71L206,414c-2.46-.69-5.67-.18-7.17,1.15l-2.57,2.26C194.75,418.77,195.52,420.44,198,421.15Z"/><path class="cls-67" d="M275.14,393.38l6.15,1.57c2.53.64,5.59.15,6.83-1.09l2.08-2.07c1.22-1.22.17-2.72-2.34-3.34l-6.1-1.51c-2.47-.62-5.48-.15-6.73,1.05l-2.12,2C271.65,391.25,272.64,392.75,275.14,393.38Z"/><path class="cls-67" d="M256.69,388.7l6,1.52c2.46.63,5.5.15,6.77-1.06l2.13-2c1.25-1.19.28-2.65-2.17-3.26l-5.95-1.47c-2.41-.6-5.39-.14-6.67,1l-2.17,2C253.33,386.62,254.25,388.08,256.69,388.7Z"/><path class="cls-67" d="M238.69,384.13l5.85,1.49c2.41.61,5.42.14,6.72-1l2.18-2c1.28-1.17.38-2.59-2-3.18l-5.8-1.45c-2.36-.58-5.32-.13-6.62,1l-2.22,1.95C235.47,382.1,236.31,383.53,238.69,384.13Z"/><path class="cls-68" d="M221.14,379.68l5.71,1.45c2.34.59,5.33.13,6.65-1l2.23-1.95c1.31-1.14.48-2.54-1.85-3.11l-5.67-1.41c-2.3-.57-5.23-.13-6.56,1l-2.26,1.91C218,377.69,218.82,379.09,221.14,379.68Z"/><path class="cls-67" d="M266,402.31l6.23,1.62c2.56.67,5.69.17,7-1.11l2.16-2.16c1.27-1.26.23-2.81-2.31-3.46l-6.17-1.58c-2.51-.64-5.58-.15-6.87,1.09l-2.2,2.11C262.46,400.08,263.44,401.64,266,402.31Z"/><path class="cls-67" d="M247.3,397.42l6.07,1.59c2.49.65,5.59.16,6.91-1.09l2.21-2.11c1.29-1.24.33-2.75-2.14-3.38l-6-1.54c-2.44-.63-5.48-.15-6.81,1.06L245.27,394C243.93,395.26,244.83,396.78,247.3,397.42Z"/><path class="cls-67" d="M229.1,392.66l5.92,1.55c2.43.64,5.5.16,6.85-1.07l2.26-2.06c1.32-1.21.44-2.69-2-3.3l-5.87-1.51c-2.38-.61-5.39-.14-6.75,1.05l-2.29,2C225.87,390.55,226.69,392,229.1,392.66Z"/><path class="cls-69" d="M211.35,388l5.77,1.51c2.37.62,5.42.15,6.79-1l2.31-2c1.36-1.19.54-2.63-1.81-3.23l-5.73-1.47c-2.32-.59-5.31-.13-6.69,1l-2.35,2C208.25,386,209,387.41,211.35,388Z"/><path class="cls-67" d="M256.45,411.56l6.31,1.7c2.59.7,5.78.18,7.11-1.15l2.24-2.24c1.31-1.31.28-2.92-2.28-3.6l-6.25-1.64c-2.54-.67-5.67-.17-7,1.12l-2.28,2.19C252.93,409.25,253.89,410.87,256.45,411.56Z"/><path class="cls-67" d="M237.56,406.47l6.14,1.65c2.52.69,5.69.18,7.05-1.12l2.3-2.19c1.34-1.28.39-2.85-2.11-3.51l-6.09-1.61c-2.47-.65-5.57-.16-6.94,1.1l-2.34,2.15C234.18,404.21,235.07,405.8,237.56,406.47Z"/><path class="cls-67" d="M219.15,401.51l6,1.61c2.46.66,5.59.17,7-1.11l2.34-2.13c1.38-1.26.51-2.79-1.93-3.43l-5.94-1.57c-2.41-.63-5.48-.15-6.88,1.08l-2.39,2.1C215.92,399.31,216.72,400.85,219.15,401.51Z"/><path class="cls-70" d="M201.21,396.67l5.84,1.57c2.39.65,5.5.16,6.93-1.08l2.39-2.09c1.4-1.23.6-2.73-1.77-3.35l-5.79-1.53c-2.35-.62-5.4-.14-6.83,1.06l-2.43,2.05C198.11,394.52,198.84,396,201.21,396.67Z"/><path class="cls-67" d="M246.57,421.17,253,423c2.63.72,5.89.19,7.27-1.19l2.32-2.33c1.37-1.36.36-3-2.24-3.74L254,414c-2.56-.7-5.76-.18-7.15,1.16l-2.37,2.28C243,418.76,244,420.45,246.57,421.17Z"/><path class="cls-67" d="M227.46,415.86l6.21,1.72c2.55.71,5.78.19,7.2-1.16l2.38-2.27c1.4-1.33.47-3-2.06-3.65L235,408.82c-2.5-.68-5.67-.17-7.09,1.14l-2.43,2.22C224.07,413.51,224.93,415.15,227.46,415.86Z"/><path class="cls-67" d="M208.84,410.68l6,1.68c2.49.69,5.69.18,7.14-1.14l2.43-2.22c1.43-1.3.57-2.89-1.89-3.56l-6-1.63c-2.44-.66-5.58-.17-7,1.11l-2.47,2.17C205.6,408.39,206.38,410,208.84,410.68Z"/><path class="cls-71" d="M178.78,414.65l8,2.29a6.65,6.65,0,0,0,5.56-.89l14.42-12.59c1.12-1,.52-2.18-1.33-2.68l-7.85-2.13a6.58,6.58,0,0,0-5.35.84l-14.64,12.36C176.4,412.86,176.92,414.11,178.78,414.65Z"/><path class="cls-67" d="M236.31,431.15l6.46,1.86c2.65.76,6,.21,7.43-1.23l2.41-2.42c1.42-1.41.42-3.16-2.21-3.89l-6.4-1.8c-2.6-.73-5.86-.19-7.31,1.2l-2.46,2.36C232.76,428.64,233.69,430.4,236.31,431.15Z"/><path class="cls-67" d="M217,425.6l6.29,1.81c2.58.74,5.89.2,7.36-1.21l2.47-2.35c1.45-1.39.54-3.09-2-3.8l-6.23-1.75c-2.53-.71-5.77-.19-7.25,1.17l-2.51,2.31C213.57,423.16,214.41,424.87,217,425.6Z"/><path class="cls-67" d="M198.13,420.2l6.12,1.76c2.52.72,5.79.19,7.29-1.18l2.53-2.3c1.48-1.36.65-3-1.84-3.71l-6.08-1.7c-2.46-.7-5.66-.18-7.17,1.14l-2.57,2.26C194.89,417.81,195.65,419.49,198.13,420.2Z"/><path class="cls-72" d="M225,349.51l-7.52,18.63L306.6,390l8-20.22c1.69-4-2.26-8.45-8.75-9.86l-68-14.85C232.23,343.81,226.52,345.82,225,349.51Z"/><path class="cls-25" d="M237.28,348.55l65.39,15.08c3.79.88,6.06,3.7,5,6.29l-4.22,10.72c-1,2.58-4.91,3.9-8.67,3l-64.7-16.29c-3.28-.83-5.18-3.43-4.27-5.83l3.8-10C230.56,349.13,234,347.79,237.28,348.55Z"/><path class="cls-73" d="M231.79,366.18l7.15,1.73,15.61,3.77,8.4,2,28,6.76,3.12.75a12.42,12.42,0,0,0,1.31.23c3.06.33,5.92-.74,6.73-2.66l1.13-2.71,2.52-6c.93-2.2-1.21-4.64-4.77-5.43L293.63,363l-16.39-3.67-4.5-1-23-5.15L239,350.76l-.87-.2c-3.11-.69-6.29.4-7.12,2.45l-1.46,3.59-1.83,4.54C226.9,363.19,228.71,365.44,231.79,366.18Z"/><path class="cls-74" d="M249.7,353.15,263,373.71l28,6.76C285.66,374,279,365.9,272.74,358.3Z"/><path class="cls-75" d="M277.24,359.31l18.15,22.14c3.06.33,5.92-.74,6.73-2.66l1.13-2.71L293.63,363Z"/><path class="cls-76" d="M229.55,356.6l9.39,11.31,15.61,3.77L239,350.76l-.87-.2c-3.11-.69-6.29.4-7.12,2.45Z"/></g></g></g></svg>