<svg height="511pt" viewBox="1 -25 511.99998 511" width="511pt" xmlns="http://www.w3.org/2000/svg"><path d="m381.382812 101.855469c-4.328124 0-7.835937-3.511719-7.835937-7.839844v-44.125c0-18.589844-15.125-33.71875-33.71875-33.71875h-167.664063c-18.59375 0-33.71875 15.128906-33.71875 33.71875v44.125c0 4.328125-3.507812 7.839844-7.835937 7.839844s-7.839844-3.511719-7.839844-7.839844v-44.125c0-27.234375 22.160157-49.390625 49.394531-49.390625h167.664063c27.234375 0 49.394531 22.15625 49.394531 49.390625v44.125c0 4.328125-3.507812 7.839844-7.839844 7.839844zm0 0" fill="#e83842"/><path d="m297.8125 49.894531h-83.632812c-22.730469 0-41.160157-18.429687-41.160157-41.160156v-.398437h165.953125v.398437c0 22.730469-18.425781 41.160156-41.160156 41.160156zm0 0" fill="#e83842"/><path d="m493.589844 280.824219v139.902343c0 22.539063-18.277344 40.8125-40.816406 40.8125h-393.558594c-22.539063 0-40.8125-18.273437-40.8125-40.8125v-139.902343zm0 0" fill="#fc5f61"/><path d="m45.570312 420.726562v-139.902343h-27.167968v139.902343c0 22.539063 18.273437 40.8125 40.8125 40.8125h27.167968c-22.539062 0-40.8125-18.273437-40.8125-40.8125zm0 0" fill="#e83842"/><path d="m493.589844 280.824219v40.753906c-60.542969 31.984375-125.953125 50.957031-192.261719 56.882813l-90.65625.011718c-66.320313-5.9375-131.730469-24.910156-192.269531-56.90625v-40.742187zm0 0" fill="#e83842"/><path d="m210.671875 337.71875c-73.089844-6.539062-145.09375-28.921875-210.671875-67.113281v-140.882813c0-22.601562 18.328125-40.929687 40.929688-40.929687h430.132812c22.609375 0 40.9375 18.328125 40.9375 40.929687v140.882813c-65.589844 38.191406-137.582031 60.574219-210.671875 67.105469" fill="#fc5f61"/><path d="m40.929688 88.792969h26.644531c-22.601563 0-40.929688 18.328125-40.929688 40.929687v155.355469c-8.984375-4.535156-17.878906-9.363281-26.644531-14.472656v-140.882813c0-22.601562 18.328125-40.929687 40.929688-40.929687zm0 0" fill="#e83842"/><path d="m362.574219 253.023438v75.433593c-6.941407 1.484375-13.910157 2.820313-20.890625 4.011719v-79.445312c0-7.59375-6.175782-13.761719-13.761719-13.761719h-143.839844c-7.585937 0-13.761719 6.167969-13.761719 13.761719v79.445312c-6.988281-1.191406-13.957031-2.527344-20.90625-4.011719v-75.433593c0-19.140626 15.527344-34.65625 34.679688-34.65625h143.828125c19.144531 0 34.652344 15.515624 34.652344 34.65625zm0 0" fill="#e83842"/><path d="m277.703125 395.183594h-43.414063c-13.042968 0-23.621093-10.574219-23.621093-23.621094v-66.078125c0-13.042969 10.578125-23.617187 23.621093-23.617187h43.414063c13.046875 0 23.621094 10.574218 23.621094 23.617187v66.078125c0 13.046875-10.574219 23.621094-23.621094 23.621094zm0 0" fill="#f7d360"/><path d="m235.203125 357.785156v-38.519531c0-5.925781 4.804687-10.730469 10.726563-10.730469h20.132812c5.925781 0 10.726562 4.804688 10.726562 10.730469v38.519531c0 5.921875-4.800781 10.726563-10.726562 10.726563h-20.132812c-5.921876 0-10.726563-4.800781-10.726563-10.726563zm0 0" fill="#e58e13"/></svg>