<svg xmlns="http://www.w3.org/2000/svg" viewBox="0 0 182.85 182.85"><defs><style>.cls-1{fill:#4e4898;}.cls-2{fill:#3e2520;}.cls-3{fill:#453445;}.cls-4{fill:#f6dfd4;}.cls-5{fill:#f18964;}.cls-6{fill:#f4a280;}.cls-7{fill:#f5a27f;}.cls-8{fill:#753733;}.cls-9{fill:#010101;}.cls-10{fill:none;stroke:#3e2520;stroke-miterlimit:10;stroke-width:0.57px;}.cls-11{fill:#151724;}</style></defs><g id="Layer_2" data-name="Layer 2"><g id="OBJECTS"><circle class="cls-1" cx="91.43" cy="91.43" r="91.43"/><path class="cls-2" d="M51.27,55.5s-8.53,10-10.05,40c-.36,7-6.43,17-7.4,25.16C32.76,129.57,36.53,144,36.53,144s2.29.28,6,.68c.45-4.6,1.29-13,1.29-13l1.92,13.35c12.37,1.28,34.17,3.2,46,2.23l-.2-96.57Z"/><path class="cls-2" d="M147.77,120.38c-1-8.15-7.12-18.1-7.51-25.12-1.64-29.91-10.21-39.93-10.21-39.93l-40.24-4.6L90,147.3c12.17.94,35-1.22,47.09-2.55.8-4.06,1.84-11.19,1.84-11.19l2.5,10.7,3.71-.44S148.87,129.33,147.77,120.38Z"/><path class="cls-2" d="M48,64a56.32,56.32,0,0,0,5.9,32.47c5.28,9.84,14.15,17.87,24.75,21.39a40.38,40.38,0,0,0,24.77.16,39.1,39.1,0,0,0,26.9-43.44,39.63,39.63,0,0,0-20.48-28.39"/><path class="cls-3" d="M91.43,182.85a91,91,0,0,0,45.47-12.09c-.51-17-7.31-46-47.62-46-34.5,0-43.92,26.92-46.44,44.13A91,91,0,0,0,91.43,182.85Z"/><path id="neck" class="cls-4" d="M77.67,125.66s.21,12.83,13.75,13,14.82-11.95,14.82-11.95S90.87,123.2,77.67,125.66Z"/><path class="cls-5" d="M81.56,114.35l.52,6.17a42.44,42.44,0,0,0,19.51.49l.1-8.82Z"/><path class="cls-6" d="M82.08,120.52l.81,9.37s1.12,5,8.78,5c8.58,0,9.83-5,9.83-5l.09-8.84A42.44,42.44,0,0,1,82.08,120.52Z"/><path class="cls-7" d="M118.53,58.51s4.8,12.49,4.84,30.73c0,14.23-11.31,28.18-28.68,29.34-16.33,1.1-33.31-5.44-38.45-28.34s2-41.15,22.81-46.28S114.26,44.31,118.53,58.51Z"/><path class="cls-6" d="M116.14,99.51l3.79-13.37s12.24-4.48,12.9,8.08S120.29,107.45,116.14,99.51Z"/><path class="cls-8" d="M120.44,100.23a.19.19,0,0,0,.1,0,.24.24,0,0,0,.13-.33c0-.06-2.73-6.1,1.48-8.92a5.58,5.58,0,0,1,4.34-1,7,7,0,0,1,3.9,2.85.26.26,0,0,0,.35.08.27.27,0,0,0,.08-.35,7.41,7.41,0,0,0-4.22-3.08,6.07,6.07,0,0,0-4.73,1.12c-4.57,3-1.69,9.47-1.66,9.54A.25.25,0,0,0,120.44,100.23Z"/><path class="cls-8" d="M126.63,95.29a.26.26,0,0,0,.2-.1.26.26,0,0,0,0-.36s-4.27-3.1-7.4,0a.25.25,0,0,0,.36.36c2.82-2.84,6.7,0,6.74,0A.3.3,0,0,0,126.63,95.29Z"/><path class="cls-8" d="M92.49,101.72a4,4,0,0,1-4.3-3.22.24.24,0,0,1,.22-.28.25.25,0,0,1,.28.21c0,.13.47,3.15,4.5,2.75a.27.27,0,0,1,.28.23.25.25,0,0,1-.23.27A6.51,6.51,0,0,1,92.49,101.72Z"/><path class="cls-5" d="M82.78,101.22c-.47,2.39-4.48,3.62-9,2.74s-7.74-3.53-7.27-5.92,4.48-3.63,9-2.75S83.25,98.82,82.78,101.22Z"/><path class="cls-6" d="M63.68,99.61,59.84,86.26S47.58,81.83,47,94.4,59.56,107.58,63.68,99.61Z"/><path class="cls-2" d="M69.4,81s-2.51-2.22,2.78-5,7.16-2.19,8-.8-.42,3.18-3.43,4.69C73.17,81.66,70.77,82.25,69.4,81Z"/><path class="cls-9" d="M79.57,89.45A2.6,2.6,0,1,1,77,86.35,2.87,2.87,0,0,1,79.57,89.45Z"/><path class="cls-5" d="M99.37,101.18c.48,2.4,4.5,3.61,9,2.71s7.72-3.56,7.24-6-4.5-3.6-9-2.7S98.89,98.79,99.37,101.18Z"/><path class="cls-2" d="M112.67,80.89s2.5-2.24-2.8-5-7.17-2.16-8-.76.43,3.17,3.44,4.67C108.91,81.58,111.31,82.17,112.67,80.89Z"/><path class="cls-9" d="M101.41,89.41A2.59,2.59,0,1,0,104,86.3,2.87,2.87,0,0,0,101.41,89.41Z"/><path class="cls-8" d="M59.39,100.35l-.1,0a.25.25,0,0,1-.13-.33c0-.07,2.7-6.11-1.52-8.91a5.54,5.54,0,0,0-4.35-1,6.91,6.91,0,0,0-3.88,2.87.27.27,0,0,1-.35.08.26.26,0,0,1-.08-.35,7.28,7.28,0,0,1,4.2-3.09,6,6,0,0,1,4.74,1.09c4.58,3,1.73,9.47,1.7,9.53A.24.24,0,0,1,59.39,100.35Z"/><path class="cls-8" d="M53.18,95.44a.28.28,0,0,1-.21-.1A.27.27,0,0,1,53,95s4.27-3.12,7.41,0a.25.25,0,0,1-.36.36c-2.83-2.83-6.7,0-6.74,0A.3.3,0,0,1,53.18,95.44Z"/><path class="cls-8" d="M93.34,95.64a.25.25,0,0,1-.23-.15.25.25,0,0,1,.12-.33,6.78,6.78,0,0,0,2.92-2.75A4.28,4.28,0,0,0,95.69,88a1.76,1.76,0,0,0-2.22-.13l-.13.07c-3.1,1.81-4.5,1-5.13,0C87.06,86.07,88,71.64,88.14,70a.26.26,0,0,1,.27-.24.25.25,0,0,1,.23.27c-.31,4.41-.9,16.17,0,17.6.74,1.17,2.24,1.11,4.44-.17l.16-.09a2.27,2.27,0,0,1,2.8.21,4.79,4.79,0,0,1,.57,5,7.19,7.19,0,0,1-3.17,3Z"/><path class="cls-2" d="M85.09,41S38,34.52,48.93,88.2a19.52,19.52,0,0,0,6.88-2.68c.76-.46,2.26-4.35,3.22-4.73,1.35-.54,4.15-2.35,5.87-3,0,0,.22-7.62,1.54-8,1-.32,3.08,7.4,4.2,7.09,6.45-1.73,17.88-2,26.4-1.72,1.38,0,2.9-14.57,4.32-14.44s5.4,14.55,6.84,14.78a37.83,37.83,0,0,1,6.68,2.22s-.26-8.56.7-8,2.48,9.66,3.68,10.33c.84.47,1.77,1,2.85,1.51.81.42.15,3.36,1,3.81C126,87,130.13,86.94,130.85,88s8.85-23.38-4.06-37C110.94,34.37,94.7,37.47,85.09,41Z"/><path class="cls-10" d="M111.05,42c17.35,5.73,30,23.41,29.84,41.68,0,6-1.33,12.08.22,17.86,1.08,4,3.44,7.53,5.17,11.3a38.51,38.51,0,0,1,.1,31.43"/><path class="cls-10" d="M66,44c-5.66,4.77-11.36,9.59-16,15.36s-8.19,12.65-8.88,20c-.38,4.07.1,8.17-.16,12.25-.36,5.64-2.15,11.08-3.91,16.46s-3.54,10.82-3.86,16.47,1,11.61,4.66,15.88"/><path class="cls-11" d="M96.66,89.23a13.54,13.54,0,1,1,14.13,12.93A13.54,13.54,0,0,1,96.66,89.23Zm.72,0a12.82,12.82,0,1,0,12.23-13.38A12.83,12.83,0,0,0,97.38,89.2Z"/><path class="cls-11" d="M59.68,90.88a13.54,13.54,0,1,1,14.13,12.93A13.54,13.54,0,0,1,59.68,90.88Zm.72,0A12.82,12.82,0,1,0,72.63,77.47,12.83,12.83,0,0,0,60.4,90.85Z"/><path class="cls-11" d="M86.3,88.17a.3.3,0,0,0,.18-.06c5-3.24,10.37-.49,10.42-.46a.36.36,0,0,0,.34-.64c-.06,0-5.79-3-11.15.5A.36.36,0,0,0,86,88,.37.37,0,0,0,86.3,88.17Z"/></g></g></svg>