<svg xmlns="http://www.w3.org/2000/svg" viewBox="0 0 117.09 144.66"><defs><style>.cls-1{fill:#f5a27f;}.cls-2{fill:#f4a280;}.cls-3{fill:#3e2520;}.cls-4{fill:#453445;}.cls-5{fill:#f6dfd4;}.cls-6{fill:#f18964;}.cls-7{fill:#753733;}.cls-8{fill:#010101;}.cls-9{fill:none;stroke:#3e2520;stroke-miterlimit:10;stroke-width:0.57px;}.cls-10{fill:#151724;}</style></defs><g id="Layer_2" data-name="Layer 2"><g id="OBJECTS"><path class="cls-1" d="M13.85,119c-1.95,10.42-1.91,25.31-1.91,25.71l19,0,.31-19.36C25.47,123.32,19.66,121.08,13.85,119Z"/><path class="cls-2" d="M83.31,126.82l1,17.69,16.79,0s1.17-13.68,0-24.1C95.49,122.58,88.91,125,83.31,126.82Z"/><path class="cls-3" d="M18.39,17.28s-8.53,10-10,40c-.36,7-6.44,17-7.4,25.16-1.06,8.95,2.71,23.42,2.71,23.42s2.29.28,6,.68c.44-4.6,1.29-13,1.29-13l1.92,13.35c12.37,1.28,34.17,3.2,46,2.23l-.2-96.57Z"/><path class="cls-3" d="M114.89,82.16c-1-8.15-7.12-18.1-7.51-25.12-1.64-29.91-10.21-39.93-10.21-39.93l-40.24-4.6.19,96.57c12.18.94,35-1.22,47.1-2.55.8-4.06,1.84-11.19,1.84-11.19l2.49,10.7,3.72-.44S116,91.11,114.89,82.16Z"/><path class="cls-3" d="M15.13,25.76A56.24,56.24,0,0,0,21,58.23c5.28,9.84,14.15,17.87,24.75,21.39a40.38,40.38,0,0,0,24.77.16A39.09,39.09,0,0,0,97.44,36.34,39.62,39.62,0,0,0,77,8"/><path id="shirt" class="cls-4" d="M9.09,144.66c0-1.06-2.92-58.13,47.31-58.13,57.1,0,47,58.13,47,58.13Z"/><path id="neck" class="cls-5" d="M44.79,87.44s.21,12.83,13.75,13,14.82-12,14.82-12S58,85,44.79,87.44Z"/><path class="cls-6" d="M48.67,76.13l.53,6.17a42.44,42.44,0,0,0,19.51.49l.1-8.82Z"/><path class="cls-2" d="M49.2,82.3,50,91.67s1.12,5,8.78,5c8.58,0,9.83-5,9.83-5l.09-8.84A42.44,42.44,0,0,1,49.2,82.3Z"/><path class="cls-1" d="M85.65,20.29S90.45,32.78,90.48,51c0,14.23-11.3,28.18-28.67,29.35C45.48,81.46,28.5,74.92,23.36,52s2-41.15,22.81-46.28S81.38,6.09,85.65,20.29Z"/><path class="cls-2" d="M83.26,61.29l3.79-13.37S99.29,43.44,100,56,87.41,69.23,83.26,61.29Z"/><path class="cls-7" d="M87.56,62a.19.19,0,0,0,.1,0,.25.25,0,0,0,.13-.33c0-.06-2.73-6.1,1.48-8.92a5.58,5.58,0,0,1,4.34-1,7,7,0,0,1,3.9,2.85.25.25,0,0,0,.34.08.26.26,0,0,0,.09-.35,7.41,7.41,0,0,0-4.22-3.08A6.07,6.07,0,0,0,89,52.32c-4.57,3-1.69,9.47-1.66,9.54A.25.25,0,0,0,87.56,62Z"/><path class="cls-7" d="M93.75,57.07A.26.26,0,0,0,94,57a.27.27,0,0,0,0-.36s-4.27-3.1-7.4,0a.25.25,0,0,0,0,.36.24.24,0,0,0,.35,0c2.83-2.84,6.71,0,6.75,0A.27.27,0,0,0,93.75,57.07Z"/><path class="cls-7" d="M59.61,63.5c-3.85,0-4.3-3.19-4.3-3.22a.24.24,0,0,1,.21-.28.26.26,0,0,1,.29.21c0,.13.46,3.15,4.5,2.75a.27.27,0,0,1,.28.23.25.25,0,0,1-.23.27A6.51,6.51,0,0,1,59.61,63.5Z"/><path class="cls-6" d="M49.9,63c-.47,2.39-4.48,3.62-9,2.74s-7.73-3.53-7.26-5.92,4.48-3.63,9-2.75S50.37,60.6,49.9,63Z"/><path class="cls-2" d="M30.8,61.39,27,48S14.7,43.61,14.09,56.18,26.68,69.36,30.8,61.39Z"/><path class="cls-3" d="M36.52,42.76s-2.51-2.23,2.78-5,7.16-2.19,8-.8-.43,3.18-3.43,4.69C40.29,43.44,37.88,44,36.52,42.76Z"/><path class="cls-8" d="M46.69,51.23a2.87,2.87,0,0,1-2.54,3.11,3.17,3.17,0,0,1,0-6.21A2.87,2.87,0,0,1,46.69,51.23Z"/><path class="cls-6" d="M66.49,63c.48,2.4,4.5,3.61,9,2.71s7.72-3.56,7.24-6-4.5-3.6-9-2.7S66,60.57,66.49,63Z"/><path class="cls-3" d="M79.79,42.67s2.5-2.24-2.81-5-7.16-2.16-8-.76.43,3.17,3.44,4.67C76,43.36,78.43,44,79.79,42.67Z"/><path class="cls-8" d="M68.53,51.19a2.59,2.59,0,1,0,2.54-3.11A2.87,2.87,0,0,0,68.53,51.19Z"/><path class="cls-7" d="M26.51,62.13l-.11,0a.25.25,0,0,1-.12-.33c0-.07,2.7-6.11-1.52-8.91a5.55,5.55,0,0,0-4.35-1,6.87,6.87,0,0,0-3.88,2.87.27.27,0,0,1-.35.08.26.26,0,0,1-.08-.35,7.33,7.33,0,0,1,4.2-3.09A6,6,0,0,1,25,52.45c4.58,3,1.73,9.47,1.7,9.53A.26.26,0,0,1,26.51,62.13Z"/><path class="cls-7" d="M20.29,57.22a.28.28,0,0,1-.2-.1.27.27,0,0,1,.05-.36s4.26-3.12,7.41,0a.27.27,0,0,1,0,.36.25.25,0,0,1-.36,0c-2.84-2.83-6.71,0-6.75,0A.25.25,0,0,1,20.29,57.22Z"/><path class="cls-7" d="M60.45,57.42a.25.25,0,0,1-.22-.15.24.24,0,0,1,.12-.33,6.84,6.84,0,0,0,2.92-2.75,4.28,4.28,0,0,0-.46-4.46,1.76,1.76,0,0,0-2.22-.13l-.13.07c-3.1,1.81-4.5,1-5.13,0-1.15-1.83-.19-16.26-.07-17.9a.26.26,0,0,1,.27-.24.26.26,0,0,1,.23.27c-.31,4.41-.91,16.17,0,17.6.74,1.17,2.24,1.12,4.44-.17l.15-.09a2.28,2.28,0,0,1,2.81.21,4.77,4.77,0,0,1,.56,5,7.19,7.19,0,0,1-3.16,3Z"/><path class="cls-3" d="M52.21,2.82S5.15-3.7,16.05,50a19.51,19.51,0,0,0,6.87-2.68c.77-.46,2.26-4.35,3.23-4.73,1.35-.54,4.15-2.35,5.86-3,0,0,.22-7.62,1.55-8,1-.32,3.08,7.4,4.2,7.09C44.2,37,55.63,36.71,64.15,37c1.38,0,2.91-14.57,4.32-14.44s5.4,14.55,6.85,14.78A38.11,38.11,0,0,1,82,39.52s-.26-8.56.7-8,2.48,9.67,3.67,10.33c.85.47,1.78,1,2.85,1.51.82.42.16,3.36,1,3.81,2.93,1.63,7.06,1.58,7.77,2.67s8.85-23.38-4-37C78.06-3.85,61.82-.75,52.21,2.82Z"/><path class="cls-9" d="M78.17,3.73c17.35,5.73,30,23.41,29.84,41.68-.06,6-1.33,12.08.22,17.86,1.08,4,3.44,7.53,5.17,11.3a38.51,38.51,0,0,1,.1,31.43"/><path class="cls-9" d="M33.14,5.77c-5.66,4.77-11.36,9.59-16,15.36S9,33.78,8.27,41.15c-.39,4.07.1,8.17-.16,12.25C7.75,59,6,64.48,4.2,69.86S.66,80.69.33,86.33s1,11.61,4.67,15.88"/><path class="cls-10" d="M63.77,51A13.54,13.54,0,1,1,77.9,63.94,13.56,13.56,0,0,1,63.77,51Zm.72,0A12.82,12.82,0,1,0,76.73,37.6,12.85,12.85,0,0,0,64.49,51Z"/><path class="cls-10" d="M26.8,52.66A13.54,13.54,0,1,1,40.92,65.59,13.55,13.55,0,0,1,26.8,52.66Zm.71,0A12.82,12.82,0,1,0,39.75,39.25,12.85,12.85,0,0,0,27.51,52.63Z"/><path class="cls-10" d="M53.42,50a.32.32,0,0,0,.18-.06c5-3.24,10.36-.49,10.42-.46a.36.36,0,0,0,.48-.15.35.35,0,0,0-.15-.49s-5.78-3-11.14.5a.35.35,0,0,0-.11.49A.36.36,0,0,0,53.42,50Z"/></g></g></svg>